SplineFontDB: 3.2
FontName: cyrenia-regular
FullName: Cyrenia Regular
FamilyName: Cyrenia
Weight: Book
Copyright: Rai 2023, a font made for the Mira's Journal game
Version: 1.1
ItalicAngle: -1.40001
UnderlinePosition: -292
UnderlineWidth: 150
Ascent: 1599
Descent: 449
InvalidEm: 0
sfntRevision: 0x00010000
LayerCount: 2
Layer: 0 1 "Back" 1
Layer: 1 1 "Fore" 0
XUID: [1021 294 1757124127 7690120]
StyleMap: 0x0040
FSType: 0
OS2Version: 1
OS2_WeightWidthSlopeOnly: 0
OS2_UseTypoMetrics: 0
CreationTime: 1695154143
ModificationTime: 1738758934
PfmFamily: 17
TTFWeight: 400
TTFWidth: 5
LineGap: 184
VLineGap: 0
Panose: 2 0 5 3 0 0 0 0 0 0
OS2TypoAscent: 1599
OS2TypoAOffset: 0
OS2TypoDescent: -449
OS2TypoDOffset: 0
OS2TypoLinegap: 184
OS2WinAscent: 1572
OS2WinAOffset: 0
OS2WinDescent: 445
OS2WinDOffset: 0
HheadAscent: 1572
HheadAOffset: 0
HheadDescent: -445
HheadDOffset: 0
OS2SubXSize: 1330
OS2SubYSize: 1433
OS2SubXOff: 0
OS2SubYOff: 285
OS2SupXSize: 1330
OS2SupYSize: 1433
OS2SupXOff: 0
OS2SupYOff: 982
OS2StrikeYSize: 102
OS2StrikeYPos: 529
OS2Vendor: 'PfEd'
OS2CodePages: 00000001.00000000
OS2UnicodeRanges: 00000001.00000000.00000000.00000000
Lookup: 258 0 0 "'kern' Horizontal Kerning in Latin lookup 0" { "'kern' Horizontal Kerning in Latin lookup 0 subtable"  } ['kern' ('latn' <'dflt' > ) ]
MarkAttachClasses: 1
DEI: 91125
ShortTable: cvt  2
  34
  665
EndShort
ShortTable: maxp 16
  1
  0
  94
  203
  5
  0
  0
  2
  0
  1
  1
  0
  64
  46
  0
  0
EndShort
LangName: 1033 "" "" "" "FontForge 2.0 : Cyrenia Regular : 20-9-2023" "" "Version 1.0" "" "" "" "" "" "" "" "" "" "" "Cyrenia" "Regular"
GaspTable: 1 65535 2 0
Encoding: UnicodeBmp
UnicodeInterp: none
NameList: AGL For New Fonts
DisplaySize: -48
AntiAlias: 1
FitToEm: 0
WinInfo: 0 24 10
BeginPrivate: 0
EndPrivate
BeginChars: 65538 95

StartChar: .notdef
Encoding: 65536 -1 0
Width: 734
GlyphClass: 1
Flags: W
LayerCount: 2
Fore
SplineSet
66 0 m 1,0,-1
 66 1365 l 1,1,-1
 601 1365 l 1,2,-1
 601 0 l 1,3,-1
 66 0 l 1,0,-1
133 66 m 1,4,-1
 535 66 l 1,5,-1
 535 1298 l 1,6,-1
 133 1298 l 1,7,-1
 133 66 l 1,4,-1
EndSplineSet
Validated: 1
EndChar

StartChar: uni0000
Encoding: 0 0 1
Width: 757
GlyphClass: 1
Flags: W
LayerCount: 2
Fore
SplineSet
291 2 m 0,0,1
 258 14 258 14 248 39 c 0,2,3
 244 49 244 49 244 76 c 0,4,5
 244 154 244 154 312 205 c 0,6,7
 343 226 343 226 387 217 c 0,8,9
 405 213 405 213 424 191 c 0,10,11
 451 160 451 160 449 135 c 0,12,13
 445 88 445 88 405 46 c 128,-1,14
 365 4 365 4 320 0 c 0,15,16
 297 0 297 0 291 2 c 0,0,1
334 353 m 0,17,18
 332 355 332 355 283 467 c 0,19,20
 265 500 265 500 258 529 c 0,21,22
 246 570 246 570 246 574 c 0,23,24
 236 635 236 635 244 672 c 0,25,26
 252 705 252 705 283 734 c 0,27,28
 326 775 326 775 377 804 c 0,29,30
 432 835 432 835 459 863 c 0,31,32
 477 881 477 881 492.5 943 c 128,-1,33
 508 1005 508 1005 508 1039 c 0,34,35
 508 1068 508 1068 495 1115 c 128,-1,36
 482 1162 482 1162 472 1181 c 0,37,38
 464 1197 464 1197 439 1222 c 0,39,40
 418 1243 418 1243 367 1258 c 128,-1,41
 316 1273 316 1273 267 1271 c 0,42,43
 216 1267 216 1267 185 1246 c 0,44,45
 162 1230 162 1230 133.5 1198.5 c 128,-1,46
 105 1167 105 1167 100 1152 c 0,47,48
 96 1142 96 1142 94 1156 c 0,49,50
 88 1215 88 1215 107 1275 c 0,51,52
 132 1353 132 1353 195 1386 c 0,53,54
 263 1423 263 1423 387.5 1411.5 c 128,-1,55
 512 1400 512 1400 560 1353 c 0,56,57
 603 1310 603 1310 631 1238 c 0,58,59
 639 1213 639 1213 642.5 1172.5 c 128,-1,60
 646 1132 646 1132 646 1078.5 c 128,-1,61
 646 1025 646 1025 646 1019 c 0,62,63
 646 990 646 990 640 961 c 0,64,65
 593 754 593 754 435 672 c 0,66,67
 408 658 408 658 392 625 c 0,68,69
 384 607 384 607 381 556 c 0,70,71
 363 328 363 328 334 353 c 0,17,18
EndSplineSet
Validated: 33
EndChar

StartChar: exclam
Encoding: 33 33 4
Width: 470
GlyphClass: 1
Flags: W
LayerCount: 2
Fore
SplineSet
180 1486 m 0,0,1
 153 1472 153 1472 139 1419 c 0,2,3
 133 1407 133 1407 133 1394 c 0,4,5
 115 1314 115 1314 115 1197 c 0,6,7
 115 1111 115 1111 131 1013 c 0,8,9
 143 945 143 945 143 904 c 0,10,11
 143 871 143 871 154 824 c 0,12,13
 168 763 168 763 168 761 c 0,14,15
 180 706 180 706 184 695 c 0,16,17
 192 668 192 668 191 658 c 0,18,19
 197 638 197 638 219 584 c 0,20,21
 239 533 239 533 238 527 c 0,22,23
 238 523 238 523 245 517.5 c 128,-1,24
 252 512 252 512 258 512 c 0,25,26
 276 512 276 512 281 554 c 0,27,28
 281 558 281 558 291 586 c 0,29,30
 295 596 295 596 299 656 c 0,31,32
 305 718 305 718 305 722 c 0,33,34
 311 749 311 749 310 871 c 0,35,36
 310 922 310 922 316 1085 c 0,37,38
 320 1224 320 1224 318 1326 c 0,39,40
 318 1363 318 1363 312 1382 c 0,41,42
 291 1452 291 1452 250 1484 c 0,43,44
 219 1506 219 1506 180 1486 c 0,0,1
201 305 m 0,45,46
 135 282 135 282 174 162 c 0,47,48
 182 146 182 146 182 141 c 0,49,50
 188 123 188 123 211 99.5 c 128,-1,51
 234 76 234 76 252 72 c 0,52,53
 272 66 272 66 305 78 c 0,54,55
 321 86 321 86 337 106.5 c 128,-1,56
 353 127 353 127 357 144 c 0,57,58
 369 187 369 187 327 244 c 128,-1,59
 285 301 285 301 234 307 c 0,60,61
 207 307 207 307 201 305 c 0,45,46
EndSplineSet
Validated: 41
EndChar

StartChar: quotedbl
Encoding: 34 34 5
Width: 743
GlyphClass: 1
Flags: W
LayerCount: 2
Fore
SplineSet
170 1148 m 0,0,1
 160 1160 160 1160 148.5 1181.5 c 128,-1,2
 137 1203 137 1203 130 1235 c 128,-1,3
 123 1267 123 1267 145.5 1295.5 c 128,-1,4
 168 1324 168 1324 225 1337 c 0,5,6
 284 1351 284 1351 322 1308 c 0,7,8
 369 1255 369 1255 342 1160 c 0,9,10
 324 1096 324 1096 286 1035 c 128,-1,11
 248 974 248 974 211 947 c 128,-1,12
 174 920 174 920 156 935 c 0,13,14
 140 951 140 951 166.5 1037 c 128,-1,15
 193 1123 193 1123 170 1148 c 0,0,1
433 1156 m 0,16,17
 423 1168 423 1168 412.5 1189 c 128,-1,18
 402 1210 402 1210 394.5 1242.5 c 128,-1,19
 387 1275 387 1275 410 1303 c 128,-1,20
 433 1331 433 1331 490 1345 c 128,-1,21
 547 1359 547 1359 586 1316 c 0,22,23
 633 1263 633 1263 605 1167 c 0,24,25
 587 1103 587 1103 549.5 1043.5 c 128,-1,26
 512 984 512 984 474.5 956.5 c 128,-1,27
 437 929 437 929 420 945 c 0,28,29
 404 961 404 961 430 1046 c 128,-1,30
 456 1131 456 1131 433 1156 c 0,16,17
EndSplineSet
Validated: 33
EndChar

StartChar: numbersign
Encoding: 35 35 6
Width: 1236
GlyphClass: 1
Flags: W
LayerCount: 2
Fore
SplineSet
24 528 m 0,0,1
 33 561 33 561 57 573 c 0,2,3
 82 585 82 585 156 589 c 0,4,5
 242 595 242 595 436 588 c 0,6,7
 604 583 604 583 780 567 c 0,8,9
 915 555 915 555 967 552 c 0,10,11
 1072 545 1072 545 1111 537 c 0,12,13
 1152 528 1152 528 1183 484 c 0,14,15
 1212 444 1212 444 1140 403 c 0,16,17
 1114 388 1114 388 1095 389 c 0,18,19
 902 399 902 399 708 399 c 0,20,21
 439 399 439 399 432 410 c 1,22,23
 432 410 432 410 168 411 c 0,24,25
 86 411 86 411 61 419 c 0,26,27
 38 428 38 428 25 456 c 0,28,29
 12 486 12 486 24 528 c 0,0,1
25 1026 m 0,30,31
 91 1081 91 1081 174 1090 c 1,32,33
 375 1093 375 1093 454 1089 c 0,34,35
 722 1076 722 1076 801 1074 c 0,36,37
 1181 1065 1181 1065 1231 1004 c 0,38,39
 1275 950 1275 950 1215 916 c 0,40,41
 1156 883 1156 883 727 906 c 0,42,43
 543 916 543 916 459 911 c 0,44,45
 415 908 415 908 186 912 c 0,46,47
 69 914 69 914 62 917 c 0,48,49
 39 926 39 926 27 954 c 0,50,51
 3 1008 3 1008 25 1026 c 0,30,31
773 8 m 0,52,53
 743 21 743 21 733 47 c 0,54,55
 723 76 723 76 726 156 c 0,56,57
 728 250 728 250 750.5 459 c 128,-1,58
 773 668 773 668 800 831 c 0,59,60
 822 976 822 976 830 1032 c 0,61,62
 847 1161 847 1161 860 1220 c 0,63,64
 867 1255 867 1255 895.5 1327 c 128,-1,65
 924 1399 924 1399 934 1408 c 0,66,67
 941 1414 941 1414 948 1432 c 0,68,69
 953 1445 953 1445 956 1449.5 c 128,-1,70
 959 1454 959 1454 962.5 1452 c 128,-1,71
 966 1450 966 1450 967.5 1442 c 128,-1,72
 969 1434 969 1434 973 1416 c 0,73,74
 985 1361 985 1361 981 1293 c 0,75,76
 980 1282 980 1282 980.5 1265 c 128,-1,77
 981 1248 981 1248 982.5 1220 c 128,-1,78
 984 1192 984 1192 983 1173 c 0,79,80
 985 1098 985 1098 949 741 c 0,81,82
 922 468 922 468 922 452 c 0,83,84
 920 368 920 368 898 156 c 0,85,86
 888 60 888 60 881 41 c 0,87,88
 870 16 870 16 842 4 c 0,89,90
 809 -9 809 -9 773 8 c 0,52,53
294 25 m 0,91,92
 262 39 262 39 254 64 c 0,93,94
 244 96 244 96 247 213 c 0,95,96
 249 307 249 307 271 516 c 0,97,98
 292 702 292 702 321 888 c 0,99,100
 343 1033 343 1033 351 1089 c 0,101,102
 369 1229 369 1229 381 1277 c 0,103,104
 389 1312 389 1312 417 1384 c 256,105,106
 445 1456 445 1456 455 1465 c 0,107,108
 462 1471 462 1471 469 1489 c 0,109,110
 474 1502 474 1502 477 1506 c 0,111,112
 480 1511 480 1511 483 1509 c 0,113,114
 487 1507 487 1507 489 1499 c 0,115,116
 490 1491 490 1491 494 1473 c 0,117,118
 508 1409 508 1409 502 1350 c 0,119,120
 500 1334 500 1334 502 1322 c 0,121,122
 503 1305 503 1305 503.5 1277 c 128,-1,123
 504 1249 504 1249 504 1230 c 0,124,125
 506 1155 506 1155 470 798 c 0,126,127
 443 525 443 525 443 509 c 0,128,129
 441 443 441 443 419 213 c 0,130,131
 405 64 405 64 402 58 c 0,132,133
 391 33 391 33 363 21 c 0,134,135
 333 9 333 9 294 25 c 0,91,92
EndSplineSet
Validated: 37
EndChar

StartChar: dollar
Encoding: 36 36 7
Width: 1149
GlyphClass: 1
Flags: W
LayerCount: 2
Fore
SplineSet
530 -150 m 0,0,1
 497 -142 497 -142 482 -115 c 0,2,3
 468 -92 468 -92 460 -29 c 0,4,5
 450 59 450 59 448 368 c 128,-1,6
 446 677 446 677 454 832 c 0,7,8
 456 852 456 852 458 918 c 128,-1,9
 460 984 460 984 460 1004 c 0,10,11
 466 1275 466 1275 470 1304 c 0,12,13
 474 1329 474 1329 495.5 1396.5 c 128,-1,14
 517 1464 517 1464 525 1474 c 0,15,16
 531 1480 531 1480 536 1497 c 0,17,18
 548 1524 548 1524 554 1513 c 0,19,20
 558 1507 558 1507 566 1486 c 0,21,22
 587 1429 587 1429 593 1374 c 0,23,24
 597 1335 597 1335 605 1294 c 0,25,26
 617 1222 617 1222 628 756 c 0,27,28
 634 508 634 508 636 498 c 0,29,30
 636 492 636 492 648 4 c 0,31,32
 650 -92 650 -92 646 -105 c 0,33,34
 638 -130 638 -130 607 -144 c 0,35,36
 569 -160 569 -160 530 -150 c 0,0,1
455 8 m 0,37,38
 389 16 389 16 355 31 c 0,39,40
 351 33 351 33 337.5 38 c 128,-1,41
 324 43 324 43 320 45 c 0,42,43
 242 74 242 74 176 144 c 0,44,45
 135 189 135 189 117 242 c 0,46,47
 97 308 97 308 125 322 c 0,48,49
 141 330 141 330 182 291 c 0,50,51
 219 256 219 256 312 193 c 0,52,53
 367 160 367 160 424 154 c 0,54,55
 549 140 549 140 611 150 c 0,56,57
 650 156 650 156 691 176 c 0,58,59
 771 215 771 215 810 279 c 0,60,61
 816 289 816 289 820 297 c 128,-1,62
 824 305 824 305 826 309.5 c 128,-1,63
 828 314 828 314 829 323 c 128,-1,64
 830 332 830 332 830 335 c 128,-1,65
 830 338 830 338 830 350.5 c 128,-1,66
 830 363 830 363 830 369 c 0,67,68
 830 408 830 408 826 429.5 c 128,-1,69
 822 451 822 451 817 458 c 128,-1,70
 812 465 812 465 799 478 c 0,71,72
 748 529 748 529 594 572 c 0,73,74
 543 586 543 586 513 597 c 0,75,76
 478 611 478 611 416 642 c 0,77,78
 383 660 383 660 353 670 c 0,79,80
 296 691 296 691 240 732 c 128,-1,81
 184 773 184 773 158 816 c 0,82,83
 144 839 144 839 133 869 c 0,84,85
 110 941 110 941 148 1064 c 0,86,87
 175 1150 175 1150 220.5 1199 c 128,-1,88
 266 1248 266 1248 359 1296 c 0,89,90
 427 1331 427 1331 486 1339 c 0,91,92
 572 1351 572 1351 695 1322 c 0,93,94
 724 1312 724 1312 738 1312 c 0,95,96
 822 1294 822 1294 886 1263 c 0,97,98
 941 1238 941 1238 953 1208 c 0,99,100
 957 1200 957 1200 951 1193 c 0,101,102
 943 1179 943 1179 904 1173 c 0,103,104
 840 1163 840 1163 754 1175 c 0,105,106
 711 1181 711 1181 672 1181 c 0,107,108
 649 1181 649 1181 613.5 1182 c 128,-1,109
 578 1183 578 1183 566 1182 c 128,-1,110
 554 1181 554 1181 533.5 1180 c 128,-1,111
 513 1179 513 1179 500.5 1174 c 128,-1,112
 488 1169 488 1169 471 1162 c 0,113,114
 428 1142 428 1142 396 1107 c 0,115,116
 326 1031 326 1031 320 931 c 0,117,118
 320 913 320 913 324 906 c 0,119,120
 344 867 344 867 484 818 c 0,121,122
 560 791 560 791 560 791 c 2,123,124
 642 760 642 760 717 750 c 0,125,126
 819 736 819 736 914 689 c 0,127,128
 1006 646 1006 646 1027 551 c 0,129,130
 1033 524 1033 524 1031 496 c 0,131,132
 1027 381 1027 381 976 279 c 0,133,134
 945 217 945 217 910 172 c 0,135,136
 799 31 799 31 636 8 c 0,137,138
 555 -6 555 -6 455 8 c 0,37,38
EndSplineSet
Validated: 37
EndChar

StartChar: percent
Encoding: 37 37 8
Width: 1144
GlyphClass: 1
Flags: W
LayerCount: 2
Fore
SplineSet
771 160 m 0,0,1
 689 172 689 172 652 226 c 0,2,3
 632 257 632 257 633 310 c 0,4,5
 633 386 633 386 681 453 c 0,6,7
 699 476 699 476 742 508 c 0,8,9
 797 547 797 547 834 553 c 0,10,11
 924 563 924 563 955 469 c 1,12,13
 955 469 955 469 958 455 c 128,-1,14
 961 441 961 441 964.5 424.5 c 128,-1,15
 968 408 968 408 968 400 c 0,16,17
 974 341 974 341 953 277 c 0,18,19
 914 162 914 162 808 158 c 0,20,21
 785 158 785 158 771 160 c 0,0,1
799 297 m 0,22,23
 822 305 822 305 830 318 c 0,24,25
 842 343 842 343 843 349 c 0,26,27
 845 359 845 359 845 379 c 0,28,29
 845 393 845 393 840 404 c 0,30,31
 832 416 832 416 816 416 c 0,32,33
 802 416 802 416 791 410 c 0,34,35
 770 396 770 396 759 385 c 0,36,37
 734 352 734 352 742 322 c 0,38,39
 746 306 746 306 765 299 c 0,40,41
 783 291 783 291 799 297 c 0,22,23
211 812 m 0,42,43
 129 824 129 824 92 879 c 0,44,45
 71 912 71 912 70 963 c 0,46,47
 70 1035 70 1035 121 1103 c 0,48,49
 144 1134 144 1134 180 1160 c 0,50,51
 235 1199 235 1199 273 1205 c 0,52,53
 363 1215 363 1215 394 1121 c 1,54,55
 394 1121 394 1121 397 1107 c 128,-1,56
 400 1093 400 1093 404 1076.5 c 128,-1,57
 408 1060 408 1060 408 1052 c 0,58,59
 414 993 414 993 392 929 c 0,60,61
 353 814 353 814 248 810 c 0,62,63
 225 810 225 810 211 812 c 0,42,43
238 949 m 0,64,65
 258 957 258 957 267 970 c 0,66,67
 283 1001 283 1001 283 1002 c 0,68,69
 285 1012 285 1012 285 1031 c 0,70,71
 285 1041 285 1041 277 1056 c 0,72,73
 269 1068 269 1068 255.5 1068 c 128,-1,74
 242 1068 242 1068 230 1062 c 0,75,76
 205 1046 205 1046 197 1037 c 0,77,78
 172 1004 172 1004 180 974 c 0,79,80
 182 960 182 960 207 951 c 0,81,82
 224 943 224 943 238 949 c 0,64,65
158 80 m 0,83,84
 138 111 138 111 143 141 c 0,85,86
 147 176 147 176 178 246 c 0,87,88
 217 334 217 334 320.5 520.5 c 128,-1,89
 424 707 424 707 512 851 c 0,90,91
 563 929 563 929 621 1031 c 0,92,93
 705 1172 705 1172 720 1191 c 0,94,95
 740 1220 740 1220 792.5 1273 c 128,-1,96
 845 1326 845 1326 857 1330 c 0,97,98
 863 1332 863 1332 879 1345 c 0,99,100
 900 1365 900 1365 900 1349 c 0,101,102
 900 1341 900 1341 894 1316 c 0,103,104
 880 1255 880 1255 853 1195 c 0,105,106
 824 1131 824 1131 804 1080 c 0,107,108
 767 988 767 988 603 685 c 0,109,110
 474 445 474 445 465 422 c 0,111,112
 438 354 438 354 326 152 c 0,113,114
 281 64 281 64 266 53 c 0,115,116
 245 32 245 32 217 37 c 0,117,118
 179 45 179 45 158 80 c 0,83,84
EndSplineSet
Validated: 33
EndChar

StartChar: ampersand
Encoding: 38 38 9
Width: 1212
GlyphClass: 1
Flags: W
LayerCount: 2
Fore
SplineSet
1044 47 m 0,0,1
 995 68 995 68 941 137 c 0,2,3
 935 145 935 145 925.5 156.5 c 128,-1,4
 916 168 916 168 903 181.5 c 128,-1,5
 890 195 890 195 886 199 c 2,6,-1
 859 230 l 1,7,-1
 841 209 l 2,8,9
 810 172 810 172 749.5 133 c 128,-1,10
 689 94 689 94 644 82 c 0,11,12
 603 70 603 70 525 72 c 128,-1,13
 447 74 447 74 394 90 c 0,14,15
 326 110 326 110 269 154 c 0,16,17
 175 232 175 232 131 326 c 0,18,19
 69 453 69 453 146 609 c 0,20,21
 195 711 195 711 310 775 c 1,22,-1
 349 799 l 1,23,-1
 342 810 l 1,24,25
 307 880 307 880 285 980 c 0,26,27
 264 1087 264 1087 288 1189.5 c 128,-1,28
 312 1292 312 1292 371 1343 c 0,29,30
 426 1390 426 1390 488 1408 c 0,31,32
 513 1414 513 1414 572 1413 c 0,33,34
 607 1413 607 1413 642 1402 c 0,35,36
 841 1330 841 1330 808 1109 c 0,37,38
 785 959 785 959 631 804 c 2,39,-1
 582 756 l 1,40,-1
 638 695 l 2,41,42
 689 640 689 640 722 611 c 0,43,44
 743 591 743 591 785.5 557 c 128,-1,45
 828 523 828 523 830 523 c 0,46,47
 834 523 834 523 849 588 c 0,48,49
 872 680 872 680 893 723.5 c 128,-1,50
 914 767 914 767 953 804 c 0,51,52
 998 847 998 847 1009 840 c 0,53,54
 1017 832 1017 832 1015 762.5 c 128,-1,55
 1013 693 1013 693 1005 658 c 0,56,57
 1005 656 1005 656 1001.5 641.5 c 128,-1,58
 998 627 998 627 994 605.5 c 128,-1,59
 990 584 990 584 988 574 c 0,60,61
 968 484 968 484 959 443 c 2,62,-1
 951 414 l 1,63,64
 1006 334 1006 334 1058 223 c 0,65,66
 1064 213 1064 213 1073 195.5 c 128,-1,67
 1082 178 1082 178 1086.5 168 c 128,-1,68
 1091 158 1091 158 1099 144.5 c 128,-1,69
 1107 131 1107 131 1110 122 c 128,-1,70
 1113 113 1113 113 1116 102.5 c 128,-1,71
 1119 92 1119 92 1119 84 c 128,-1,72
 1119 76 1119 76 1118 68.5 c 128,-1,73
 1117 61 1117 61 1112 55 c 128,-1,74
 1107 49 1107 49 1099 45 c 0,75,76
 1079 33 1079 33 1044 47 c 0,0,1
625 267 m 0,77,78
 652 275 652 275 695 302.5 c 128,-1,79
 738 330 738 330 738 336 c 128,-1,80
 738 342 738 342 689 383 c 0,81,82
 574 479 574 479 517 543 c 0,83,84
 470 596 470 596 435 646 c 1,85,-1
 430 656 l 1,86,-1
 379 629 l 2,87,88
 293 584 293 584 264 527 c 0,89,90
 239 480 239 480 238 443 c 0,91,92
 238 414 238 414 289 357 c 0,93,94
 351 287 351 287 420 269 c 0,95,96
 529 238 529 238 625 267 c 0,77,78
547 933 m 0,97,98
 621 1007 621 1007 658 1081.5 c 128,-1,99
 695 1156 695 1156 679 1195 c 0,100,101
 659 1246 659 1246 566 1246 c 0,102,103
 474 1246 474 1246 445 1179 c 0,104,105
 437 1161 437 1161 437 1099 c 0,106,107
 437 1042 437 1042 449 1009 c 0,108,109
 457 984 457 984 468.5 955.5 c 128,-1,110
 480 927 480 927 490 910.5 c 128,-1,111
 500 894 500 894 502 894 c 0,112,113
 512 894 512 894 547 933 c 0,97,98
EndSplineSet
Validated: 33
EndChar

StartChar: quotesingle
Encoding: 39 39 10
Width: 474
GlyphClass: 1
Flags: W
LayerCount: 2
Fore
SplineSet
166 1189 m 0,0,1
 156 1201 156 1201 145.5 1222.5 c 128,-1,2
 135 1244 135 1244 127 1276 c 128,-1,3
 119 1308 119 1308 142.5 1336.5 c 128,-1,4
 166 1365 166 1365 222.5 1378.5 c 128,-1,5
 279 1392 279 1392 320 1347 c 0,6,7
 365 1296 365 1296 340 1201 c 0,8,9
 322 1137 322 1137 284 1076 c 128,-1,10
 246 1015 246 1015 209 988 c 128,-1,11
 172 961 172 961 154 976 c 0,12,13
 138 992 138 992 163.5 1078 c 128,-1,14
 189 1164 189 1164 166 1189 c 0,0,1
EndSplineSet
Validated: 33
EndChar

StartChar: parenleft
Encoding: 40 40 11
Width: 593
GlyphClass: 1
Flags: W
LayerCount: 2
Fore
SplineSet
428 -43 m 0,0,1
 274 43 274 43 185 330 c 0,2,3
 60 740 60 740 176 1126 c 0,4,5
 252 1376 252 1376 404 1478 c 0,6,7
 441 1503 441 1503 459 1492 c 0,8,9
 480 1474 480 1474 449 1413 c 0,10,11
 431 1380 431 1380 428 1365 c 0,12,13
 424 1345 424 1345 408 1310 c 0,14,15
 387 1257 387 1257 377 1216 c 0,16,17
 373 1198 373 1198 353 1140 c 0,18,19
 333 1076 333 1076 326 1031 c 0,20,21
 252 672 252 672 377 303 c 0,22,23
 406 213 406 213 455 115 c 1,24,25
 525 -8 525 -8 494 -49 c 0,26,27
 477 -68 477 -68 428 -43 c 0,0,1
EndSplineSet
Validated: 33
EndChar

StartChar: parenright
Encoding: 41 41 12
Width: 587
GlyphClass: 1
Flags: W
LayerCount: 2
Fore
SplineSet
164 -59 m 0,0,1
 318 27 318 27 406 316 c 0,2,3
 531 732 531 732 416 1123 c 0,4,5
 340 1377 340 1377 187 1478 c 0,6,7
 150 1503 150 1503 133 1492 c 0,8,9
 110 1474 110 1474 143 1412 c 0,10,11
 161 1379 161 1379 164 1363 c 0,12,13
 168 1340 168 1340 184 1306 c 0,14,15
 209 1245 209 1245 217 1212 c 0,16,17
 219 1198 219 1198 238 1136 c 0,18,19
 252 1091 252 1091 264 1027 c 0,20,21
 338 658 338 658 215 289 c 0,22,23
 184 193 184 193 137 100 c 1,24,25
 67 -23 67 -23 98 -64 c 0,26,27
 115 -84 115 -84 164 -59 c 0,0,1
EndSplineSet
Validated: 41
EndChar

StartChar: asterisk
Encoding: 42 42 13
Width: 634
GlyphClass: 1
Flags: W
LayerCount: 2
Fore
SplineSet
426 1173 m 0,0,1
 432 1163 432 1163 442.5 1147.5 c 128,-1,2
 453 1132 453 1132 461 1121.5 c 128,-1,3
 469 1111 469 1111 476.5 1097.5 c 128,-1,4
 484 1084 484 1084 483 1076 c 128,-1,5
 482 1068 482 1068 478 1060 c 0,6,7
 449 1033 449 1033 340 1123 c 0,8,9
 320 1139 320 1139 252 1207 c 1,10,11
 168 1301 168 1301 168 1333 c 0,12,13
 168 1353 168 1353 181.5 1362.5 c 128,-1,14
 195 1372 195 1372 213 1371 c 0,15,16
 256 1365 256 1365 289 1339 c 0,17,18
 297 1333 297 1333 392 1218 c 0,19,20
 406 1202 406 1202 426 1173 c 0,0,1
357 1365 m 0,21,22
 427 1410 427 1410 447 1400 c 0,23,24
 470 1386 470 1386 437 1304 c 0,25,26
 431 1298 431 1298 431 1289 c 0,27,28
 421 1258 421 1258 405 1232.5 c 128,-1,29
 389 1207 389 1207 356.5 1172.5 c 128,-1,30
 324 1138 324 1138 322 1136 c 0,31,32
 291 1099 291 1099 250 1074.5 c 128,-1,33
 209 1050 209 1050 185 1068 c 0,34,35
 152 1091 152 1091 195 1171 c 0,36,37
 228 1228 228 1228 283 1289 c 0,38,39
 299 1305 299 1305 311.5 1319 c 128,-1,40
 324 1333 324 1333 328 1339 c 128,-1,41
 332 1345 332 1345 339.5 1351 c 128,-1,42
 347 1357 347 1357 357 1365 c 0,21,22
277 1363 m 0,43,44
 285 1480 285 1480 314 1478 c 0,45,46
 337 1476 337 1476 357 1415.5 c 128,-1,47
 377 1355 377 1355 381 1300 c 0,48,49
 389 1183 389 1183 385 1154 c 0,50,51
 367 963 367 963 328 955 c 0,52,53
 320 953 320 953 312.5 958.5 c 128,-1,54
 305 964 305 964 300 971 c 128,-1,55
 295 978 295 978 289 987 c 128,-1,56
 283 996 283 996 281 998 c 0,57,58
 277 1004 277 1004 262 1126 c 0,59,60
 258 1161 258 1161 267 1255 c 0,61,62
 273 1297 273 1297 277 1363 c 0,43,44
182 1158 m 0,63,64
 120 1162 120 1162 89.5 1174.5 c 128,-1,65
 59 1187 59 1187 81 1207.5 c 128,-1,66
 103 1228 103 1228 184 1251 c 0,67,68
 323 1290 323 1290 353 1292 c 0,69,70
 507 1302 507 1302 535 1273 c 0,71,72
 551 1257 551 1257 551 1234 c 0,73,74
 553 1220 553 1220 531 1199 c 0,75,76
 527 1195 527 1195 508.5 1191 c 128,-1,77
 490 1187 490 1187 467.5 1183 c 128,-1,78
 445 1179 445 1179 437 1177 c 0,79,80
 386 1165 386 1165 303 1164 c 0,81,82
 264 1162 264 1162 232 1160 c 128,-1,83
 200 1158 200 1158 182 1158 c 0,63,64
EndSplineSet
Validated: 37
EndChar

StartChar: plus
Encoding: 43 43 14
Width: 773
GlyphClass: 1
Flags: W
LayerCount: 2
Fore
SplineSet
349 789 m 0,0,1
 353 803 353 803 358 830 c 128,-1,2
 363 857 363 857 367 878.5 c 128,-1,3
 371 900 371 900 377 921.5 c 128,-1,4
 383 943 383 943 391.5 954.5 c 128,-1,5
 400 966 400 966 412 964 c 0,6,7
 443 962 443 962 460.5 890 c 128,-1,8
 478 818 478 818 482 740 c 0,9,10
 494 580 494 580 488 521 c 0,11,12
 472 334 472 334 439 310 c 1,13,14
 414 285 414 285 398 285 c 0,15,16
 384 285 384 285 353 322 c 0,17,18
 337 340 337 340 324 496 c 0,19,20
 318 555 318 555 338 711 c 0,21,22
 345 773 345 773 349 789 c 0,0,1
172 553 m 0,23,24
 63 580 63 580 55 588 c 0,25,26
 53 590 53 590 53 594 c 0,27,28
 55 598 55 598 94 619 c 128,-1,29
 133 640 133 640 150 646 c 0,30,31
 170 652 170 652 195 664 c 0,32,33
 306 711 306 711 492 720 c 0,34,35
 553 724 553 724 617 715.5 c 128,-1,36
 681 707 681 707 697 689 c 1,37,38
 718 648 718 648 718 636.5 c 128,-1,39
 718 625 718 625 716.5 620 c 128,-1,40
 715 615 715 615 707 611 c 128,-1,41
 699 607 699 607 695 603 c 0,42,43
 685 593 685 593 549 562 c 0,44,45
 483 546 483 546 322 545 c 0,46,47
 205 545 205 545 172 553 c 0,23,24
EndSplineSet
Validated: 37
EndChar

StartChar: comma
Encoding: 44 44 15
Width: 476
GlyphClass: 1
Flags: W
LayerCount: 2
Fore
SplineSet
170 66 m 0,0,1
 160 78 160 78 148.5 99.5 c 128,-1,2
 137 121 137 121 130 153 c 128,-1,3
 123 185 123 185 145.5 213.5 c 128,-1,4
 168 242 168 242 225 256 c 0,5,6
 284 270 284 270 322 226 c 0,7,8
 369 173 369 173 342 78 c 0,9,10
 324 14 324 14 286 -46.5 c 128,-1,11
 248 -107 248 -107 211 -134.5 c 128,-1,12
 174 -162 174 -162 156 -146 c 0,13,14
 140 -130 140 -130 166.5 -44.5 c 128,-1,15
 193 41 193 41 170 66 c 0,0,1
EndSplineSet
Validated: 33
EndChar

StartChar: hyphen
Encoding: 45 45 16
Width: 800
GlyphClass: 1
Flags: W
LayerCount: 2
Fore
SplineSet
246 562 m 4,0,1
 143 587 143 587 133 597 c 4,2,3
 131 599 131 599 131 603 c 4,4,5
 133 607 133 607 171 628.5 c 132,-1,6
 209 650 209 650 226 656 c 4,7,8
 242 660 242 660 269 674 c 4,9,10
 388 725 388 725 508 730 c 4,11,12
 625 736 625 736 648 709 c 4,13,14
 654 703 654 703 665 679.5 c 132,-1,15
 676 656 676 656 676 650 c 4,16,17
 676 636 676 636 656 617 c 4,18,19
 631 588 631 588 564.5 572 c 132,-1,20
 498 556 498 556 338 554 c 4,21,22
 279 554 279 554 246 562 c 4,0,1
EndSplineSet
Validated: 33
EndChar

StartChar: period
Encoding: 46 46 17
Width: 480
GlyphClass: 1
Flags: W
LayerCount: 2
Fore
SplineSet
180 14 m 0,0,1
 149 24 149 24 137 57 c 0,2,3
 131 75 131 75 131 96 c 0,4,5
 131 190 131 190 207 242 c 0,6,7
 236 263 236 263 289 250 c 0,8,9
 314 242 314 242 330 226 c 0,10,11
 359 191 359 191 357 160 c 0,12,13
 353 107 353 107 308.5 60.5 c 128,-1,14
 264 14 264 14 215 10 c 0,15,16
 192 10 192 10 180 14 c 0,0,1
EndSplineSet
Validated: 33
EndChar

StartChar: slash
Encoding: 47 47 18
Width: 739
GlyphClass: 1
Flags: W
LayerCount: 2
Fore
SplineSet
133 39 m 0,0,1
 106 70 106 70 103 96 c 0,2,3
 101 119 101 119 121 207 c 0,4,5
 180 443 180 443 346 863 c 0,6,7
 412 1035 412 1035 420 1054 c 0,8,9
 465 1177 465 1177 492 1230 c 0,10,11
 508 1263 508 1263 551 1324.5 c 128,-1,12
 594 1386 594 1386 603 1392 c 0,13,14
 609 1396 609 1396 623 1412 c 0,15,16
 641 1433 641 1433 642 1423 c 0,17,18
 644 1415 644 1415 642 1386 c 0,19,20
 640 1324 640 1324 623 1255 c 0,21,22
 598 1150 598 1150 594 1136 c 0,23,24
 573 1038 573 1038 467 715 c 0,25,26
 387 479 387 479 375 430 c 0,27,28
 373 420 373 420 357.5 372 c 128,-1,29
 342 324 342 324 318.5 249 c 128,-1,30
 295 174 295 174 283 139 c 0,31,32
 254 43 254 43 242 29 c 0,33,34
 228 9 228 9 195 9.5 c 128,-1,35
 162 10 162 10 133 39 c 0,0,1
EndSplineSet
Validated: 33
EndChar

StartChar: zero
Encoding: 48 48 19
Width: 1040
GlyphClass: 1
Flags: W
LayerCount: 2
Fore
SplineSet
445 14 m 0,0,1
 441 14 441 14 435.5 16 c 128,-1,2
 430 18 430 18 423 19.5 c 128,-1,3
 416 21 416 21 414 21 c 0,4,5
 316 41 316 41 219 203 c 0,6,7
 190 254 190 254 164 330 c 0,8,9
 143 391 143 391 133 445 c 0,10,11
 113 543 113 543 117 672 c 0,12,13
 121 779 121 779 154 879 c 0,14,15
 195 1000 195 1000 220.5 1053.5 c 128,-1,16
 246 1107 246 1107 297 1177 c 0,17,18
 338 1236 338 1236 360.5 1261.5 c 128,-1,19
 383 1287 383 1287 418 1310 c 0,20,21
 473 1347 473 1347 531 1347 c 0,22,23
 654 1347 654 1347 707 1289 c 0,24,25
 730 1266 730 1266 761.5 1215 c 128,-1,26
 793 1164 793 1164 806 1130 c 0,27,28
 818 1103 818 1103 832 1076 c 0,29,30
 867 1008 867 1008 890 904 c 0,31,32
 960 601 960 601 898 355 c 0,33,34
 861 220 861 220 765 127 c 0,35,36
 710 72 710 72 636 37 c 0,37,38
 605 23 605 23 564 16 c 0,39,40
 533 10 533 10 486 10 c 0,41,42
 461 10 461 10 445 14 c 0,0,1
500 187 m 0,43,44
 541 183 541 183 576 215 c 0,45,46
 609 246 609 246 619 254 c 0,47,48
 629 264 629 264 648 285 c 0,49,50
 669 308 669 308 685 334 c 0,51,52
 699 357 699 357 713 377 c 0,53,54
 729 404 729 404 744 484 c 0,55,56
 760 568 760 568 759 658 c 0,57,58
 759 953 759 953 676 1050 c 0,59,60
 664 1064 664 1064 642 1093 c 0,61,62
 621 1122 621 1122 609 1138 c 256,63,64
 597 1154 597 1154 576 1167 c 0,65,66
 553 1179 553 1179 533 1173 c 0,67,68
 512 1167 512 1167 482 1138 c 0,69,70
 451 1107 451 1107 416 1050 c 0,71,72
 354 952 354 952 322 849 c 0,73,74
 308 800 308 800 297 750 c 0,75,76
 291 723 291 723 287 621 c 0,77,78
 287 598 287 598 289 584 c 0,79,80
 293 568 293 568 299 539 c 256,81,82
 305 510 305 510 312 474 c 0,83,84
 314 458 314 458 336 387 c 0,85,86
 395 197 395 197 500 187 c 0,43,44
EndSplineSet
Validated: 33
EndChar

StartChar: one
Encoding: 49 49 20
Width: 671
GlyphClass: 1
Flags: W
LayerCount: 2
Fore
SplineSet
418 18 m 0,0,1
 385 26 385 26 371 49 c 0,2,3
 357 74 357 74 349 143 c 0,4,5
 329 309 329 309 344 611 c 0,6,7
 348 695 348 695 345 775 c 128,-1,8
 342 855 342 855 336 914 c 2,9,-1
 332 972 l 1,10,11
 332 972 332 972 230 873 c 1,12,13
 99 754 99 754 94 806 c 0,14,15
 88 843 88 843 130 945.5 c 128,-1,16
 172 1048 172 1048 246 1156 c 0,17,18
 267 1187 267 1187 295.5 1224 c 128,-1,19
 324 1261 324 1261 343.5 1285.5 c 128,-1,20
 363 1310 363 1310 365 1314 c 0,21,22
 377 1334 377 1334 416 1328 c 128,-1,23
 455 1322 455 1322 459 1300 c 0,24,25
 461 1294 461 1294 483.5 1267 c 128,-1,26
 506 1240 506 1240 508 1214 c 1,27,28
 526 1161 526 1161 528.5 1103.5 c 128,-1,29
 531 1046 531 1046 527 917.5 c 128,-1,30
 523 789 523 789 525 674 c 0,31,32
 525 613 525 613 524 555.5 c 128,-1,33
 523 498 523 498 523 469.5 c 128,-1,34
 523 441 523 441 523 435 c 0,35,36
 531 376 531 376 535 166 c 0,37,38
 537 80 537 80 531 61 c 0,39,40
 523 40 523 40 492 23 c 1,41,42
 455 8 455 8 418 18 c 0,0,1
EndSplineSet
Validated: 33
EndChar

StartChar: two
Encoding: 50 50 21
Width: 1255
GlyphClass: 1
Flags: W
LayerCount: 2
Fore
SplineSet
465 16 m 0,0,1
 451 18 451 18 348 25 c 0,2,3
 243 33 243 33 213 29 c 0,4,5
 158 21 158 21 135 55 c 0,6,7
 106 90 106 90 146 131 c 0,8,9
 201 195 201 195 340 262 c 0,10,11
 375 278 375 278 428.5 309 c 128,-1,12
 482 340 482 340 541 369 c 1,13,14
 742 451 742 451 808 674 c 0,15,16
 847 813 847 813 802 947 c 0,17,18
 769 1047 769 1047 713.5 1103.5 c 128,-1,19
 658 1160 658 1160 594.5 1168.5 c 128,-1,20
 531 1177 531 1177 478.5 1169.5 c 128,-1,21
 426 1162 426 1162 373 1140 c 0,22,23
 256 1095 256 1095 168 1015 c 0,24,25
 127 978 127 978 115 957 c 0,26,27
 111 951 111 951 105 957 c 2,28,-1
 100 963 l 1,29,-1
 105 998 l 2,30,31
 123 1101 123 1101 210 1198.5 c 128,-1,32
 297 1296 297 1296 476 1330 c 1,33,34
 632 1353 632 1353 732 1320 c 0,35,36
 834 1285 834 1285 898.5 1200 c 128,-1,37
 963 1115 963 1115 983.5 1010.5 c 128,-1,38
 1004 906 1004 906 1003 809.5 c 128,-1,39
 1002 713 1002 713 982 629 c 0,40,41
 962 529 962 529 916 453 c 0,42,43
 832 318 832 318 668 244 c 0,44,45
 645 232 645 232 618.5 221.5 c 128,-1,46
 592 211 592 211 574 204 c 128,-1,47
 556 197 556 197 540.5 192 c 128,-1,48
 525 187 525 187 519 184 c 2,49,-1
 512 182 l 1,50,51
 514 180 514 180 668 168 c 0,52,53
 1049 143 1049 143 1121 123 c 0,54,55
 1123 123 1123 123 1146 117 c 0,56,57
 1166 109 1166 109 1164 102 c 0,58,59
 1160 100 1160 100 1162 96 c 0,60,61
 1170 80 1170 80 1159 63.5 c 128,-1,62
 1148 47 1148 47 1126 39 c 0,63,64
 1079 25 1079 25 1007 20 c 0,65,66
 939 14 939 14 721.5 12 c 128,-1,67
 504 10 504 10 465 16 c 0,0,1
EndSplineSet
Validated: 33
EndChar

StartChar: three
Encoding: 51 51 22
Width: 983
GlyphClass: 1
Flags: W
LayerCount: 2
Fore
SplineSet
264 47 m 0,0,1
 233 63 233 63 191 103 c 0,2,3
 154 142 154 142 147.5 161 c 128,-1,4
 141 180 141 180 158 195 c 0,5,6
 168 205 168 205 269 193 c 0,7,8
 312 185 312 185 357 176 c 0,9,10
 390 168 390 168 422 170 c 0,11,12
 520 174 520 174 604.5 233.5 c 128,-1,13
 689 293 689 293 705 363 c 0,14,15
 725 449 725 449 637 519.5 c 128,-1,16
 549 590 549 590 353 584 c 0,17,18
 341 584 341 584 322 594 c 0,19,20
 318 596 318 596 311.5 599.5 c 128,-1,21
 305 603 305 603 300 605 c 128,-1,22
 295 607 295 607 289 610 c 128,-1,23
 283 613 283 613 279 616 c 128,-1,24
 275 619 275 619 271 623 c 128,-1,25
 267 627 267 627 265.5 630 c 128,-1,26
 264 633 264 633 263 637.5 c 128,-1,27
 262 642 262 642 263 646 c 128,-1,28
 264 650 264 650 267 656 c 0,29,30
 294 697 294 697 416 732 c 0,31,32
 477 748 477 748 514 768.5 c 128,-1,33
 551 789 551 789 561.5 800.5 c 128,-1,34
 572 812 572 812 594 843 c 0,35,36
 680 958 680 958 679 1019 c 0,37,38
 679 1048 679 1048 657.5 1087 c 128,-1,39
 636 1126 636 1126 609 1148 c 0,40,41
 523 1212 523 1212 275 1162 c 0,42,43
 216 1150 216 1150 176 1130 c 0,44,45
 119 1107 119 1107 103 1125 c 0,46,47
 93 1135 93 1135 94 1146 c 0,48,49
 94 1167 94 1167 115 1189 c 0,50,51
 133 1207 133 1207 137 1212 c 0,52,53
 160 1245 160 1245 224.5 1286.5 c 128,-1,54
 289 1328 289 1328 336 1341 c 0,55,56
 363 1349 363 1349 416 1349 c 0,57,58
 562 1343 562 1343 619.5 1327.5 c 128,-1,59
 677 1312 677 1312 734 1265 c 0,60,61
 771 1234 771 1234 788.5 1206.5 c 128,-1,62
 806 1179 806 1179 824 1123 c 0,63,64
 849 1033 849 1033 845 974 c 0,65,66
 841 925 841 925 822.5 885 c 128,-1,67
 804 845 804 845 744 769 c 0,68,69
 701 712 701 712 701 711 c 0,70,71
 713 703 713 703 722 697 c 0,72,73
 779 664 779 664 823 609 c 128,-1,74
 867 554 867 554 871 513 c 0,75,76
 875 482 875 482 868 406 c 128,-1,77
 861 330 861 330 847 281 c 0,78,79
 794 90 794 90 502 14 c 1,80,81
 340 10 340 10 264 47 c 0,0,1
EndSplineSet
Validated: 33
EndChar

StartChar: four
Encoding: 52 52 23
Width: 1183
GlyphClass: 1
Flags: W
LayerCount: 2
Fore
SplineSet
707 27 m 0,0,1
 680 72 680 72 672 131 c 0,2,3
 666 166 666 166 666 271 c 0,4,5
 666 363 666 363 662 375 c 0,6,7
 660 379 660 379 607 375 c 0,8,9
 343 350 343 350 234 301 c 0,10,11
 197 285 197 285 180 287 c 0,12,13
 133 289 133 289 107 332 c 0,14,15
 86 369 86 369 121 459 c 0,16,17
 142 516 142 516 256 679 c 0,18,19
 272 702 272 702 279 715 c 0,20,21
 439 947 439 947 491 1036 c 128,-1,22
 543 1125 543 1125 584 1226 c 0,23,24
 611 1298 611 1298 627.5 1321.5 c 128,-1,25
 644 1345 644 1345 666 1351 c 0,26,27
 699 1359 699 1359 728.5 1347 c 128,-1,28
 758 1335 758 1335 771 1310 c 0,29,30
 781 1290 781 1290 783 1185 c 0,31,32
 785 1007 785 1007 799 754 c 0,33,34
 799 713 799 713 804 619 c 2,35,-1
 808 564 l 1,36,-1
 914 564 l 2,37,38
 1014 564 1014 564 1043 551 c 0,39,40
 1092 528 1092 528 1091 498 c 0,41,42
 1091 465 1091 465 1058 449 c 0,43,44
 982 410 982 410 875 400 c 0,45,46
 867 400 867 400 832 394 c 1,47,-1
 820 390 l 1,48,-1
 812 289 l 2,49,50
 806 187 806 187 797 150 c 0,51,52
 776 58 776 58 748 25 c 0,53,54
 740 17 740 17 726.5 17 c 128,-1,55
 713 17 713 17 707 27 c 0,0,1
392 517 m 0,56,57
 576 546 576 546 644 547 c 0,58,59
 654 547 654 547 654 568 c 0,60,61
 642 732 642 732 623 888 c 2,62,-1
 619 916 l 1,63,-1
 566 838 l 2,64,65
 564 836 564 836 422 629 c 0,66,67
 340 510 340 510 346 510 c 0,68,69
 353 509 353 509 392 517 c 0,56,57
EndSplineSet
Validated: 33
EndChar

StartChar: five
Encoding: 53 53 24
Width: 1069
GlyphClass: 1
Flags: W
LayerCount: 2
Fore
SplineSet
371 23 m 0,0,1
 301 48 301 48 241.5 92.5 c 128,-1,2
 182 137 182 137 160 184 c 0,3,4
 148 205 148 205 143 269 c 0,5,6
 141 292 141 292 152 301 c 0,7,8
 179 321 179 321 219 295 c 0,9,10
 270 262 270 262 367 228 c 0,11,12
 431 207 431 207 482 205 c 0,13,14
 574 201 574 201 631 228 c 0,15,16
 748 285 748 285 770.5 377 c 128,-1,17
 793 469 793 469 711 572 c 0,18,19
 691 597 691 597 661 602 c 128,-1,20
 631 607 631 607 510 607 c 0,21,22
 399 607 399 607 324 592 c 0,23,24
 222 572 222 572 199 578 c 0,25,26
 166 586 166 586 135 638 c 0,27,28
 119 663 119 663 119 694.5 c 128,-1,29
 119 726 119 726 133 804 c 0,30,31
 154 923 154 923 148 1023 c 0,32,33
 148 1025 148 1025 143 1119 c 0,34,35
 135 1219 135 1219 141 1236 c 0,36,37
 166 1310 166 1310 209 1322 c 0,38,39
 248 1332 248 1332 492 1332.5 c 128,-1,40
 736 1333 736 1333 785 1324 c 0,41,42
 808 1320 808 1320 858 1293.5 c 128,-1,43
 908 1267 908 1267 908 1255 c 0,44,45
 908 1247 908 1247 885.5 1233.5 c 128,-1,46
 863 1220 863 1220 823 1203.5 c 128,-1,47
 783 1187 783 1187 740 1177 c 0,48,49
 707 1167 707 1167 556 1158 c 0,50,51
 337 1142 337 1142 338 1142 c 0,52,53
 340 1103 340 1103 342 1085 c 0,54,55
 354 876 354 876 332 802 c 1,56,-1
 328 791 l 1,57,-1
 385 795 l 2,58,59
 444 799 444 799 554 799 c 0,60,61
 646 799 646 799 689 787 c 0,62,63
 753 771 753 771 815 734 c 128,-1,64
 877 697 877 697 904 656 c 0,65,66
 939 605 939 605 953 517 c 0,67,68
 973 390 973 390 944.5 277 c 128,-1,69
 916 164 916 164 857 117 c 0,70,71
 793 64 793 64 679 37 c 0,72,73
 671 35 671 35 641 26.5 c 128,-1,74
 611 18 611 18 603 14 c 0,75,76
 496 -22 496 -22 371 23 c 0,0,1
EndSplineSet
Validated: 33
EndChar

StartChar: six
Encoding: 54 54 25
Width: 1085
GlyphClass: 1
Flags: W
LayerCount: 2
Fore
SplineSet
406 -2 m 0,0,1
 326 12 326 12 248 90 c 0,2,3
 143 192 143 192 119 412 c 0,4,5
 107 529 107 529 133 666 c 0,6,7
 162 810 162 810 199 916 c 0,8,9
 248 1049 248 1049 359.5 1175.5 c 128,-1,10
 471 1302 471 1302 580 1318 c 0,11,12
 605 1324 605 1324 613 1326 c 0,13,14
 629 1330 629 1330 669 1329 c 128,-1,15
 709 1328 709 1328 732 1324 c 0,16,17
 753 1320 753 1320 767 1312 c 0,18,19
 777 1306 777 1306 813 1270 c 128,-1,20
 849 1234 849 1234 855 1224 c 0,21,22
 869 1206 869 1206 843 1181 c 0,23,24
 835 1173 835 1173 781 1171 c 0,25,26
 705 1167 705 1167 662 1150 c 0,27,28
 523 1088 523 1088 492 1050 c 0,29,30
 422 970 422 970 387 799 c 0,31,32
 379 760 379 760 379 759 c 1,33,34
 385 759 385 759 392 763 c 0,35,36
 449 792 449 792 513 806 c 0,37,38
 550 814 550 814 654 814 c 0,39,40
 716 814 716 814 742 806 c 0,41,42
 832 781 832 781 878.5 742 c 128,-1,43
 925 703 925 703 953 635 c 0,44,45
 1033 434 1033 434 914 260 c 0,46,47
 871 198 871 198 800.5 137 c 128,-1,48
 730 76 730 76 670 49 c 0,49,50
 608 18 608 18 564 8 c 0,51,52
 470 -16 470 -16 406 -2 c 0,0,1
486 164 m 0,53,54
 560 180 560 180 621 215 c 0,55,56
 650 233 650 233 693 269 c 128,-1,57
 736 305 736 305 756 334 c 0,58,59
 781 365 781 365 800 414 c 0,60,61
 825 488 825 488 789 582 c 0,62,63
 773 617 773 617 738 631 c 0,64,65
 650 662 650 662 519 631 c 0,66,67
 478 621 478 621 400 570 c 0,68,69
 369 550 369 550 334 527 c 0,70,71
 311 515 311 515 303 453 c 0,72,73
 282 299 282 299 373 207 c 0,74,75
 410 170 410 170 453 164 c 0,76,77
 474 162 474 162 486 164 c 0,53,54
EndSplineSet
Validated: 33
EndChar

StartChar: seven
Encoding: 55 55 26
Width: 1116
GlyphClass: 1
Flags: W
LayerCount: 2
Fore
SplineSet
385 0 m 0,0,1
 362 16 362 16 361 76 c 0,2,3
 361 99 361 99 389 168 c 0,4,5
 494 432 494 432 494 431 c 1,6,7
 539 521 539 521 539 535 c 0,8,9
 539 543 539 543 502 547 c 0,10,11
 494 547 494 547 451 550.5 c 128,-1,12
 408 554 408 554 367 559 c 128,-1,13
 326 564 326 564 303 570 c 0,14,15
 285 574 285 574 285 582 c 0,16,17
 285 592 285 592 310 613 c 0,18,19
 392 675 392 675 584 703 c 1,20,-1
 605 705 l 1,21,-1
 650 838 l 2,22,23
 712 1023 712 1023 715 1080 c 2,24,-1
 715 1107 l 1,25,-1
 666 1121 l 1,26,27
 504 1156 504 1156 269 1126 c 0,28,29
 132 1108 132 1108 103 1146 c 0,30,31
 56 1207 56 1207 182 1263 c 0,32,33
 293 1310 293 1310 367 1322 c 0,34,35
 414 1332 414 1332 513.5 1330 c 128,-1,36
 613 1328 613 1328 693 1314 c 0,37,38
 865 1285 865 1285 904 1201 c 0,39,40
 918 1172 918 1172 904 1136 c 0,41,42
 890 1102 890 1102 881 1044 c 0,43,44
 856 917 856 917 789 726 c 0,45,46
 787 716 787 716 790 715.5 c 128,-1,47
 793 715 793 715 818 711 c 0,48,49
 927 695 927 695 980 674 c 0,50,51
 1056 643 1056 643 1002 603 c 0,52,53
 961 576 961 576 881 556 c 0,54,55
 842 546 842 546 809.5 540.5 c 128,-1,56
 777 535 777 535 761.5 532 c 128,-1,57
 746 529 746 529 735 527 c 128,-1,58
 724 525 724 525 721 524 c 128,-1,59
 718 523 718 523 716.5 521 c 128,-1,60
 715 519 715 519 687 461 c 0,61,62
 625 313 625 313 574 232 c 0,63,64
 504 111 504 111 486 78 c 0,65,66
 451 12 451 12 428 2 c 0,67,68
 397 -10 397 -10 385 0 c 0,0,1
EndSplineSet
Validated: 33
EndChar

StartChar: eight
Encoding: 56 56 27
Width: 997
GlyphClass: 1
Flags: W
LayerCount: 2
Fore
SplineSet
379 27 m 0,0,1
 227 68 227 68 182 156 c 0,2,3
 137 242 137 242 150 396 c 0,4,5
 160 513 160 513 207 578.5 c 128,-1,6
 254 644 254 644 351 681 c 0,7,8
 374 691 374 691 375 691 c 1,9,10
 375 693 375 693 340 717 c 0,11,12
 262 766 262 766 201.5 825 c 128,-1,13
 141 884 141 884 121 935 c 0,14,15
 76 1040 76 1040 152 1167 c 128,-1,16
 228 1294 228 1294 410 1341 c 0,17,18
 472 1355 472 1355 527 1339 c 0,19,20
 689 1288 689 1288 757.5 1189.5 c 128,-1,21
 826 1091 826 1091 824 925 c 0,22,23
 824 851 824 851 797 793 c 0,24,25
 781 762 781 762 740 717 c 128,-1,26
 699 672 699 672 699 672 c 1,27,28
 709 664 709 664 715 660 c 0,29,30
 789 613 789 613 834 525 c 0,31,32
 914 377 914 377 886 238 c 0,33,34
 863 133 863 133 800 76 c 0,35,36
 757 35 757 35 662 16 c 0,37,38
 539 -12 539 -12 379 27 c 0,0,1
535 172 m 0,39,40
 623 186 623 186 660 234.5 c 128,-1,41
 697 283 697 283 703 373 c 0,42,43
 705 398 705 398 699 428 c 0,44,45
 683 492 683 492 651 526 c 128,-1,46
 619 560 619 560 558 592 c 2,47,-1
 537 603 l 1,48,-1
 510 594 l 2,49,50
 473 578 473 578 445 570 c 0,51,52
 363 543 363 543 335 510.5 c 128,-1,53
 307 478 307 478 303 416 c 0,54,55
 297 305 297 305 345.5 243.5 c 128,-1,56
 394 182 394 182 474 170 c 0,57,58
 498 166 498 166 535 172 c 0,39,40
558 773 m 0,59,60
 613 798 613 798 633 824 c 0,61,62
 641 840 641 840 646 863 c 0,63,64
 689 1025 689 1025 590.5 1115 c 128,-1,65
 492 1205 492 1205 389 1189 c 0,66,67
 319 1177 319 1177 297 1085 c 1,68,69
 283 968 283 968 387 865 c 0,70,71
 424 828 424 828 441 820 c 0,72,73
 484 799 484 799 513 773 c 0,74,75
 527 763 527 763 529 763 c 0,76,77
 538 763 538 763 558 773 c 0,59,60
EndSplineSet
Validated: 33
EndChar

StartChar: nine
Encoding: 57 57 28
Width: 1083
GlyphClass: 1
Flags: W
LayerCount: 2
Fore
SplineSet
677 1335 m 0,0,1
 759 1321 759 1321 838 1244 c 0,2,3
 941 1144 941 1144 964 922 c 0,4,5
 978 797 978 797 953 668 c 0,6,7
 926 529 926 529 886 420 c 0,8,9
 837 285 837 285 726 158 c 128,-1,10
 615 31 615 31 506 16 c 0,11,12
 477 10 477 10 471 8 c 0,13,14
 455 4 455 4 416 5 c 128,-1,15
 377 6 377 6 353 10 c 0,16,17
 328 14 328 14 316 21 c 0,18,19
 306 27 306 27 271 63.5 c 128,-1,20
 236 100 236 100 230 109 c 0,21,22
 216 127 216 127 242 152 c 0,23,24
 250 160 250 160 307 162 c 0,25,26
 379 166 379 166 422 184 c 0,27,28
 561 246 561 246 592 283 c 0,29,30
 668 369 668 369 701 535 c 0,31,32
 707 574 707 574 707 574 c 1,33,34
 701 574 701 574 693 570 c 0,35,36
 638 541 638 541 570 527 c 0,37,38
 533 519 533 519 430 519 c 0,39,40
 368 519 368 519 342 527 c 0,41,42
 254 552 254 552 207 590.5 c 128,-1,43
 160 629 160 629 133 699 c 0,44,45
 53 900 53 900 172 1074 c 0,46,47
 217 1136 217 1136 286 1198.5 c 128,-1,48
 355 1261 355 1261 416 1289 c 0,49,50
 465 1314 465 1314 519 1326 c 0,51,52
 613 1349 613 1349 677 1335 c 0,0,1
599 1169 m 0,53,54
 525 1153 525 1153 465 1119 c 0,55,56
 436 1101 436 1101 392.5 1065 c 128,-1,57
 349 1029 349 1029 330 1000 c 0,58,59
 305 969 305 969 285 920 c 0,60,61
 260 846 260 846 297 752 c 0,62,63
 313 717 313 717 348 703 c 0,64,65
 436 672 436 672 566 703 c 0,66,67
 607 713 607 713 685 763 c 0,68,69
 716 783 716 783 752 806 c 0,70,71
 777 818 777 818 785 881 c 0,72,73
 806 1033 806 1033 713 1126 c 0,74,75
 676 1163 676 1163 635 1169 c 0,76,77
 611 1171 611 1171 599 1169 c 0,53,54
EndSplineSet
Validated: 33
EndChar

StartChar: colon
Encoding: 58 58 29
Width: 480
GlyphClass: 1
Flags: W
LayerCount: 2
Fore
SplineSet
172 150 m 0,0,1
 139 160 139 160 129 191 c 0,2,3
 119 220 119 220 119 232 c 0,4,5
 119 324 119 324 197 379 c 0,6,7
 228 402 228 402 279 389 c 0,8,9
 300 383 300 383 322 361 c 0,10,11
 351 326 351 326 349 299 c 0,12,13
 345 246 345 246 300.5 199 c 128,-1,14
 256 152 256 152 207 148 c 0,15,16
 178 148 178 148 172 150 c 0,0,1
184 773 m 0,17,18
 151 783 151 783 141 814 c 0,19,20
 135 832 135 832 135 855 c 0,21,22
 135 947 135 947 211 1000 c 0,23,24
 242 1023 242 1023 293 1009 c 0,25,26
 318 1001 318 1001 334 986 c 0,27,28
 365 949 365 949 363 920 c 0,29,30
 359 867 359 867 314 820 c 128,-1,31
 269 773 269 773 221 769 c 0,32,33
 196 769 196 769 184 773 c 0,17,18
EndSplineSet
Validated: 33
EndChar

StartChar: semicolon
Encoding: 59 59 30
Width: 474
GlyphClass: 1
Flags: W
LayerCount: 2
Fore
SplineSet
180 767 m 0,0,1
 147 777 147 777 135 810 c 0,2,3
 129 828 129 828 129 849 c 0,4,5
 129 945 129 945 203 996 c 0,6,7
 234 1019 234 1019 285 1005 c 0,8,9
 312 997 312 997 330 980 c 0,10,11
 359 945 359 945 357 916 c 0,12,13
 353 863 353 863 308.5 816 c 128,-1,14
 264 769 264 769 215 765 c 0,15,16
 186 765 186 765 180 767 c 0,0,1
162 262 m 0,17,18
 152 274 152 274 141.5 296 c 128,-1,19
 131 318 131 318 123 350.5 c 128,-1,20
 115 383 115 383 138.5 411 c 128,-1,21
 162 439 162 439 219 453 c 0,22,23
 274 467 274 467 316 420 c 0,24,25
 361 369 361 369 336 273 c 0,26,27
 318 209 318 209 280 148.5 c 128,-1,28
 242 88 242 88 205 60.5 c 128,-1,29
 168 33 168 33 150 49 c 0,30,31
 134 65 134 65 159.5 151 c 128,-1,32
 185 237 185 237 162 262 c 0,17,18
EndSplineSet
Validated: 33
EndChar

StartChar: less
Encoding: 60 60 31
Width: 1212
GlyphClass: 1
Flags: W
LayerCount: 2
Fore
SplineSet
102 471 m 0,0,1
 110 448 110 448 146 441 c 0,2,3
 210 429 210 429 334.5 389 c 128,-1,4
 459 349 459 349 512 324 c 0,5,6
 539 310 539 310 586 295 c 0,7,8
 598 291 598 291 647.5 270.5 c 128,-1,9
 697 250 697 250 718 242 c 0,10,11
 872 180 872 180 906 172 c 0,12,13
 941 164 941 164 998.5 159 c 128,-1,14
 1056 154 1056 154 1072 156 c 0,15,16
 1082 158 1082 158 1088.5 165 c 128,-1,17
 1095 172 1095 172 1093 178 c 0,18,19
 1089 198 1089 198 1027 238 c 0,20,21
 801 392 801 392 566 474 c 2,22,-1
 498 498 l 1,23,-1
 545 525 l 1,24,25
 623 578 623 578 642 592 c 0,26,27
 695 633 695 633 765 676 c 0,28,29
 839 723 839 723 892 763 c 0,30,31
 933 798 933 798 959 812 c 0,32,33
 988 832 988 832 1015 859 c 0,34,35
 1025 869 1025 869 1074 908 c 0,36,37
 1097 926 1097 926 1099 941 c 0,38,39
 1103 964 1103 964 1091 984 c 0,40,41
 1079 1013 1079 1013 1041.5 1012 c 128,-1,42
 1004 1011 1004 1011 923 970 c 0,43,44
 913 964 913 964 869 939 c 0,45,46
 857 929 857 929 771 896 c 0,47,48
 664 853 664 853 595 814 c 0,49,50
 583 808 583 808 556 793 c 0,51,52
 550 789 550 789 523 773.5 c 128,-1,53
 496 758 496 758 490 754 c 0,54,55
 474 746 474 746 418 717 c 0,56,57
 393 705 393 705 357 681 c 0,58,59
 345 675 345 675 316 659.5 c 128,-1,60
 287 644 287 644 279 640 c 0,61,62
 234 617 234 617 191 584 c 0,63,64
 129 537 129 537 111.5 514.5 c 128,-1,65
 94 492 94 492 102 471 c 0,0,1
EndSplineSet
Validated: 41
EndChar

StartChar: equal
Encoding: 61 61 32
Width: 790
GlyphClass: 1
Flags: W
LayerCount: 2
Fore
SplineSet
127 677 m 0,0,1
 127 683 127 683 132 691 c 128,-1,2
 137 699 137 699 147.5 706 c 128,-1,3
 158 713 158 713 169 719.5 c 128,-1,4
 180 726 180 726 197.5 734 c 128,-1,5
 215 742 215 742 225.5 747 c 128,-1,6
 236 752 236 752 253.5 758.5 c 128,-1,7
 271 765 271 765 277 767 c 0,8,9
 359 802 359 802 494 810 c 0,10,11
 617 816 617 816 640 789 c 0,12,13
 663 760 663 760 664 738 c 0,14,15
 664 711 664 711 646 693 c 0,16,17
 623 670 623 670 556 654 c 0,18,19
 478 636 478 636 387 636 c 0,20,21
 148 630 148 630 127 677 c 0,0,1
260 359 m 0,22,23
 223 367 223 367 200.5 373 c 128,-1,24
 178 379 178 379 167 388.5 c 128,-1,25
 156 398 156 398 160 410 c 128,-1,26
 164 422 164 422 182 437 c 0,27,28
 231 480 231 480 320.5 504.5 c 128,-1,29
 410 529 410 529 496 535 c 0,30,31
 613 541 613 541 648 502 c 0,32,33
 662 486 662 486 664 466.5 c 128,-1,34
 666 447 666 447 650 424 c 1,35,36
 621 393 621 393 554 377 c 0,37,38
 478 359 478 359 328 357 c 0,39,40
 272 357 272 357 260 359 c 0,22,23
EndSplineSet
Validated: 33
EndChar

StartChar: greater
Encoding: 62 62 33
Width: 1202
GlyphClass: 1
Flags: W
LayerCount: 2
Fore
SplineSet
1103 703 m 0,0,1
 1097 723 1097 723 1062 728 c 0,2,3
 1000 740 1000 740 875 780 c 128,-1,4
 750 820 750 820 695 843 c 0,5,6
 644 868 644 868 621 877 c 0,7,8
 611 881 611 881 590.5 888.5 c 128,-1,9
 570 896 570 896 540 908 c 128,-1,10
 510 920 510 920 490 927 c 0,11,12
 357 980 357 980 303 994 c 0,13,14
 180 1019 180 1019 135 1011 c 0,15,16
 125 1009 125 1009 118 1002.5 c 128,-1,17
 111 996 111 996 113 990 c 0,18,19
 117 972 117 972 182 929 c 0,20,21
 412 775 412 775 642 695 c 1,22,-1
 709 674 l 1,23,-1
 664 646 l 2,24,25
 607 613 607 613 564 582 c 0,26,27
 472 518 472 518 439 498 c 0,28,29
 373 457 373 457 316 412 c 0,30,31
 255 367 255 367 250 363 c 0,32,33
 203 332 203 332 189 318 c 0,34,35
 162 291 162 291 133 267 c 0,36,37
 110 249 110 249 107 236 c 0,38,39
 103 213 103 213 115 193 c 0,40,41
 129 166 129 166 165 169 c 128,-1,42
 201 172 201 172 283 211 c 0,43,44
 328 232 328 232 340 238 c 0,45,46
 367 254 367 254 435 281 c 0,47,48
 556 330 556 330 611 361 c 0,49,50
 613 361 613 361 620 365 c 128,-1,51
 627 369 627 369 637.5 376 c 128,-1,52
 648 383 648 383 652 385 c 0,53,54
 662 391 662 391 687.5 403.5 c 128,-1,55
 713 416 713 416 718 420 c 0,56,57
 734 430 734 430 758.5 443.5 c 128,-1,58
 783 457 783 457 789 461 c 0,59,60
 828 481 828 481 849 492 c 0,61,62
 880 512 880 512 925 535 c 0,63,64
 966 556 966 556 1013 590 c 0,65,66
 1075 635 1075 635 1093 658.5 c 128,-1,67
 1111 682 1111 682 1103 703 c 0,0,1
EndSplineSet
Validated: 41
EndChar

StartChar: question
Encoding: 63 63 34
Width: 757
GlyphClass: 1
Flags: W
LayerCount: 2
Fore
SplineSet
291 2 m 0,0,1
 258 14 258 14 248 39 c 0,2,3
 244 49 244 49 244 76 c 0,4,5
 244 154 244 154 312 205 c 0,6,7
 343 226 343 226 387 217 c 0,8,9
 405 213 405 213 424 191 c 0,10,11
 451 160 451 160 449 135 c 0,12,13
 445 88 445 88 405 46 c 128,-1,14
 365 4 365 4 320 0 c 0,15,16
 297 0 297 0 291 2 c 0,0,1
334 353 m 0,17,18
 332 355 332 355 283 467 c 0,19,20
 265 500 265 500 258 529 c 0,21,22
 246 570 246 570 246 574 c 0,23,24
 236 635 236 635 244 672 c 0,25,26
 252 705 252 705 283 734 c 0,27,28
 326 775 326 775 377 804 c 0,29,30
 432 835 432 835 459 863 c 0,31,32
 477 881 477 881 492.5 943 c 128,-1,33
 508 1005 508 1005 508 1039 c 0,34,35
 508 1068 508 1068 495 1115 c 128,-1,36
 482 1162 482 1162 472 1181 c 0,37,38
 464 1197 464 1197 439 1222 c 0,39,40
 418 1243 418 1243 367 1258 c 128,-1,41
 316 1273 316 1273 267 1271 c 0,42,43
 216 1267 216 1267 185 1246 c 0,44,45
 162 1230 162 1230 133.5 1198.5 c 128,-1,46
 105 1167 105 1167 100 1152 c 0,47,48
 96 1142 96 1142 94 1156 c 0,49,50
 88 1215 88 1215 107 1275 c 0,51,52
 132 1353 132 1353 195 1386 c 0,53,54
 263 1423 263 1423 387.5 1411.5 c 128,-1,55
 512 1400 512 1400 560 1353 c 0,56,57
 603 1310 603 1310 631 1238 c 0,58,59
 639 1213 639 1213 642.5 1172.5 c 128,-1,60
 646 1132 646 1132 646 1078.5 c 128,-1,61
 646 1025 646 1025 646 1019 c 0,62,63
 646 990 646 990 640 961 c 0,64,65
 593 754 593 754 435 672 c 0,66,67
 408 658 408 658 392 625 c 0,68,69
 384 607 384 607 381 556 c 0,70,71
 363 328 363 328 334 353 c 0,17,18
EndSplineSet
Validated: 33
EndChar

StartChar: A
Encoding: 65 65 35
Width: 1169
GlyphClass: 1
Flags: W
LayerCount: 2
Fore
SplineSet
988 20 m 2,0,1
 986 24 986 24 975 38.5 c 128,-1,2
 964 53 964 53 951.5 71.5 c 128,-1,3
 939 90 939 90 931 109 c 0,4,5
 913 148 913 148 876.5 188 c 128,-1,6
 840 228 840 228 830 252 c 0,7,8
 826 262 826 262 809.5 295 c 128,-1,9
 793 328 793 328 791 334 c 0,10,11
 783 352 783 352 777 362.5 c 128,-1,12
 771 373 771 373 769 375 c 128,-1,13
 767 377 767 377 767 381 c 0,14,15
 751 424 751 424 748 420 c 1,16,17
 738 426 738 426 672 426 c 0,18,19
 654 426 654 426 606 428 c 128,-1,20
 558 430 558 430 515 428 c 128,-1,21
 472 426 472 426 420 428 c 0,22,23
 399 428 399 428 393 428 c 128,-1,24
 387 428 387 428 382 424 c 128,-1,25
 377 420 377 420 373 412 c 1,26,-1
 373 410 l 1,27,28
 367 400 367 400 363 389 c 0,29,30
 345 346 345 346 340 334 c 0,31,32
 330 316 330 316 322 295 c 0,33,34
 320 291 320 291 315 281 c 128,-1,35
 310 271 310 271 310 269 c 2,36,37
 310 269 310 269 304.5 256.5 c 128,-1,38
 299 244 299 244 291 228.5 c 128,-1,39
 283 213 283 213 273 195 c 0,40,41
 250 154 250 154 222.5 120 c 128,-1,42
 195 86 195 86 172.5 62.5 c 128,-1,43
 150 39 150 39 146 33 c 0,44,45
 144 29 144 29 140.5 23.5 c 128,-1,46
 137 18 137 18 134 14 c 128,-1,47
 131 10 131 10 127 10 c 128,-1,48
 123 10 123 10 117 43 c 0,49,50
 99 156 99 156 111 203 c 0,51,52
 117 228 117 228 154 307.5 c 128,-1,53
 191 387 191 387 225 482 c 0,54,55
 229 492 229 492 248 551.5 c 128,-1,56
 267 611 267 611 281 656 c 0,57,58
 299 715 299 715 338 826 c 0,59,60
 406 1017 406 1017 416 1062 c 0,61,62
 420 1082 420 1082 430 1111 c 2,63,-1
 439 1140 l 2,64,65
 445 1160 445 1160 466.5 1205.5 c 128,-1,66
 488 1251 488 1251 492 1265 c 0,67,68
 500 1290 500 1290 519.5 1321.5 c 128,-1,69
 539 1353 539 1353 547 1355 c 0,70,71
 561 1357 561 1357 599 1271 c 0,72,73
 619 1230 619 1230 656 1148 c 0,74,75
 742 961 742 961 744 957 c 0,76,77
 783 873 783 873 800 816 c 0,78,79
 816 763 816 763 832 715 c 0,80,81
 867 604 867 604 877 560 c 0,82,83
 889 498 889 498 916 423.5 c 128,-1,84
 943 349 943 349 947 336 c 0,85,86
 957 307 957 307 968 240 c 0,87,88
 970 232 970 232 977 189 c 128,-1,89
 984 146 984 146 988 125 c 0,90,91
 1006 27 1006 27 1000 10 c 1,92,-1
 988 20 l 2,0,1
715 590 m 1,93,94
 694 621 694 621 670 691 c 0,95,96
 660 720 660 720 642 767 c 0,97,98
 624 818 624 818 613 859 c 0,99,100
 605 886 605 886 593.5 916.5 c 128,-1,101
 582 947 582 947 574 963 c 2,102,-1
 564 978 l 1,103,-1
 562 976 l 1,104,105
 533 915 533 915 515 861 c 0,106,107
 511 847 511 847 498.5 810 c 128,-1,108
 486 773 486 773 484 763 c 0,109,110
 422 589 422 589 422 590 c 1,111,-1
 465 590 l 2,112,113
 469 590 469 590 531.5 588 c 128,-1,114
 594 586 594 586 627 588 c 2,115,-1
 699 590 l 1,116,-1
 715 590 l 1,93,94
EndSplineSet
Validated: 37
EndChar

StartChar: B
Encoding: 66 66 36
Width: 1050
GlyphClass: 1
Flags: W
LayerCount: 2
Fore
SplineSet
314 12 m 0,0,1
 296 16 296 16 260 20 c 0,2,3
 205 26 205 26 197 43 c 0,4,5
 191 53 191 53 187 111 c 0,6,7
 171 298 171 298 189 543 c 1,8,9
 189 543 189 543 190 566.5 c 128,-1,10
 191 590 191 590 191 592 c 0,11,12
 197 664 197 664 193 717 c 0,13,14
 189 764 189 764 195 830 c 0,15,16
 207 984 207 984 209 1058 c 0,17,18
 213 1195 213 1195 215 1203 c 1,19,-1
 207 1207 l 2,20,21
 199 1207 199 1207 187 1201 c 0,22,23
 171 1193 171 1193 166 1193 c 0,24,25
 152 1193 152 1193 133 1181 c 0,26,27
 94 1160 94 1160 82 1171 c 0,28,29
 78 1175 78 1175 79 1182 c 128,-1,30
 80 1189 80 1189 84 1189 c 0,31,32
 86 1189 86 1189 117 1222 c 0,33,34
 154 1261 154 1261 189 1283 c 0,35,36
 234 1310 234 1310 240 1314 c 0,37,38
 263 1332 263 1332 346 1347 c 0,39,40
 377 1353 377 1353 420 1353 c 0,41,42
 590 1347 590 1347 660 1322 c 0,43,44
 814 1263 814 1263 863 1089 c 0,45,46
 883 1021 883 1021 867 949 c 0,47,48
 853 883 853 883 825 846.5 c 128,-1,49
 797 810 797 810 736 785 c 0,50,51
 728 781 728 781 717.5 777 c 128,-1,52
 707 773 707 773 692 768 c 128,-1,53
 677 763 677 763 674 761 c 0,54,55
 651 751 651 751 650 752 c 1,56,57
 650 750 650 750 681 738 c 0,58,59
 751 713 751 713 799 670 c 128,-1,60
 847 627 847 627 886 543 c 0,61,62
 913 479 913 479 918 461 c 0,63,64
 939 387 939 387 931 316 c 0,65,66
 927 289 927 289 906.5 244 c 128,-1,67
 886 199 886 199 865 178 c 0,68,69
 801 110 801 110 670 57 c 0,70,71
 588 24 588 24 437 12 c 0,72,73
 339 4 339 4 314 12 c 0,0,1
506 150 m 0,74,75
 508 152 508 152 534 154 c 128,-1,76
 560 156 560 156 562 158 c 0,77,78
 665 174 665 174 684 180.5 c 128,-1,79
 703 187 703 187 730 221 c 0,80,81
 775 278 775 278 777 344 c 0,82,83
 779 414 779 414 756 463 c 0,84,85
 756 465 756 465 750 475.5 c 128,-1,86
 744 486 744 486 742 488 c 0,87,88
 713 547 713 547 681 572 c 0,89,90
 620 621 620 621 586 635 c 0,91,92
 584 635 584 635 561.5 643.5 c 128,-1,93
 539 652 539 652 527 656 c 0,94,95
 504 662 504 662 467 662 c 0,96,97
 371 662 371 662 365 656 c 128,-1,98
 359 650 359 650 365 609 c 0,99,100
 371 552 371 552 371 418.5 c 128,-1,101
 371 285 371 285 367 264 c 0,102,103
 367 262 367 262 367 240.5 c 128,-1,104
 367 219 367 219 363 199 c 0,105,106
 361 179 361 179 360 161 c 128,-1,107
 359 143 359 143 361 143 c 0,108,109
 363 141 363 141 390.5 138 c 128,-1,110
 418 135 418 135 430 137 c 0,111,112
 434 137 434 137 442.5 139 c 128,-1,113
 451 141 451 141 469.5 144.5 c 128,-1,114
 488 148 488 148 506 150 c 0,74,75
389 779 m 0,115,116
 414 783 414 783 472 804 c 0,117,118
 484 808 484 808 519 824.5 c 128,-1,119
 554 841 554 841 580 849 c 0,120,121
 682 884 682 884 705 908 c 0,122,123
 738 941 738 941 734 1023 c 0,124,125
 728 1101 728 1101 670 1164 c 0,126,127
 635 1199 635 1199 582 1216 c 0,128,129
 525 1232 525 1232 502 1230 c 0,130,131
 486 1228 486 1228 419.5 1212.5 c 128,-1,132
 353 1197 353 1197 351 1195 c 2,133,-1
 351 1181 l 1,134,135
 355 1163 355 1163 355 963 c 0,136,137
 355 774 355 774 359 773 c 0,138,139
 366 775 366 775 389 779 c 0,115,116
EndSplineSet
Validated: 33
EndChar

StartChar: C
Encoding: 67 67 37
Width: 1116
GlyphClass: 1
Flags: W
LayerCount: 2
Fore
SplineSet
730 14 m 1,0,1
 658 18 658 18 576 39 c 0,2,3
 463 68 463 68 385 131 c 0,4,5
 303 195 303 195 254 277 c 0,6,7
 250 281 250 281 241 297.5 c 128,-1,8
 232 314 232 314 230 316 c 0,9,10
 209 351 209 351 175 424.5 c 128,-1,11
 141 498 141 498 129 543 c 0,12,13
 111 605 111 605 111 699 c 0,14,15
 111 777 111 777 119 816 c 0,16,17
 135 878 135 878 189 984 c 0,18,19
 216 1039 216 1039 299 1126 c 0,20,21
 381 1216 381 1216 494 1285 c 0,22,23
 556 1322 556 1322 595.5 1333.5 c 128,-1,24
 635 1345 635 1345 717 1351 c 0,25,26
 797 1355 797 1355 828 1345 c 0,27,28
 879 1329 879 1329 925.5 1303 c 128,-1,29
 972 1277 972 1277 988 1257 c 0,30,31
 998 1245 998 1245 982 1246 c 0,32,33
 972 1246 972 1246 949 1249 c 0,34,35
 924 1253 924 1253 849 1259 c 0,36,37
 812 1261 812 1261 793 1255 c 0,38,39
 654 1218 654 1218 568 1150 c 0,40,41
 517 1109 517 1109 455.5 1037.5 c 128,-1,42
 394 966 394 966 361 906 c 0,43,44
 316 824 316 824 314 705 c 0,45,46
 312 639 312 639 324 580 c 0,47,48
 345 488 345 488 414 373 c 0,49,50
 455 305 455 305 485 274.5 c 128,-1,51
 515 244 515 244 594 195 c 0,52,53
 678 144 678 144 726 133 c 0,54,55
 732 131 732 131 745 127 c 128,-1,56
 758 123 758 123 759 123 c 0,57,58
 769 119 769 119 816 111 c 0,59,60
 824 109 824 109 847 105 c 2,61,-1
 871 100 l 2,62,63
 916 90 916 90 959 90 c 0,64,65
 1012 86 1012 86 1023 74 c 0,66,67
 1044 53 1044 53 1000 37 c 0,68,69
 945 16 945 16 802 14 c 2,70,-1
 730 14 l 1,0,1
EndSplineSet
Validated: 33
EndChar

StartChar: D
Encoding: 68 68 38
Width: 1140
GlyphClass: 1
Flags: W
LayerCount: 2
Fore
SplineSet
238 16 m 0,0,1
 187 28 187 28 172 57 c 0,2,3
 160 80 160 80 166 115 c 0,4,5
 170 136 170 136 174 242 c 0,6,7
 176 332 176 332 175 527 c 128,-1,8
 174 722 174 722 170 795 c 0,9,10
 166 877 166 877 167 1039 c 128,-1,11
 168 1201 168 1201 174 1224 c 0,12,13
 176 1232 176 1232 168 1236 c 0,14,15
 158 1240 158 1240 148 1238 c 0,16,17
 136 1234 136 1234 100 1230 c 0,18,19
 88 1230 88 1230 88 1234 c 0,20,21
 86 1244 86 1244 94 1251 c 0,22,23
 98 1255 98 1255 103 1267 c 0,24,25
 111 1283 111 1283 136.5 1307 c 128,-1,26
 162 1331 162 1331 178 1339 c 0,27,28
 213 1357 213 1357 342 1357 c 0,29,30
 404 1357 404 1357 478 1331 c 0,31,32
 492 1325 492 1325 529 1314.5 c 128,-1,33
 566 1304 566 1304 576 1300 c 0,34,35
 681 1269 681 1269 763 1199 c 0,36,37
 837 1140 837 1140 881 1085 c 0,38,39
 928 1021 928 1021 961 941 c 0,40,41
 990 869 990 869 1002 800 c 0,42,43
 1016 730 1016 730 1007 562 c 0,44,45
 1005 482 1005 482 992 431 c 0,46,47
 978 376 978 376 955 349 c 0,48,49
 928 314 928 314 920 297 c 0,50,51
 873 205 873 205 707 113 c 0,52,53
 594 54 594 54 531 45 c 0,54,55
 521 43 521 43 455 29 c 0,56,57
 394 13 394 13 322 12 c 0,58,59
 279 10 279 10 238 16 c 0,0,1
363 143 m 0,60,61
 416 153 416 153 455 170 c 0,62,63
 613 232 613 232 732 314 c 0,64,65
 755 330 755 330 763 348 c 0,66,67
 810 455 810 455 851 597 c 0,68,69
 865 646 865 646 864 665.5 c 128,-1,70
 863 685 863 685 847 744 c 0,71,72
 810 881 810 881 787.5 930.5 c 128,-1,73
 765 980 765 980 722 1039 c 0,74,75
 685 1092 685 1092 650 1113 c 0,76,77
 586 1150 586 1150 490 1177 c 0,78,79
 412 1198 412 1198 342 1199 c 0,80,81
 321 1197 321 1197 320 1193 c 0,82,83
 320 1181 320 1181 322 1171 c 0,84,85
 334 1087 334 1087 348 1009 c 0,86,87
 371 882 371 882 371 431 c 0,88,89
 371 423 371 423 367 389 c 0,90,91
 363 358 363 358 359 330.5 c 128,-1,92
 355 303 355 303 353 284.5 c 128,-1,93
 351 266 351 266 351 264 c 0,94,95
 345 196 345 196 336 150 c 0,96,97
 334 138 334 138 334 139 c 0,98,99
 349 141 349 141 363 143 c 0,60,61
EndSplineSet
Validated: 37
EndChar

StartChar: E
Encoding: 69 69 39
Width: 995
GlyphClass: 1
Flags: W
LayerCount: 2
Fore
SplineSet
455 2 m 0,0,1
 447 2 447 2 424.5 3 c 128,-1,2
 402 4 402 4 362 5 c 128,-1,3
 322 6 322 6 293 6 c 0,4,5
 199 8 199 8 195 14 c 0,6,7
 175 41 175 41 176 287 c 0,8,9
 176 363 176 363 172 418 c 0,10,11
 170 430 170 430 169 481.5 c 128,-1,12
 168 533 168 533 168 553 c 0,13,14
 166 668 166 668 158 717 c 0,15,16
 152 752 152 752 148 840 c 0,17,18
 138 1045 138 1045 109 1187 c 2,19,-1
 103 1216 l 1,20,-1
 111 1238 l 2,21,22
 129 1299 129 1299 191 1310 c 0,23,24
 195 1310 195 1310 213.5 1314 c 128,-1,25
 232 1318 232 1318 242 1320 c 0,26,27
 322 1338 322 1338 418 1337 c 0,28,29
 504 1337 504 1337 631 1312 c 0,30,31
 756 1287 756 1287 763 1287 c 0,32,33
 808 1281 808 1281 840 1261 c 0,34,35
 873 1240 873 1240 877 1228 c 0,36,37
 883 1212 883 1212 875 1208 c 0,38,39
 854 1190 854 1190 660 1177 c 0,40,41
 611 1175 611 1175 527 1166 c 0,42,43
 445 1158 445 1158 408 1150 c 0,44,45
 277 1125 277 1125 275 1123 c 0,46,47
 275 1113 275 1113 277 1109 c 0,48,49
 285 1086 285 1086 295 1027 c 0,50,51
 301 980 301 980 312 935 c 0,52,53
 326 876 326 876 332 779 c 0,54,55
 334 732 334 732 342.5 727 c 128,-1,56
 351 722 351 722 406 728 c 0,57,58
 513 734 513 734 607 699 c 0,59,60
 666 678 666 678 681.5 659 c 128,-1,61
 697 640 697 640 672 615 c 0,62,63
 658 603 658 603 629 595 c 0,64,65
 584 583 584 583 525 582 c 0,66,67
 457 578 457 578 412 572 c 0,68,69
 369 568 369 568 355 568 c 2,70,-1
 344 568 l 1,71,-1
 342 418 l 2,72,73
 342 268 342 268 334 219 c 0,74,75
 326 164 326 164 328 162 c 0,76,77
 332 158 332 158 531 154 c 0,78,79
 677 150 677 150 701 146 c 0,80,81
 746 138 746 138 836 107 c 0,82,83
 897 86 897 86 906 62 c 0,84,85
 914 37 914 37 892 29 c 1,86,87
 865 13 865 13 746 4 c 0,88,89
 701 0 701 0 596.5 0 c 128,-1,90
 492 0 492 0 455 2 c 0,0,1
EndSplineSet
Validated: 33
EndChar

StartChar: F
Encoding: 70 70 40
Width: 972
GlyphClass: 1
Flags: W
LayerCount: 2
Fore
SplineSet
226 16 m 0,0,1
 212 45 212 45 201 131 c 0,2,3
 199 141 199 141 194 180 c 128,-1,4
 189 219 189 219 187 230 c 0,5,6
 177 300 177 300 176 377 c 0,7,8
 176 391 176 391 174 414 c 128,-1,9
 172 437 172 437 171 454 c 128,-1,10
 170 471 170 471 170 476 c 0,11,12
 168 484 168 484 167 522 c 128,-1,13
 166 560 166 560 166 576 c 0,14,15
 162 674 162 674 156 724 c 0,16,17
 150 761 150 761 146 849 c 0,18,19
 136 1058 136 1058 107 1201 c 1,20,-1
 102 1230 l 1,21,-1
 109 1251 l 2,22,23
 129 1313 129 1313 189 1326 c 0,24,25
 193 1326 193 1326 211.5 1329.5 c 128,-1,26
 230 1333 230 1333 240 1335 c 0,27,28
 314 1351 314 1351 420 1351 c 0,29,30
 518 1351 518 1351 635 1328 c 0,31,32
 756 1305 756 1305 769 1302 c 0,33,34
 812 1296 812 1296 847 1275 c 0,35,36
 878 1257 878 1257 882 1242 c 0,37,38
 888 1224 888 1224 882 1222 c 0,39,40
 861 1204 861 1204 666 1191 c 0,41,42
 609 1187 609 1187 529 1179 c 0,43,44
 447 1171 447 1171 410 1164 c 0,45,46
 277 1139 277 1139 275 1136 c 0,47,48
 275 1124 275 1124 277 1121 c 0,49,50
 285 1098 285 1098 295 1039 c 0,51,52
 301 992 301 992 312 947 c 0,53,54
 328 877 328 877 334 789 c 0,55,56
 336 740 336 740 342.5 736 c 128,-1,57
 349 732 349 732 408 736 c 0,58,59
 510 744 510 744 613 707 c 0,60,61
 672 686 672 686 686.5 666 c 128,-1,62
 701 646 701 646 676 621 c 0,63,64
 668 613 668 613 633 603 c 0,65,66
 580 589 580 589 527 588 c 0,67,68
 433 582 433 582 414 580 c 0,69,70
 371 576 371 576 355 576 c 2,71,-1
 344 576 l 1,72,-1
 344 426 l 2,73,74
 344 285 344 285 334 215 c 0,75,76
 326 160 326 160 326 144 c 0,77,78
 324 109 324 109 301 72 c 2,79,-1
 291 53 l 2,80,81
 277 28 277 28 250 18 c 0,82,83
 230 10 230 10 226 16 c 0,0,1
EndSplineSet
Validated: 33
EndChar

StartChar: G
Encoding: 71 71 41
Width: 1349
GlyphClass: 1
Flags: W
LayerCount: 2
Fore
SplineSet
724 14 m 0,0,1
 646 16 646 16 613 25 c 0,2,3
 531 43 531 43 457 88 c 0,4,5
 346 152 346 152 260 281 c 0,6,7
 256 285 256 285 246 300.5 c 128,-1,8
 236 316 236 316 236 318 c 0,9,10
 215 353 215 353 181.5 423.5 c 128,-1,11
 148 494 148 494 137 533 c 0,12,13
 121 588 121 588 114 675.5 c 128,-1,14
 107 763 107 763 117 808 c 0,15,16
 129 865 129 865 184 959 c 0,17,18
 225 1031 225 1031 336 1136 c 0,19,20
 371 1169 371 1169 424 1201 c 0,21,22
 438 1209 438 1209 471 1231 c 128,-1,23
 504 1253 504 1253 510 1257 c 0,24,25
 674 1368 674 1368 830 1353 c 0,26,27
 832 1353 832 1353 858 1350 c 128,-1,28
 884 1347 884 1347 898 1345 c 0,29,30
 921 1339 921 1339 931 1339 c 0,31,32
 952 1337 952 1337 974 1328.5 c 128,-1,33
 996 1320 996 1320 996 1316 c 0,34,35
 996 1314 996 1314 994 1312 c 0,36,37
 990 1308 990 1308 990 1306 c 0,38,39
 976 1285 976 1285 918 1265 c 0,40,41
 846 1242 846 1242 761 1203 c 0,42,43
 700 1174 700 1174 621 1144 c 0,44,45
 592 1134 592 1134 564 1111 c 0,46,47
 421 986 421 986 377 912 c 0,48,49
 344 859 344 859 334 818 c 0,50,51
 313 732 313 732 332 594 c 0,52,53
 338 545 338 545 377 471 c 0,54,55
 402 420 402 420 430 373 c 2,56,-1
 457 330 l 1,57,-1
 510 289 l 2,58,59
 539 268 539 268 592 232 c 0,60,61
 658 189 658 189 689 189 c 0,62,63
 705 189 705 189 781 215 c 0,64,65
 929 270 929 270 988 328 c 0,66,67
 1049 389 1049 389 1048 400 c 0,68,69
 1048 404 1048 404 1041 408 c 0,70,71
 1016 426 1016 426 1009 430 c 0,72,73
 964 463 964 463 904 492 c 0,74,75
 869 510 869 510 820 510 c 0,76,77
 787 510 787 510 769 502 c 0,78,79
 746 492 746 492 715 476 c 0,80,81
 672 455 672 455 662 451 c 0,82,83
 646 445 646 445 636 449 c 0,84,85
 613 457 613 457 621 484 c 0,86,87
 639 543 639 543 677 592.5 c 128,-1,88
 715 642 715 642 754 660 c 0,89,90
 766 666 766 666 777 674 c 0,91,92
 789 680 789 680 800 683 c 0,93,94
 859 701 859 701 988 701 c 0,95,96
 1056 701 1056 701 1119 676 c 0,97,98
 1144 664 1144 664 1156 660 c 0,99,100
 1201 646 1201 646 1228 597 c 0,101,102
 1232 591 1232 591 1232 568 c 0,103,104
 1232 506 1232 506 1224 476 c 0,105,106
 1208 408 1208 408 1177 342 c 0,107,108
 1175 338 1175 338 1169.5 322.5 c 128,-1,109
 1164 307 1164 307 1162 303 c 0,110,111
 1117 200 1117 200 1056 141 c 0,112,113
 945 38 945 38 814 16 c 0,114,115
 788 12 788 12 724 14 c 0,0,1
EndSplineSet
Validated: 33
EndChar

StartChar: H
Encoding: 72 72 42
Width: 1134
GlyphClass: 1
Flags: W
LayerCount: 2
Fore
SplineSet
207 21 m 0,0,1
 180 41 180 41 170 117 c 0,2,3
 170 125 170 125 168 136.5 c 128,-1,4
 166 148 166 148 164 156 c 2,5,-1
 162 164 l 2,6,7
 158 172 158 172 158 236 c 0,8,9
 158 263 158 263 153 334.5 c 128,-1,10
 148 406 148 406 148 447 c 0,11,12
 148 472 148 472 146 526 c 128,-1,13
 144 580 144 580 144 619 c 0,14,15
 144 695 144 695 141 800 c 0,16,17
 135 980 135 980 141 1103 c 1,18,-1
 141 1160 l 2,19,20
 141 1226 141 1226 150 1308 c 0,21,22
 154 1347 154 1347 156 1347 c 128,-1,23
 158 1347 158 1347 174 1308 c 0,24,25
 274 1060 274 1060 285 931 c 0,26,27
 287 892 287 892 297 855 c 0,28,29
 307 810 307 810 310 754 c 2,30,-1
 312 732 l 1,31,-1
 398 730 l 2,32,33
 423 730 423 730 480 730 c 128,-1,34
 537 730 537 730 556 728 c 0,35,36
 593 726 593 726 640 726 c 128,-1,37
 687 726 687 726 713 726 c 0,38,39
 764 724 764 724 787 728 c 2,40,-1
 804 730 l 1,41,-1
 806 771 l 2,42,43
 806 785 806 785 811 822 c 128,-1,44
 816 859 816 859 818 877 c 0,45,46
 824 951 824 951 828 982 c 0,47,48
 838 1080 838 1080 841 1101 c 0,49,50
 845 1130 845 1130 850 1160.5 c 128,-1,51
 855 1191 855 1191 858 1215.5 c 128,-1,52
 861 1240 861 1240 863 1277 c 0,53,54
 867 1353 867 1353 877 1353 c 0,55,56
 879 1353 879 1353 886 1341 c 0,57,58
 892 1331 892 1331 892 1331 c 1,59,60
 902 1327 902 1327 925 1236 c 0,61,62
 941 1175 941 1175 945 1154 c 0,63,64
 953 1101 953 1101 957 1089 c 0,65,66
 969 1021 969 1021 974 931 c 0,67,68
 976 890 976 890 982 818 c 0,69,70
 990 736 990 736 988 558 c 0,71,72
 982 246 982 246 993.5 199 c 128,-1,73
 1005 152 1005 152 992 102 c 0,74,75
 988 86 988 86 977 62.5 c 128,-1,76
 966 39 966 39 963 39 c 0,77,78
 961 39 961 39 953 31 c 0,79,80
 947 25 947 25 927 25 c 0,81,82
 880 25 880 25 867 53 c 0,83,84
 859 69 859 69 847 84 c 0,85,86
 837 98 837 98 826 135 c 0,87,88
 814 168 814 168 812 199 c 0,89,90
 798 336 798 336 799 515 c 2,91,-1
 799 586 l 1,92,-1
 761 588 l 2,93,94
 753 588 753 588 734 589 c 128,-1,95
 715 590 715 590 687.5 591 c 128,-1,96
 660 592 660 592 640 592 c 0,97,98
 552 594 552 594 492 588 c 0,99,100
 449 584 449 584 379 578 c 2,101,-1
 336 576 l 1,102,-1
 334 467 l 2,103,104
 332 328 332 328 314 246 c 0,105,106
 298 168 298 168 295 141 c 0,107,108
 277 41 277 41 254 21 c 0,109,110
 232 3 232 3 207 21 c 0,0,1
EndSplineSet
Validated: 33
EndChar

StartChar: I
Encoding: 73 73 43
Width: 472
GlyphClass: 1
Flags: W
LayerCount: 2
Fore
SplineSet
219 78 m 0,0,1
 184 86 184 86 170 109 c 0,2,3
 156 134 156 134 148 207 c 0,4,5
 138 293 138 293 135.5 486 c 128,-1,6
 133 679 133 679 141 830 c 0,7,8
 147 965 147 965 148 1017 c 0,9,10
 150 1136 150 1136 156 1191 c 0,11,12
 160 1224 160 1224 181.5 1292.5 c 128,-1,13
 203 1361 203 1361 213 1371 c 0,14,15
 219 1377 219 1377 225 1394 c 0,16,17
 229 1406 229 1406 231.5 1410.5 c 128,-1,18
 234 1415 234 1415 238 1413.5 c 128,-1,19
 242 1412 242 1412 245 1405 c 128,-1,20
 248 1398 248 1398 254 1382 c 0,21,22
 274 1333 274 1333 279 1271 c 0,23,24
 279 1261 279 1261 282 1245.5 c 128,-1,25
 285 1230 285 1230 290 1204.5 c 128,-1,26
 295 1179 295 1179 297 1162 c 0,27,28
 309 1094 309 1094 316 765 c 0,29,30
 322 513 322 513 324 498 c 0,31,32
 332 422 332 422 336 226 c 0,33,34
 338 138 338 138 332 119 c 0,35,36
 324 96 324 96 295 82 c 0,37,38
 260 66 260 66 219 78 c 0,0,1
EndSplineSet
Validated: 33
EndChar

StartChar: J
Encoding: 74 74 44
Width: 767
GlyphClass: 1
Flags: W
LayerCount: 2
Fore
SplineSet
230 10 m 0,0,1
 207 16 207 16 172 33 c 0,2,3
 119 58 119 58 101.5 95.5 c 128,-1,4
 84 133 84 133 107 154 c 0,5,6
 138 185 138 185 213 166 c 0,7,8
 233 160 233 160 264 166 c 0,9,10
 342 180 342 180 375 193 c 0,11,12
 395 203 395 203 428 260 c 0,13,14
 436 274 436 274 438.5 285.5 c 128,-1,15
 441 297 441 297 444 315.5 c 128,-1,16
 447 334 447 334 449 346 c 0,17,18
 463 410 463 410 463 597 c 0,19,20
 463 810 463 810 455 894 c 0,21,22
 445 999 445 999 443 1084 c 0,23,24
 443 1094 443 1094 441 1116 c 128,-1,25
 439 1138 439 1138 438 1153.5 c 128,-1,26
 437 1169 437 1169 437 1177 c 0,27,28
 435 1197 435 1197 449 1248 c 0,29,30
 469 1334 469 1334 494 1339 c 0,31,32
 498 1339 498 1339 515 1302 c 0,33,34
 546 1230 546 1230 559 1177.5 c 128,-1,35
 572 1125 572 1125 584 1009 c 0,36,37
 594 933 594 933 594 931 c 0,38,39
 598 921 598 921 611 802 c 0,40,41
 617 751 617 751 621 740 c 0,42,43
 633 678 633 678 638 580 c 0,44,45
 642 500 642 500 629 355 c 0,46,47
 604 109 604 109 441 35 c 0,48,49
 380 8 380 8 295 6 c 0,50,51
 246 6 246 6 230 10 c 0,0,1
EndSplineSet
Validated: 33
EndChar

StartChar: K
Encoding: 75 75 45
Width: 915
GlyphClass: 1
Flags: W
LayerCount: 2
Fore
SplineSet
211 2 m 0,0,1
 180 12 180 12 170 35 c 0,2,3
 166 45 166 45 166 84 c 0,4,5
 166 96 166 96 167 108.5 c 128,-1,6
 168 121 168 121 168 129 c 2,7,-1
 168 137 l 2,8,9
 170 139 170 139 176 443 c 0,10,11
 178 550 178 550 174 607 c 0,12,13
 172 650 172 650 164 758 c 0,14,15
 164 807 164 807 160 830 c 0,16,17
 160 834 160 834 159 844.5 c 128,-1,18
 158 855 158 855 156 870.5 c 128,-1,19
 154 886 154 886 154 894 c 0,20,21
 150 953 150 953 139 1013 c 0,22,23
 131 1050 131 1050 125 1111 c 0,24,25
 123 1123 123 1123 118 1148 c 128,-1,26
 113 1173 113 1173 113 1179 c 0,27,28
 92 1316 92 1316 109 1337 c 0,29,30
 115 1345 115 1345 135.5 1332.5 c 128,-1,31
 156 1320 156 1320 179.5 1292.5 c 128,-1,32
 203 1265 203 1265 215 1236 c 0,33,34
 227 1209 227 1209 249 1138.5 c 128,-1,35
 271 1068 271 1068 277 1037 c 0,36,37
 277 1035 277 1035 280 1024 c 128,-1,38
 283 1013 283 1013 286 999.5 c 128,-1,39
 289 986 289 986 289 980 c 0,40,41
 303 912 303 912 303 894 c 0,42,43
 305 888 305 888 305 888 c 1,44,45
 307 900 307 900 328 908 c 0,46,47
 396 935 396 935 414 945 c 0,48,49
 453 965 453 965 518.5 1011.5 c 128,-1,50
 584 1058 584 1058 623 1084 c 0,51,52
 666 1113 666 1113 689.5 1131.5 c 128,-1,53
 713 1150 713 1150 731.5 1168.5 c 128,-1,54
 750 1187 750 1187 761 1197 c 0,55,56
 794 1226 794 1226 808 1230 c 0,57,58
 828 1234 828 1234 828 1216 c 0,59,60
 828 1204 828 1204 793 1158 c 0,61,62
 684 1021 684 1021 676 1011 c 0,63,64
 655 990 655 990 625 953 c 0,65,66
 592 908 592 908 560 882 c 0,67,68
 548 872 548 872 500.5 820.5 c 128,-1,69
 453 769 453 769 424 752 c 2,70,-1
 389 730 l 1,71,-1
 412 707 l 2,72,73
 457 662 457 662 513 572 c 0,74,75
 536 535 536 535 562 502 c 0,76,77
 611 445 611 445 679 330 c 0,78,79
 738 234 738 234 763 121 c 0,80,81
 779 57 779 57 765 37 c 0,82,83
 749 10 749 10 713 10 c 0,84,85
 684 10 684 10 652.5 44 c 128,-1,86
 621 78 621 78 576 166 c 0,87,88
 527 268 527 268 474 351 c 1,89,90
 406 468 406 468 404 472 c 0,91,92
 392 495 392 495 372.5 525.5 c 128,-1,93
 353 556 353 556 337.5 576.5 c 128,-1,94
 322 597 322 597 320 595.5 c 128,-1,95
 318 594 318 594 322 562 c 0,96,97
 324 539 324 539 328 430 c 0,98,99
 330 352 330 352 314 172 c 0,100,101
 300 37 300 37 291 25 c 0,102,103
 275 9 275 9 252 1.5 c 128,-1,104
 229 -6 229 -6 211 2 c 0,0,1
EndSplineSet
Validated: 33
EndChar

StartChar: L
Encoding: 76 76 46
Width: 985
GlyphClass: 1
Flags: W
LayerCount: 2
Fore
SplineSet
804 -10 m 0,0,1
 743 -2 743 -2 422 0 c 0,2,3
 172 0 172 0 164 6 c 0,4,5
 156 14 156 14 152 21 c 0,6,7
 146 29 146 29 143 109 c 0,8,9
 141 160 141 160 141 207 c 0,10,11
 143 414 143 414 146 463 c 0,12,13
 150 522 150 522 150 617 c 0,14,15
 148 691 148 691 149 850 c 128,-1,16
 150 1009 150 1009 152 1039 c 0,17,18
 152 1041 152 1041 153 1066 c 128,-1,19
 154 1091 154 1091 154 1107 c 0,20,21
 158 1236 158 1236 172 1289 c 0,22,23
 186 1336 186 1336 191.5 1335.5 c 128,-1,24
 197 1335 197 1335 209 1292 c 0,25,26
 209 1288 209 1288 212 1279.5 c 128,-1,27
 215 1271 215 1271 218 1263 c 128,-1,28
 221 1255 221 1255 221 1253 c 0,29,30
 248 1161 248 1161 264 945 c 0,31,32
 266 927 266 927 283 750 c 0,33,34
 283 746 283 746 289 704 c 128,-1,35
 295 662 295 662 297 636 c 0,36,37
 301 560 301 560 305 547 c 0,38,39
 315 492 315 492 318 392 c 0,40,41
 322 328 322 328 328 301 c 0,42,43
 342 229 342 229 342 189 c 2,44,-1
 342 172 l 1,45,-1
 351 172 l 1,46,47
 351 172 351 172 370 174 c 128,-1,48
 389 176 389 176 398 176 c 0,49,50
 478 178 478 178 549 168 c 0,51,52
 594 162 594 162 646 158 c 0,53,54
 730 152 730 152 783 135 c 0,55,56
 883 102 883 102 894 62 c 0,57,58
 898 44 898 44 887.5 24 c 128,-1,59
 877 4 877 4 855 -6 c 0,60,61
 837 -14 837 -14 804 -10 c 0,0,1
EndSplineSet
Validated: 33
EndChar

StartChar: M
Encoding: 77 77 47
Width: 1347
GlyphClass: 1
Flags: W
LayerCount: 2
Fore
SplineSet
1095 4 m 0,0,1
 1079 10 1079 10 1070 35 c 0,2,3
 1066 45 1066 45 1052 164 c 0,4,5
 1040 277 1040 277 1037 418 c 0,6,7
 1035 488 1035 488 1021 584 c 0,8,9
 1019 594 1019 594 1015 625 c 128,-1,10
 1011 656 1011 656 1009 668 c 0,11,12
 999 744 999 744 990 795 c 0,13,14
 976 854 976 854 976 863 c 0,15,16
 974 877 974 877 962.5 917 c 128,-1,17
 951 957 951 957 947 964 c 0,18,19
 943 970 943 970 937 955 c 0,20,21
 931 941 931 941 918 902 c 0,22,23
 897 840 897 840 841 693 c 0,24,25
 802 590 802 590 763 476 c 0,26,27
 716 335 716 335 709 326 c 0,28,29
 668 265 668 265 631 275 c 0,30,31
 592 283 592 283 572 308 c 0,32,33
 539 347 539 347 494 457 c 0,34,35
 428 615 428 615 396 742 c 0,36,37
 392 762 392 762 383.5 790 c 128,-1,38
 375 818 375 818 367 837.5 c 128,-1,39
 359 857 359 857 357 857 c 0,40,41
 355 853 355 853 355 849 c 128,-1,42
 355 845 355 845 346 802 c 0,43,44
 340 784 340 784 340 767 c 0,45,46
 332 730 332 730 320 605 c 0,47,48
 312 507 312 507 301 439 c 0,49,50
 272 242 272 242 285 125 c 0,51,52
 293 63 293 63 279 41 c 0,53,54
 263 12 263 12 256 6 c 0,55,56
 244 -2 244 -2 228 0 c 0,57,58
 214 0 214 0 206.5 3 c 128,-1,59
 199 6 199 6 191 18 c 2,60,-1
 182 29 l 2,61,62
 162 49 162 49 154 102 c 0,63,64
 150 135 150 135 144 160 c 0,65,66
 134 211 134 211 131 273 c 0,67,68
 127 365 127 365 135 577 c 128,-1,69
 143 789 143 789 154 888 c 0,70,71
 156 906 156 906 168 961 c 0,72,73
 186 1051 186 1051 187 1068 c 0,74,75
 195 1150 195 1150 234 1271 c 0,76,77
 248 1318 248 1318 281 1326 c 0,78,79
 338 1342 338 1342 373 1255 c 1,80,81
 418 1159 418 1159 435 1128 c 0,82,83
 464 1073 464 1073 471 1056 c 0,84,85
 481 1027 481 1027 500 984 c 0,86,87
 529 923 529 923 545 873 c 0,88,89
 549 863 549 863 555.5 840.5 c 128,-1,90
 562 818 562 818 567 802.5 c 128,-1,91
 572 787 572 787 576 779 c 0,92,93
 588 752 588 752 595 724 c 0,94,95
 597 716 597 716 603 702.5 c 128,-1,96
 609 689 609 689 616 673.5 c 128,-1,97
 623 658 623 658 627 650 c 2,98,-1
 646 607 l 1,99,-1
 650 633 l 2,100,101
 654 662 654 662 679 752 c 0,102,103
 683 764 683 764 692 794 c 128,-1,104
 701 824 701 824 703 830 c 0,105,106
 713 865 713 865 733.5 925.5 c 128,-1,107
 754 986 754 986 774.5 1045.5 c 128,-1,108
 795 1105 795 1105 797 1109 c 0,109,110
 805 1130 805 1130 810 1160 c 0,111,112
 818 1195 818 1195 857 1289 c 0,113,114
 869 1309 869 1309 877 1316 c 0,115,116
 900 1336 900 1336 900 1335 c 1,117,118
 939 1366 939 1366 992 1314 c 0,119,120
 1058 1248 1058 1248 1115 1074 c 0,121,122
 1154 951 1154 951 1167 847 c 0,123,124
 1167 841 1167 841 1175 787 c 0,125,126
 1177 775 1177 775 1185 721.5 c 128,-1,127
 1193 668 1193 668 1197 633 c 0,128,129
 1211 533 1211 533 1210 494 c 0,130,131
 1210 484 1210 484 1216 420 c 0,132,133
 1224 342 1224 342 1215.5 254 c 128,-1,134
 1207 166 1207 166 1189 119 c 0,135,136
 1185 109 1185 109 1181 95.5 c 128,-1,137
 1177 82 1177 82 1173 67.5 c 128,-1,138
 1169 53 1169 53 1167 47 c 0,139,140
 1157 18 1157 18 1140 10 c 0,141,142
 1113 -4 1113 -4 1095 4 c 0,0,1
EndSplineSet
Validated: 33
EndChar

StartChar: N
Encoding: 78 78 48
Width: 1112
GlyphClass: 1
Flags: W
LayerCount: 2
Fore
SplineSet
918 10 m 0,0,1
 893 20 893 20 845 100 c 0,2,3
 816 149 816 149 812 158 c 0,4,5
 810 160 810 160 808 165 c 128,-1,6
 806 170 806 170 804 174 c 2,7,-1
 800 178 l 2,8,9
 798 180 798 180 791.5 191.5 c 128,-1,10
 785 203 785 203 775 221.5 c 128,-1,11
 765 240 765 240 759 252 c 2,12,-1
 724 322 l 2,13,14
 716 342 716 342 704.5 363.5 c 128,-1,15
 693 385 693 385 683.5 400.5 c 128,-1,16
 674 416 674 416 674 418 c 0,17,18
 656 453 656 453 607 529 c 0,19,20
 580 570 580 570 539 654 c 0,21,22
 488 752 488 752 426 836 c 0,23,24
 385 893 385 893 367 920 c 2,25,-1
 348 947 l 1,26,-1
 346 845 l 2,27,28
 342 726 342 726 322 574 c 0,29,30
 316 517 316 517 307 396 c 0,31,32
 291 185 291 185 277 129 c 0,33,34
 275 117 275 117 271 94.5 c 128,-1,35
 267 72 267 72 265.5 60.5 c 128,-1,36
 264 49 264 49 258 36 c 128,-1,37
 252 23 252 23 242 18 c 0,38,39
 217 0 217 0 195 20 c 0,40,41
 170 41 170 41 156 129 c 0,42,43
 148 172 148 172 141 275 c 0,44,45
 125 488 125 488 133 599 c 0,46,47
 137 673 137 673 137 722 c 0,48,49
 137 892 137 892 148 922 c 0,50,51
 148 924 148 924 149 932.5 c 128,-1,52
 150 941 150 941 152 957.5 c 128,-1,53
 154 974 154 974 156 986 c 0,54,55
 168 1088 168 1088 176 1103 c 0,56,57
 182 1113 182 1113 193 1160 c 0,58,59
 242 1326 242 1326 266 1347 c 0,60,61
 276 1355 276 1355 296 1347 c 128,-1,62
 316 1339 316 1339 324 1326 c 0,63,64
 326 1322 326 1322 342.5 1299.5 c 128,-1,65
 359 1277 359 1277 367 1259 c 0,66,67
 383 1228 383 1228 455 1130 c 0,68,69
 498 1073 498 1073 550.5 990.5 c 128,-1,70
 603 908 603 908 611 896 c 0,71,72
 632 865 632 865 663.5 806.5 c 128,-1,73
 695 748 695 748 703 736 c 0,74,75
 719 716 719 716 744 666 c 0,76,77
 760 635 760 635 759 654 c 0,78,79
 759 691 759 691 773 773 c 0,80,81
 787 849 787 849 789 920 c 0,82,83
 793 1000 793 1000 799 1025 c 0,84,85
 799 1031 799 1031 800.5 1044.5 c 128,-1,86
 802 1058 802 1058 804 1077.5 c 128,-1,87
 806 1097 806 1097 808 1111 c 0,88,89
 816 1172 816 1172 820 1185 c 0,90,91
 822 1191 822 1191 828 1226 c 0,92,93
 849 1353 849 1353 869 1396 c 0,94,95
 879 1421 879 1421 894 1378 c 0,96,97
 896 1366 896 1366 900 1351 c 0,98,99
 920 1267 920 1267 931 1175 c 0,100,101
 935 1142 935 1142 939 1091 c 0,102,103
 945 1029 945 1029 951 996 c 0,104,105
 959 939 959 939 959 603 c 0,106,107
 959 392 959 392 962.5 353 c 128,-1,108
 966 314 966 314 966 223 c 0,109,110
 966 155 966 155 974 96 c 0,111,112
 982 35 982 35 933 12 c 0,113,114
 924 8 924 8 918 10 c 0,0,1
EndSplineSet
Validated: 33
EndChar

StartChar: O
Encoding: 79 79 49
Width: 1429
GlyphClass: 1
Flags: W
LayerCount: 2
Fore
SplineSet
584 -4 m 0,0,1
 563 0 563 0 562 0 c 0,2,3
 398 23 398 23 262 184 c 0,4,5
 225 231 225 231 184 310 c 0,6,7
 157 363 157 363 139 426 c 0,8,9
 112 526 112 526 117 652 c 0,10,11
 119 728 119 728 128 759.5 c 128,-1,12
 137 791 137 791 170 859 c 0,13,14
 229 978 229 978 266 1031.5 c 128,-1,15
 303 1085 303 1085 379 1158 c 0,16,17
 475 1252 475 1252 558 1290 c 0,18,19
 638 1327 638 1327 724 1328 c 0,20,21
 894 1328 894 1328 978 1269 c 0,22,23
 1027 1236 1027 1236 1115 1136 c 0,24,25
 1121 1128 1121 1128 1147 1091 c 128,-1,26
 1173 1054 1173 1054 1177 1050 c 0,27,28
 1206 1011 1206 1011 1249 886 c 0,29,30
 1352 583 1352 583 1257 336 c 0,31,32
 1208 203 1208 203 1066 107 c 1,33,34
 964 46 964 46 877 18 c 0,35,36
 830 4 830 4 785 -2 c 0,37,38
 752 -6 752 -6 705 -5 c 128,-1,39
 658 -4 658 -4 650 -6 c 0,40,41
 623 -10 623 -10 584 -4 c 0,0,1
709 158 m 0,42,43
 883 154 883 154 986 232 c 0,44,45
 1004 246 1004 246 1031 277 c 0,46,47
 1054 308 1054 308 1074 326 c 0,48,49
 1094 347 1094 347 1103.5 368.5 c 128,-1,50
 1113 390 1113 390 1126 453 c 0,51,52
 1149 547 1149 547 1150 638 c 0,53,54
 1150 695 1150 695 1138 745 c 128,-1,55
 1126 795 1126 795 1085 894 c 0,56,57
 1064 951 1064 951 1050 968 c 0,58,59
 1048 970 1048 970 1031.5 996.5 c 128,-1,60
 1015 1023 1015 1023 990.5 1045.5 c 128,-1,61
 966 1068 966 1068 918 1101 c 0,62,63
 727 1234 727 1234 471 1023 c 0,64,65
 371 943 371 943 330 851 c 0,66,67
 301 789 301 789 289 736 c 0,68,69
 277 672 277 672 273 595 c 0,70,71
 273 568 273 568 276 552.5 c 128,-1,72
 279 537 279 537 290 504.5 c 128,-1,73
 301 472 301 472 310 433 c 0,74,75
 318 396 318 396 349 336 c 0,76,77
 365 305 365 305 382.5 285.5 c 128,-1,78
 400 266 400 266 417.5 252 c 128,-1,79
 435 238 435 238 441 232 c 0,80,81
 457 214 457 214 473.5 201.5 c 128,-1,82
 490 189 490 189 510.5 181.5 c 128,-1,83
 531 174 531 174 544.5 169 c 128,-1,84
 558 164 558 164 585.5 162 c 128,-1,85
 613 160 613 160 624 159 c 128,-1,86
 635 158 635 158 667 158 c 128,-1,87
 699 158 699 158 709 158 c 0,42,43
EndSplineSet
Validated: 33
EndChar

StartChar: P
Encoding: 80 80 50
Width: 923
GlyphClass: 1
Flags: W
LayerCount: 2
Fore
SplineSet
240 -2 m 0,0,1
 228 -2 228 -2 218.5 2 c 128,-1,2
 209 6 209 6 202 18.5 c 128,-1,3
 195 31 195 31 192 36 c 128,-1,4
 189 41 189 41 182.5 61.5 c 128,-1,5
 176 82 176 82 176 84 c 0,6,7
 156 145 156 145 150 250 c 0,8,9
 148 285 148 285 142.5 348.5 c 128,-1,10
 137 412 137 412 134 461 c 128,-1,11
 131 510 131 510 133 547 c 0,12,13
 137 598 137 598 137 742 c 0,14,15
 137 896 137 896 139 929 c 0,16,17
 143 993 143 993 156.5 1117.5 c 128,-1,18
 170 1242 170 1242 178 1279 c 0,19,20
 188 1314 188 1314 213 1341 c 0,21,22
 266 1400 266 1400 332 1388 c 0,23,24
 365 1382 365 1382 421.5 1365.5 c 128,-1,25
 478 1349 478 1349 564 1306 c 128,-1,26
 650 1263 650 1263 689 1212 c 0,27,28
 751 1130 751 1130 773 1078 c 0,29,30
 775 1072 775 1072 784 1057.5 c 128,-1,31
 793 1043 793 1043 793 1041 c 0,32,33
 828 977 828 977 808 859 c 0,34,35
 808 855 808 855 804 830.5 c 128,-1,36
 800 806 800 806 797.5 794.5 c 128,-1,37
 795 783 795 783 787 760.5 c 128,-1,38
 779 738 779 738 766.5 718.5 c 128,-1,39
 754 699 754 699 734 681 c 0,40,41
 675 624 675 624 567 585.5 c 128,-1,42
 459 547 459 547 351 556 c 0,43,44
 339 556 339 556 330.5 558 c 128,-1,45
 322 560 322 560 317 561 c 128,-1,46
 312 562 312 562 310 562 c 0,47,48
 306 562 306 562 307 539 c 0,49,50
 305 508 305 508 306.5 402.5 c 128,-1,51
 308 297 308 297 308 289 c 0,52,53
 308 248 308 248 307.5 216.5 c 128,-1,54
 307 185 307 185 301 157 c 128,-1,55
 295 129 295 129 292 118 c 128,-1,56
 289 107 289 107 279 79 c 128,-1,57
 269 51 269 51 269 49 c 0,58,59
 261 24 261 24 255.5 12 c 128,-1,60
 250 0 250 0 248 -1 c 128,-1,61
 246 -2 246 -2 240 -2 c 0,0,1
510 730 m 0,62,63
 610 765 610 765 635 847 c 0,64,65
 653 902 653 902 636 951 c 0,66,67
 620 1006 620 1006 584 1060 c 0,68,69
 574 1076 574 1076 559.5 1090.5 c 128,-1,70
 545 1105 545 1105 525.5 1118.5 c 128,-1,71
 506 1132 506 1132 491 1141 c 128,-1,72
 476 1150 476 1150 455.5 1161.5 c 128,-1,73
 435 1173 435 1173 431 1175 c 0,74,75
 331 1228 331 1228 322 1218 c 0,76,77
 318 1214 318 1214 317 1149.5 c 128,-1,78
 316 1085 316 1085 316 992.5 c 128,-1,79
 316 900 316 900 316 871 c 2,80,-1
 316 707 l 1,81,-1
 357 705 l 2,82,83
 436 703 436 703 510 730 c 0,62,63
EndSplineSet
Validated: 33
EndChar

StartChar: Q
Encoding: 81 81 51
Width: 1431
GlyphClass: 1
Flags: W
LayerCount: 2
Fore
SplineSet
1205 -125 m 0,0,1
 1164 -104 1164 -104 1140 -82 c 0,2,3
 1126 -68 1126 -68 1104 -45.5 c 128,-1,4
 1082 -23 1082 -23 1072 -18 c 0,5,6
 1062 -10 1062 -10 1031 21 c 2,7,-1
 1002 47 l 1,8,-1
 982 74 l 2,9,10
 974 84 974 84 945 73 c 128,-1,11
 916 62 916 62 878.5 44.5 c 128,-1,12
 841 27 841 27 830 23 c 0,13,14
 783 15 783 15 734 10 c 0,15,16
 728 10 728 10 701 7 c 128,-1,17
 674 4 674 4 666 2 c 0,18,19
 641 -2 641 -2 590 4 c 0,20,21
 508 16 508 16 469 33 c 0,22,23
 348 86 348 86 258 199 c 0,24,25
 160 326 160 326 129 467 c 0,26,27
 109 551 109 551 115 676 c 0,28,29
 117 742 117 742 126 771 c 128,-1,30
 135 800 135 800 170 869 c 0,31,32
 229 988 229 988 266 1041.5 c 128,-1,33
 303 1095 303 1095 379 1167 c 0,34,35
 475 1261 475 1261 558.5 1300 c 128,-1,36
 642 1339 642 1339 724 1339 c 0,37,38
 896 1339 896 1339 980 1279 c 0,39,40
 1013 1256 1013 1256 1059 1206 c 128,-1,41
 1105 1156 1105 1156 1126 1121 c 0,42,43
 1134 1107 1134 1107 1164 1068 c 0,44,45
 1219 996 1219 996 1251 896 c 0,46,47
 1356 589 1356 589 1255 334 c 0,48,49
 1230 266 1230 266 1171 193 c 0,50,51
 1167 187 1167 187 1169 184 c 0,52,53
 1173 176 1173 176 1191 135 c 0,54,55
 1209 88 1209 88 1228 53 c 0,56,57
 1246 18 1246 18 1246 18 c 2,58,59
 1250 6 1250 6 1261 -21 c 0,60,61
 1277 -58 1277 -58 1281 -90 c 0,62,63
 1287 -127 1287 -127 1271 -137 c 0,64,65
 1254 -148 1254 -148 1205 -125 c 0,0,1
709 131 m 0,66,67
 793 139 793 139 881.5 166 c 128,-1,68
 970 193 970 193 1009 223 c 0,69,70
 1042 246 1042 246 1074 285 c 0,71,72
 1099 320 1099 320 1101 320 c 0,73,74
 1107 320 1107 320 1132 365 c 0,75,76
 1146 390 1146 390 1158 431 c 0,77,78
 1176 511 1176 511 1175 582 c 0,79,80
 1175 674 1175 674 1161.5 741 c 128,-1,81
 1148 808 1148 808 1105 914 c 0,82,83
 1082 973 1082 973 1054 1005 c 0,84,85
 1021 1048 1021 1048 1019 1052 c 0,86,87
 970 1130 970 1130 894 1175 c 0,88,89
 880 1183 880 1183 843 1191 c 0,90,91
 804 1199 804 1199 791.5 1198 c 128,-1,92
 779 1197 779 1197 752 1189 c 0,93,94
 649 1158 649 1158 521 1078 c 0,95,96
 455 1039 455 1039 392 982 c 0,97,98
 341 937 341 937 316 884 c 0,99,100
 304 861 304 861 293 830 c 0,101,102
 256 746 256 746 256 744 c 0,103,104
 254 738 254 738 250 668 c 0,105,106
 246 570 246 570 275 453 c 0,107,108
 289 398 289 398 318 342 c 0,109,110
 353 274 353 274 390 232 c 0,111,112
 502 111 502 111 709 131 c 0,66,67
599 2 m 0,113,114
 591 4 591 4 574.5 7 c 128,-1,115
 558 10 558 10 554 10 c 0,116,117
 488 20 488 20 408 69.5 c 128,-1,118
 328 119 328 119 266 193 c 0,119,120
 221 250 221 250 185 318 c 0,121,122
 160 369 160 369 141 435 c 0,123,124
 114 535 114 535 119 660 c 0,125,126
 121 736 121 736 130 769 c 128,-1,127
 139 802 139 802 172 869 c 0,128,129
 229 986 229 986 267 1038.5 c 128,-1,130
 305 1091 305 1091 381 1166 c 0,131,132
 477 1260 477 1260 560 1298 c 0,133,134
 640 1335 640 1335 726 1335 c 0,135,136
 898 1335 898 1335 980 1277 c 0,137,138
 1013 1254 1013 1254 1059 1204 c 128,-1,139
 1105 1154 1105 1154 1126 1119 c 0,140,141
 1128 1117 1128 1117 1166 1066 c 0,142,143
 1217 1000 1217 1000 1251 894 c 0,144,145
 1354 589 1354 589 1261 344 c 0,146,147
 1212 213 1212 213 1068 115 c 1,148,149
 965 53 965 53 881 25 c 0,150,151
 834 11 834 11 773 4 c 0,152,153
 740 0 740 0 658 0 c 0,154,155
 611 0 611 0 599 2 c 0,113,114
685 144 m 0,156,157
 783 154 783 154 863 181.5 c 128,-1,158
 943 209 943 209 988 240 c 0,159,160
 1006 254 1006 254 1033 285 c 0,161,162
 1056 316 1056 316 1076 334 c 0,163,164
 1096 355 1096 355 1105.5 375.5 c 128,-1,165
 1115 396 1115 396 1128 457 c 0,166,167
 1151 551 1151 551 1152 646 c 0,168,169
 1152 703 1152 703 1141 753.5 c 128,-1,170
 1130 804 1130 804 1089 902 c 0,171,172
 1068 955 1068 955 1052 978 c 0,173,174
 1048 982 1048 982 1033.5 1006.5 c 128,-1,175
 1019 1031 1019 1031 996.5 1052.5 c 128,-1,176
 974 1074 974 1074 931 1103 c 0,177,178
 906 1121 906 1121 885.5 1131.5 c 128,-1,179
 865 1142 865 1142 818 1152 c 128,-1,180
 771 1162 771 1162 725 1155 c 128,-1,181
 679 1148 679 1148 612 1116.5 c 128,-1,182
 545 1085 545 1085 472 1027 c 0,183,184
 370 941 370 941 332 857 c 0,185,186
 305 796 305 796 291 740 c 1,187,188
 277 658 277 658 273 597 c 0,189,190
 273 572 273 572 276 556.5 c 128,-1,191
 279 541 279 541 290 512.5 c 128,-1,192
 301 484 301 484 308 451 c 0,193,194
 312 433 312 433 318 418.5 c 128,-1,195
 324 404 324 404 327 398 c 128,-1,196
 330 392 330 392 339.5 371.5 c 128,-1,197
 349 351 349 351 355 340 c 0,198,199
 396 262 396 262 426 228 c 0,200,201
 481 171 481 171 539 153.5 c 128,-1,202
 597 136 597 136 685 144 c 0,156,157
EndSplineSet
Validated: 37
EndChar

StartChar: R
Encoding: 82 82 52
Width: 884
GlyphClass: 1
Flags: W
LayerCount: 2
Fore
SplineSet
213 16 m 0,0,1
 192 12 192 12 177 29.5 c 128,-1,2
 162 47 162 47 158 60.5 c 128,-1,3
 154 74 154 74 150 96 c 0,4,5
 134 168 134 168 125 264 c 0,6,7
 121 293 121 293 113 363 c 128,-1,8
 105 433 105 433 101.5 480 c 128,-1,9
 98 527 98 527 100 564 c 0,10,11
 104 615 104 615 103 759 c 0,12,13
 103 909 103 909 105 943 c 0,14,15
 109 1011 109 1011 123 1133 c 128,-1,16
 137 1255 137 1255 146 1290 c 0,17,18
 158 1325 158 1325 187 1355 c 0,19,20
 242 1412 242 1412 324 1400 c 0,21,22
 371 1392 371 1392 472 1339 c 0,23,24
 607 1267 607 1267 642 1224 c 0,25,26
 663 1201 663 1201 695.5 1147 c 128,-1,27
 728 1093 728 1093 744 1064 c 0,28,29
 746 1060 746 1060 753.5 1043.5 c 128,-1,30
 761 1027 761 1027 765 1021 c 0,31,32
 808 949 808 949 795 873 c 0,33,34
 783 797 783 797 734 754 c 0,35,36
 705 729 705 729 639.5 704 c 128,-1,37
 574 679 574 679 517 674 c 0,38,39
 478 670 478 670 435 672 c 128,-1,40
 392 674 392 674 381 677 c 0,41,42
 375 679 375 679 375 677 c 0,43,44
 373 673 373 673 381 668 c 2,45,46
 381 668 381 668 406 633 c 0,47,48
 420 612 420 612 467 562 c 0,49,50
 555 460 555 460 584 410 c 0,51,52
 631 340 631 340 675.5 248 c 128,-1,53
 720 156 720 156 730 107 c 0,54,55
 732 103 732 103 736 89.5 c 128,-1,56
 740 76 740 76 742 72 c 0,57,58
 748 54 748 54 748 39 c 0,59,60
 748 29 748 29 738 21.5 c 128,-1,61
 728 14 728 14 718 14 c 0,62,63
 706 14 706 14 676 43 c 0,64,65
 633 82 633 82 611.5 105.5 c 128,-1,66
 590 129 590 129 504 237.5 c 128,-1,67
 418 346 418 346 418 348 c 256,68,69
 418 350 418 350 387 387 c 0,70,71
 356 426 356 426 351 431 c 0,72,73
 341 443 341 443 321 465.5 c 128,-1,74
 301 488 301 488 282.5 505.5 c 128,-1,75
 264 523 264 523 262 523 c 0,76,77
 260 521 260 521 266 461 c 0,78,79
 270 359 270 359 269 277 c 0,80,81
 269 156 269 156 258 107 c 0,82,83
 246 52 246 52 236.5 35 c 128,-1,84
 227 18 227 18 213 16 c 0,0,1
492 832 m 0,85,86
 586 840 586 840 605 863 c 0,87,88
 615 871 615 871 615 900 c 0,89,90
 617 941 617 941 611 963 c 0,91,92
 588 1027 588 1027 549 1084 c 0,93,94
 502 1152 502 1152 420 1193 c 0,95,96
 399 1205 399 1205 372.5 1214.5 c 128,-1,97
 346 1224 346 1224 328 1229 c 128,-1,98
 310 1234 310 1234 308 1232 c 0,99,100
 300 1226 300 1226 285 1070 c 0,101,102
 281 992 281 992 283 922 c 2,103,-1
 285 830 l 1,104,-1
 351 830 l 2,105,106
 420 828 420 828 492 832 c 0,85,86
EndSplineSet
Validated: 33
EndChar

StartChar: S
Encoding: 83 83 53
Width: 1149
GlyphClass: 1
Flags: W
LayerCount: 2
Fore
SplineSet
455 8 m 4,0,1
 389 16 389 16 355 31 c 4,2,3
 351 33 351 33 337.5 38 c 132,-1,4
 324 43 324 43 320 45 c 4,5,6
 242 74 242 74 176 144 c 4,7,8
 135 189 135 189 117 242 c 4,9,10
 97 308 97 308 125 322 c 4,11,12
 141 330 141 330 182 291 c 4,13,14
 219 256 219 256 312 193 c 4,15,16
 367 160 367 160 424 154 c 4,17,18
 549 140 549 140 611 150 c 4,19,20
 650 156 650 156 691 176 c 4,21,22
 771 215 771 215 810 279 c 4,23,24
 816 289 816 289 820 297 c 132,-1,25
 824 305 824 305 826 309.5 c 132,-1,26
 828 314 828 314 829 323 c 132,-1,27
 830 332 830 332 830 335 c 132,-1,28
 830 338 830 338 830 350.5 c 132,-1,29
 830 363 830 363 830 369 c 4,30,31
 830 408 830 408 826 429.5 c 132,-1,32
 822 451 822 451 817 458 c 132,-1,33
 812 465 812 465 799 478 c 4,34,35
 748 529 748 529 594 572 c 4,36,37
 543 586 543 586 513 597 c 4,38,39
 478 611 478 611 416 642 c 4,40,41
 383 660 383 660 353 670 c 4,42,43
 296 691 296 691 240 732 c 132,-1,44
 184 773 184 773 158 816 c 4,45,46
 144 839 144 839 133 869 c 4,47,48
 110 941 110 941 148 1064 c 4,49,50
 175 1150 175 1150 220.5 1199 c 132,-1,51
 266 1248 266 1248 359 1296 c 4,52,53
 427 1331 427 1331 486 1339 c 4,54,55
 572 1351 572 1351 695 1322 c 4,56,57
 724 1312 724 1312 738 1312 c 4,58,59
 822 1294 822 1294 886 1263 c 4,60,61
 941 1238 941 1238 953 1208 c 4,62,63
 957 1200 957 1200 951 1193 c 4,64,65
 943 1179 943 1179 904 1173 c 4,66,67
 840 1163 840 1163 754 1175 c 4,68,69
 711 1181 711 1181 672 1181 c 4,70,71
 649 1181 649 1181 613.5 1182 c 132,-1,72
 578 1183 578 1183 566 1182 c 132,-1,73
 554 1181 554 1181 533.5 1180 c 132,-1,74
 513 1179 513 1179 500.5 1174 c 132,-1,75
 488 1169 488 1169 471 1162 c 4,76,77
 428 1142 428 1142 396 1107 c 4,78,79
 326 1031 326 1031 320 931 c 4,80,81
 320 913 320 913 324 906 c 4,82,83
 344 867 344 867 484 818 c 4,84,85
 560 791 560 791 560 791 c 6,86,87
 642 760 642 760 717 750 c 4,88,89
 819 736 819 736 914 689 c 4,90,91
 1006 646 1006 646 1027 551 c 4,92,93
 1033 524 1033 524 1031 496 c 4,94,95
 1027 381 1027 381 976 279 c 4,96,97
 945 217 945 217 910 172 c 4,98,99
 799 31 799 31 636 8 c 4,100,101
 555 -6 555 -6 455 8 c 4,0,1
EndSplineSet
Validated: 33
EndChar

StartChar: T
Encoding: 84 84 54
Width: 1075
GlyphClass: 1
Flags: W
LayerCount: 2
Fore
SplineSet
541 4 m 0,0,1
 502 18 502 18 492 39 c 0,2,3
 482 59 482 59 474 137 c 0,4,5
 453 352 453 352 469 769 c 0,6,7
 471 796 471 796 474 988 c 0,8,9
 480 1173 480 1173 482 1214 c 0,10,11
 484 1247 484 1247 484 1248 c 0,12,13
 484 1250 484 1250 416 1249 c 0,14,15
 184 1251 184 1251 129 1279 c 0,16,17
 82 1304 82 1304 82 1314 c 0,18,19
 82 1316 82 1316 82 1316 c 1,20,-1
 86 1316 l 2,21,22
 88 1318 88 1318 95 1319 c 128,-1,23
 102 1320 102 1320 115 1324 c 0,24,25
 220 1347 220 1347 228 1349 c 0,26,27
 279 1365 279 1365 508 1380 c 0,28,29
 584 1384 584 1384 617 1388 c 0,30,31
 656 1392 656 1392 713 1386 c 0,32,33
 734 1384 734 1384 792.5 1381 c 128,-1,34
 851 1378 851 1378 871 1376 c 0,35,36
 955 1372 955 1372 970 1359 c 0,37,38
 995 1338 995 1338 991.5 1307.5 c 128,-1,39
 988 1277 988 1277 961 1261 c 0,40,41
 940 1249 940 1249 797 1246 c 0,42,43
 779 1246 779 1246 746 1244 c 128,-1,44
 713 1242 713 1242 687.5 1241 c 128,-1,45
 662 1240 662 1240 650 1240 c 2,46,-1
 611 1244 l 1,47,-1
 611 1220 l 2,48,49
 611 1218 611 1218 612 1203.5 c 128,-1,50
 613 1189 613 1189 614 1160.5 c 128,-1,51
 615 1132 615 1132 615 1095 c 0,52,53
 615 1066 615 1066 617 1041.5 c 128,-1,54
 619 1017 619 1017 621 989 c 128,-1,55
 623 961 623 961 627 866 c 128,-1,56
 631 771 631 771 635 627 c 0,57,58
 643 438 643 438 642 431 c 0,59,60
 648 386 648 386 652 156 c 0,61,62
 654 70 654 70 648 51 c 0,63,64
 642 28 642 28 613 12 c 0,65,66
 576 -6 576 -6 541 4 c 0,0,1
EndSplineSet
Validated: 33
EndChar

StartChar: U
Encoding: 85 85 55
Width: 1097
GlyphClass: 1
Flags: W
LayerCount: 2
Fore
SplineSet
492 2 m 0,0,1
 426 14 426 14 367 72 c 0,2,3
 303 136 303 136 267 207 c 0,4,5
 216 312 216 312 170 500 c 0,6,7
 145 605 145 605 139 687 c 0,8,9
 139 693 139 693 138 703 c 128,-1,10
 137 713 137 713 137 718 c 2,11,-1
 135 724 l 2,12,13
 131 728 131 728 127 795 c 0,14,15
 102 1143 102 1143 131 1269 c 0,16,17
 147 1335 147 1335 184 1335 c 0,18,19
 209 1335 209 1335 234.5 1298 c 128,-1,20
 260 1261 260 1261 258 1197 c 0,21,22
 258 1177 258 1177 264.5 1132 c 128,-1,23
 271 1087 271 1087 273 1068 c 0,24,25
 273 1047 273 1047 277 1031 c 0,26,27
 289 980 289 980 293 875 c 0,28,29
 297 801 297 801 301 781 c 0,30,31
 303 765 303 765 312 677 c 0,32,33
 314 654 314 654 318 640 c 0,34,35
 336 570 336 570 351 490 c 0,36,37
 369 398 369 398 418 320 c 0,38,39
 424 308 424 308 437.5 287 c 128,-1,40
 451 266 451 266 456 258 c 128,-1,41
 461 250 461 250 470.5 239 c 128,-1,42
 480 228 480 228 492 223 c 0,43,44
 541 196 541 196 599 205 c 0,45,46
 634 213 634 213 674 246 c 0,47,48
 678 250 678 250 687 258 c 2,49,-1
 695 264 l 2,50,51
 730 291 730 291 748 359 c 0,52,53
 777 455 777 455 795 549 c 0,54,55
 803 592 803 592 806.5 812.5 c 128,-1,56
 810 1033 810 1033 806 1125 c 0,57,58
 804 1160 804 1160 804 1222 c 0,59,60
 804 1259 804 1259 828 1314 c 0,61,62
 844 1347 844 1347 863 1339 c 0,63,64
 892 1327 892 1327 908 1265 c 0,65,66
 918 1230 918 1230 929 1134 c 0,67,68
 931 1128 931 1128 934 1099 c 128,-1,69
 937 1070 937 1070 937 1064 c 0,70,71
 953 906 953 906 955 877 c 0,72,73
 957 861 957 861 960 809.5 c 128,-1,74
 963 758 963 758 963 744 c 0,75,76
 971 629 971 629 961 531 c 0,77,78
 951 428 951 428 936.5 373 c 128,-1,79
 922 318 922 318 888 264 c 0,80,81
 800 116 800 116 722 59 c 0,82,83
 681 28 681 28 625 8 c 0,84,85
 562 -12 562 -12 492 2 c 0,0,1
EndSplineSet
Validated: 33
EndChar

StartChar: V
Encoding: 86 86 56
Width: 1011
GlyphClass: 1
Flags: W
LayerCount: 2
Fore
SplineSet
525 16 m 0,0,1
 515 26 515 26 510 37 c 0,2,3
 508 39 508 39 497 60.5 c 128,-1,4
 486 82 486 82 480 90 c 0,5,6
 427 186 427 186 426 191 c 0,7,8
 387 279 387 279 385 283 c 0,9,10
 323 402 323 402 273 558 c 0,11,12
 271 564 271 564 216.5 726 c 128,-1,13
 162 888 162 888 144 976 c 0,14,15
 138 1007 138 1007 122.5 1062 c 128,-1,16
 107 1117 107 1117 98.5 1159 c 128,-1,17
 90 1201 90 1201 92 1240 c 0,18,19
 94 1285 94 1285 111 1322 c 0,20,21
 131 1363 131 1363 157.5 1359 c 128,-1,22
 184 1355 184 1355 193 1312 c 0,23,24
 195 1304 195 1304 203 1289 c 2,25,-1
 209 1271 l 2,26,27
 219 1250 219 1250 268.5 1097.5 c 128,-1,28
 318 945 318 945 328 896 c 0,29,30
 334 869 334 869 420 619 c 0,31,32
 426 603 426 603 455 529 c 128,-1,33
 484 455 484 455 498 414 c 0,34,35
 502 400 502 400 507 388.5 c 128,-1,36
 512 377 512 377 515.5 366 c 128,-1,37
 519 355 519 355 521 351 c 1,38,-1
 535 377 l 2,39,40
 545 398 545 398 575 506.5 c 128,-1,41
 605 615 605 615 605 617 c 0,42,43
 630 691 630 691 644 758 c 0,44,45
 652 795 652 795 706.5 979.5 c 128,-1,46
 761 1164 761 1164 769 1197 c 0,47,48
 777 1226 777 1226 814 1314 c 0,49,50
 832 1357 832 1357 881 1357 c 0,51,52
 908 1357 908 1357 912 1314 c 0,53,54
 916 1275 916 1275 909 1232 c 128,-1,55
 902 1189 902 1189 889.5 1135.5 c 128,-1,56
 877 1082 877 1082 873 1052 c 0,57,58
 865 991 865 991 814 800 c 128,-1,59
 763 609 763 609 756 566 c 0,60,61
 746 519 746 519 729.5 462.5 c 128,-1,62
 713 406 713 406 696 358 c 128,-1,63
 679 310 679 310 662.5 268 c 128,-1,64
 646 226 646 226 636 203 c 2,65,-1
 627 178 l 1,66,67
 611 149 611 149 597 121 c 0,68,69
 595 117 595 117 560 35 c 0,70,71
 550 10 550 10 540.5 10 c 128,-1,72
 531 10 531 10 525 16 c 0,0,1
EndSplineSet
Validated: 33
EndChar

StartChar: W
Encoding: 87 87 57
Width: 1337
GlyphClass: 1
Flags: W
LayerCount: 2
Fore
SplineSet
1091 1337 m 0,0,1
 1075 1331 1075 1331 1066 1306 c 0,2,3
 1062 1296 1062 1296 1048 1177 c 0,4,5
 1036 1064 1036 1064 1033 923 c 0,6,7
 1031 853 1031 853 1017 758 c 0,8,9
 1015 748 1015 748 1011 716.5 c 128,-1,10
 1007 685 1007 685 1005 674 c 0,11,12
 997 608 997 608 986 551 c 0,13,14
 972 492 972 492 972 478 c 0,15,16
 970 466 970 466 957.5 426.5 c 128,-1,17
 945 387 945 387 941 379 c 0,18,19
 939 373 939 373 933 387 c 0,20,21
 929 397 929 397 914 441 c 0,22,23
 900 482 900 482 838 648 c 0,24,25
 805 736 805 736 759 867 c 0,26,27
 712 1004 712 1004 705 1015 c 0,28,29
 664 1076 664 1076 627 1066 c 0,30,31
 586 1056 586 1056 568 1035 c 0,32,33
 537 998 537 998 490 884 c 0,34,35
 424 726 424 726 392 599 c 0,36,37
 388 579 388 579 379.5 551 c 128,-1,38
 371 523 371 523 363 503.5 c 128,-1,39
 355 484 355 484 353 484 c 0,40,41
 351 488 351 488 351 492 c 0,42,43
 351 498 351 498 342 541 c 0,44,45
 336 559 336 559 336 576 c 0,46,47
 328 613 328 613 316 738 c 0,48,49
 308 832 308 832 297 902 c 0,50,51
 268 1099 268 1099 281 1216 c 0,52,53
 289 1278 289 1278 275 1300 c 0,54,55
 259 1329 259 1329 252 1335 c 0,56,57
 240 1343 240 1343 225 1341 c 0,58,59
 211 1341 211 1341 203 1338 c 128,-1,60
 195 1335 195 1335 187 1324 c 2,61,-1
 178 1312 l 1,62,63
 158 1292 158 1292 150 1240 c 0,64,65
 146 1207 146 1207 141 1181 c 0,66,67
 131 1130 131 1130 127 1068 c 0,68,69
 123 976 123 976 131 764.5 c 128,-1,70
 139 553 139 553 150 453 c 0,71,72
 152 439 152 439 164 383 c 0,73,74
 180 297 180 297 184 273 c 0,75,76
 194 181 194 181 228 70 c 0,77,78
 242 23 242 23 277 16 c 0,79,80
 332 2 332 2 367 86 c 0,81,82
 408 174 408 174 431 215 c 0,83,84
 462 272 462 272 467 285 c 0,85,86
 477 314 477 314 496 357 c 0,87,88
 525 414 525 414 541 471 c 0,89,90
 570 557 570 557 572 562 c 0,91,92
 584 589 584 589 592 617 c 0,93,94
 594 625 594 625 599.5 638.5 c 128,-1,95
 605 652 605 652 612 667.5 c 128,-1,96
 619 683 619 683 623 691 c 2,97,-1
 640 734 l 1,98,-1
 646 711 l 1,99,100
 650 678 650 678 676 590 c 0,101,102
 680 578 680 578 688.5 547.5 c 128,-1,103
 697 517 697 517 699 512 c 0,104,105
 709 477 709 477 729.5 416 c 128,-1,106
 750 355 750 355 770.5 295.5 c 128,-1,107
 791 236 791 236 793 232 c 0,108,109
 801 211 801 211 806 182 c 0,110,111
 814 151 814 151 853 55 c 0,112,113
 865 34 865 34 873 25 c 0,114,115
 896 5 896 5 896 6 c 1,116,117
 935 -25 935 -25 988 27 c 0,118,119
 1054 93 1054 93 1111 267 c 0,120,121
 1150 390 1150 390 1164 494 c 0,122,123
 1164 500 1164 500 1171 554 c 0,124,125
 1171 558 1171 558 1180 617 c 128,-1,126
 1189 676 1189 676 1193 711 c 0,127,128
 1207 811 1207 811 1207 847 c 0,129,130
 1207 857 1207 857 1212 922 c 0,131,132
 1228 1104 1228 1104 1183 1222 c 0,133,134
 1177 1236 1177 1236 1171.5 1263 c 128,-1,135
 1166 1290 1166 1290 1164 1294 c 0,136,137
 1154 1323 1154 1323 1136 1331 c 0,138,139
 1109 1345 1109 1345 1091 1337 c 0,0,1
EndSplineSet
Validated: 41
EndChar

StartChar: X
Encoding: 88 88 58
Width: 1245
GlyphClass: 1
Flags: W
LayerCount: 2
Fore
SplineSet
1023 -6 m 0,0,1
 1007 0 1007 0 982 29 c 0,2,3
 855 175 855 175 703 371 c 0,4,5
 627 469 627 469 619 469 c 128,-1,6
 611 469 611 469 522 366.5 c 128,-1,7
 433 264 433 264 325 147.5 c 128,-1,8
 217 31 217 31 172 6 c 0,9,10
 141 -12 141 -12 125 -6 c 0,11,12
 102 0 102 0 105 55 c 0,13,14
 111 135 111 135 206 275.5 c 128,-1,15
 301 416 301 416 390.5 529 c 128,-1,16
 480 642 480 642 480 660 c 0,17,18
 480 676 480 676 397 776.5 c 128,-1,19
 314 877 314 877 222.5 1014.5 c 128,-1,20
 131 1152 131 1152 115 1253 c 0,21,22
 105 1317 105 1317 141 1330 c 0,23,24
 149 1332 149 1332 160 1330 c 0,25,26
 180 1324 180 1324 230 1275 c 0,27,28
 291 1216 291 1216 427.5 1064 c 128,-1,29
 564 912 564 912 619 855 c 2,30,-1
 648 824 l 1,31,-1
 672 851 l 2,32,33
 715 904 715 904 787 1003.5 c 128,-1,34
 859 1103 859 1103 920.5 1177 c 128,-1,35
 982 1251 982 1251 1048 1302 c 0,36,37
 1085 1329 1085 1329 1101 1333 c 0,38,39
 1121 1335 1121 1335 1136.5 1325.5 c 128,-1,40
 1152 1316 1152 1316 1156 1304 c 0,41,42
 1166 1259 1166 1259 1027 1021 c 128,-1,43
 888 783 888 783 820 699 c 0,44,45
 818 697 818 697 800.5 676.5 c 128,-1,46
 783 656 783 656 775 646 c 1,47,48
 826 548 826 548 928.5 386.5 c 128,-1,49
 1031 225 1031 225 1058 168 c 0,50,51
 1120 33 1120 33 1070 -4 c 0,52,53
 1050 -18 1050 -18 1023 -6 c 0,0,1
EndSplineSet
Validated: 33
EndChar

StartChar: Y
Encoding: 89 89 59
Width: 1136
GlyphClass: 1
Flags: W
LayerCount: 2
Fore
SplineSet
336 20 m 0,0,1
 318 8 318 8 303 14 c 0,2,3
 280 22 280 22 285 86 c 0,4,5
 293 188 293 188 379 428 c 128,-1,6
 465 668 465 668 465 676 c 0,7,8
 465 697 465 697 379 797.5 c 128,-1,9
 293 898 293 898 198 1035.5 c 128,-1,10
 103 1173 103 1173 90 1277 c 0,11,12
 82 1338 82 1338 113 1349 c 0,13,14
 121 1351 121 1351 133 1349 c 0,15,16
 153 1341 153 1341 195 1296 c 0,17,18
 252 1237 252 1237 380 1082 c 128,-1,19
 508 927 508 927 554 875 c 2,20,-1
 582 843 l 1,21,-1
 603 871 l 2,22,23
 640 922 640 922 707.5 1023.5 c 128,-1,24
 775 1125 775 1125 832.5 1198 c 128,-1,25
 890 1271 890 1271 951 1322 c 0,26,27
 982 1349 982 1349 1000 1353 c 0,28,29
 1018 1355 1018 1355 1032 1345 c 128,-1,30
 1046 1335 1046 1335 1048 1326 c 0,31,32
 1052 1306 1052 1306 1005.5 1219 c 128,-1,33
 959 1132 959 1132 858.5 962.5 c 128,-1,34
 758 793 758 793 699 687 c 0,35,36
 631 564 631 564 540 388.5 c 128,-1,37
 449 213 449 213 399.5 120.5 c 128,-1,38
 350 28 350 28 336 20 c 0,0,1
EndSplineSet
Validated: 33
EndChar

StartChar: Z
Encoding: 90 90 60
Width: 1397
GlyphClass: 1
Flags: W
LayerCount: 2
Fore
SplineSet
143 -23 m 0,0,1
 120 -13 120 -13 107 16 c 0,2,3
 97 37 97 37 111 80 c 0,4,5
 123 119 123 119 137.5 148.5 c 128,-1,6
 152 178 152 178 164 192.5 c 128,-1,7
 176 207 176 207 202 237 c 128,-1,8
 228 267 228 267 244 289 c 0,9,10
 336 408 336 408 481.5 566 c 128,-1,11
 627 724 627 724 725.5 822 c 128,-1,12
 824 920 824 920 845 937 c 0,13,14
 847 939 847 939 856 946 c 128,-1,15
 865 953 865 953 876.5 963.5 c 128,-1,16
 888 974 888 974 892 976 c 0,17,18
 958 1035 958 1035 964 1066 c 0,19,20
 966 1074 966 1074 959 1074 c 0,21,22
 955 1074 955 1074 921.5 1079.5 c 128,-1,23
 888 1085 888 1085 829.5 1090 c 128,-1,24
 771 1095 771 1095 709 1095 c 1,25,26
 633 1107 633 1107 458 1115 c 128,-1,27
 283 1123 283 1123 172 1150 c 0,28,29
 135 1160 135 1160 129 1171 c 0,30,31
 117 1194 117 1194 146 1224 c 0,32,33
 181 1259 181 1259 234 1269 c 128,-1,34
 287 1279 287 1279 420 1279 c 0,35,36
 678 1279 678 1279 828 1265 c 0,37,38
 842 1263 842 1263 931 1267 c 0,39,40
 1130 1279 1130 1279 1234 1251 c 0,41,42
 1306 1235 1306 1235 1277 1177 c 0,43,44
 1259 1140 1259 1140 1154 1017 c 0,45,46
 1121 980 1121 980 1031 881.5 c 128,-1,47
 941 783 941 783 898 726 c 0,48,49
 810 615 810 615 529 326 c 0,50,51
 408 201 408 201 424 201 c 0,52,53
 426 201 426 201 430 203 c 0,54,55
 440 207 440 207 566 209 c 0,56,57
 917 217 917 217 1160 143 c 0,58,59
 1162 141 1162 141 1170.5 136 c 128,-1,60
 1179 131 1179 131 1182 128 c 128,-1,61
 1185 125 1185 125 1193 120 c 128,-1,62
 1201 115 1201 115 1204.5 111 c 128,-1,63
 1208 107 1208 107 1214 102.5 c 128,-1,64
 1220 98 1220 98 1223 93 c 128,-1,65
 1226 88 1226 88 1229 81 c 128,-1,66
 1232 74 1232 74 1234 67.5 c 128,-1,67
 1236 61 1236 61 1236 53 c 0,68,69
 1236 -4 1236 -4 1181 -20 c 0,70,71
 1169 -26 1169 -26 1148 -18 c 0,72,73
 1072 5 1072 5 1035 10 c 0,74,75
 1027 10 1027 10 1015.5 12 c 128,-1,76
 1004 14 1004 14 995 16 c 128,-1,77
 986 18 986 18 984 18 c 0,78,79
 978 30 978 30 669.5 28.5 c 128,-1,80
 361 27 361 27 250 -14 c 1,81,82
 176 -37 176 -37 143 -23 c 0,0,1
EndSplineSet
Validated: 33
EndChar

StartChar: backslash
Encoding: 92 92 61
Width: 710
GlyphClass: 1
Flags: W
LayerCount: 2
Fore
SplineSet
519 39 m 0,0,1
 484 47 484 47 465 70 c 0,2,3
 445 90 445 90 414 168 c 0,4,5
 328 367 328 367 207 830 c 0,6,7
 186 916 186 916 154 1029 c 0,8,9
 109 1195 109 1195 105 1214 c 0,10,11
 97 1251 97 1251 95.5 1324.5 c 128,-1,12
 94 1398 94 1398 100 1410 c 0,13,14
 104 1418 104 1418 103 1437 c 0,15,16
 105 1457 105 1457 109 1457.5 c 128,-1,17
 113 1458 113 1458 127 1439 c 0,18,19
 131 1435 131 1435 137 1425 c 0,20,21
 174 1366 174 1366 195 1312 c 0,22,23
 199 1302 199 1302 215.5 1264 c 128,-1,24
 232 1226 232 1226 244 1199 c 0,25,26
 291 1092 291 1092 390 781 c 0,27,28
 474 527 474 527 484 498 c 0,29,30
 529 387 529 387 584 211 c 0,31,32
 613 115 613 115 613 98 c 0,33,34
 613 71 613 71 590 53 c 0,35,36
 556 33 556 33 519 39 c 0,0,1
EndSplineSet
Validated: 33
EndChar

StartChar: asciicircum
Encoding: 94 94 62
Width: 836
GlyphClass: 1
Flags: W
LayerCount: 2
Fore
SplineSet
363 1372 m 0,0,1
 347 1368 347 1368 342 1343 c 0,2,3
 331 1298 331 1298 295.5 1207.5 c 128,-1,4
 260 1117 260 1117 240 1077 c 0,5,6
 219 1040 219 1040 211 1024 c 0,7,8
 207 1016 207 1016 200.5 1001.5 c 128,-1,9
 194 987 194 987 183.5 965 c 128,-1,10
 173 943 173 943 167 929 c 0,11,12
 121 833 121 833 109 794 c 0,13,14
 86 704 86 704 91 671 c 0,15,16
 93 664 93 664 98 658.5 c 128,-1,17
 103 653 103 653 108 655 c 0,18,19
 123 657 123 657 159 704 c 0,20,21
 290 869 290 869 360 1036 c 2,22,-1
 379 1084 l 1,23,-1
 401 1051 l 2,24,25
 427 1009 427 1009 452 977 c 0,26,27
 502 908 502 908 518 884 c 0,28,29
 550 835 550 835 586 793 c 0,30,31
 622 747 622 747 625 744 c 0,32,33
 649 709 649 709 660 698 c 0,34,35
 682 678 682 678 701 657 c 0,36,37
 715 639 715 639 726 637 c 0,38,39
 745 634 745 634 761 642 c 0,40,41
 784 652 784 652 782 678 c 128,-1,42
 780 704 780 704 750 765 c 0,43,44
 734 798 734 798 729 807 c 0,45,46
 716 827 716 827 696 877 c 0,47,48
 658 966 658 966 634 1007 c 0,49,50
 634 1009 634 1009 630.5 1014 c 128,-1,51
 627 1019 627 1019 621.5 1026.5 c 128,-1,52
 616 1034 616 1034 615 1037 c 0,53,54
 610 1045 610 1045 600.5 1063.5 c 128,-1,55
 591 1082 591 1082 587 1086 c 0,56,57
 580 1098 580 1098 569 1116 c 128,-1,58
 558 1134 558 1134 555 1139 c 0,59,60
 540 1168 540 1168 531 1183 c 0,61,62
 515 1206 515 1206 497 1239 c 0,63,64
 481 1270 481 1270 454 1305 c 0,65,66
 418 1351 418 1351 399 1364.5 c 128,-1,67
 380 1378 380 1378 363 1372 c 0,0,1
EndSplineSet
Validated: 41
EndChar

StartChar: underscore
Encoding: 95 95 63
Width: 1142
GlyphClass: 1
Flags: W
LayerCount: 2
Fore
SplineSet
314 2 m 0,0,1
 142 20 142 20 125 27 c 0,2,3
 119 31 119 31 119 31 c 1,4,5
 129 41 129 41 277 66 c 0,6,7
 281 66 281 66 295.5 69 c 128,-1,8
 310 72 310 72 325 74 c 128,-1,9
 340 76 340 76 349 78 c 0,10,11
 566 117 566 117 742 119 c 0,12,13
 929 121 929 121 970 102 c 0,14,15
 982 96 982 96 999.5 81 c 128,-1,16
 1017 66 1017 66 1017 62 c 0,17,18
 1017 54 1017 54 984 41 c 0,19,20
 943 21 943 21 832 8 c 0,21,22
 752 -2 752 -2 463 -4 c 0,23,24
 371 -4 371 -4 314 2 c 0,0,1
EndSplineSet
Validated: 33
EndChar

StartChar: a
Encoding: 97 97 64
Width: 1185
GlyphClass: 1
Flags: W
LayerCount: 2
Fore
SplineSet
474 -4 m 0,0,1
 431 2 431 2 353 31 c 0,2,3
 328 41 328 41 324 45 c 0,4,5
 308 55 308 55 308 55 c 129,-1,6
 308 55 308 55 305.5 57 c 128,-1,7
 303 59 303 59 299 61.5 c 128,-1,8
 295 64 295 64 293 66 c 0,9,10
 232 109 232 109 203 154 c 0,11,12
 201 156 201 156 199 160 c 0,13,14
 193 170 193 170 191 172 c 0,15,16
 183 180 183 180 178 191 c 0,17,18
 170 209 170 209 168 209 c 0,19,20
 156 215 156 215 141 275 c 0,21,22
 137 287 137 287 137 287 c 2,23,24
 133 291 133 291 127 334 c 0,25,26
 125 344 125 344 117 387 c 0,27,28
 109 428 109 428 125 517 c 0,29,30
 137 585 137 585 152 619 c 0,31,32
 177 681 177 681 223 752 c 0,33,34
 244 787 244 787 302.5 847.5 c 128,-1,35
 361 908 361 908 371 908 c 0,36,37
 373 908 373 908 379 914 c 0,38,39
 391 926 391 926 412 937 c 0,40,41
 428 945 428 945 433 949 c 0,42,43
 577 1033 577 1033 703 992 c 0,44,45
 744 978 744 978 793 945 c 0,46,47
 830 916 830 916 863 879 c 2,48,-1
 873 867 l 1,49,-1
 882 896 l 2,50,51
 892 923 892 923 894 925 c 2,52,53
 894 925 894 925 906 949 c 0,54,55
 918 976 918 976 920 978 c 2,56,57
 920 978 920 978 935 1005 c 0,58,59
 941 1015 941 1015 953 1027 c 0,60,61
 959 1038 959 1038 963 1044 c 0,62,63
 984 1077 984 1077 990 1076 c 0,64,65
 992 1074 992 1074 990 1068 c 0,66,67
 986 1058 986 1058 982 1021 c 0,68,69
 980 990 980 990 980 990 c 2,70,71
 976 990 976 990 972 882 c 0,72,73
 972 851 972 851 963 711 c 0,74,75
 961 693 961 693 957 564 c 0,76,77
 953 482 953 482 951 482 c 1,78,79
 951 474 951 474 953 469 c 2,80,81
 953 469 953 469 953 428 c 0,82,83
 951 366 951 366 990 260 c 0,84,85
 1006 215 1006 215 1027 187 c 0,86,87
 1041 171 1041 171 1059.5 141 c 128,-1,88
 1078 111 1078 111 1078 107 c 0,89,90
 1078 105 1078 105 1080 102 c 0,91,92
 1082 96 1082 96 1084 94 c 0,93,94
 1100 65 1100 65 1091 35 c 0,95,96
 1079 -6 1079 -6 1027 -6 c 0,97,98
 1000 -6 1000 -6 961.5 12.5 c 128,-1,99
 923 31 923 31 904 57 c 0,100,101
 894 71 894 71 892 70.5 c 128,-1,102
 890 70 890 70 877 94 c 0,103,104
 867 114 867 114 863 117 c 0,105,106
 859 119 859 119 850 145.5 c 128,-1,107
 841 172 841 172 840 184 c 0,108,109
 836 198 836 198 834 199.5 c 128,-1,110
 832 201 832 201 828 196 c 128,-1,111
 824 191 824 191 818 182 c 0,112,113
 814 178 814 178 808 168 c 2,114,-1
 804 160 l 2,115,116
 796 152 796 152 793 146 c 0,117,118
 777 123 777 123 738 88 c 128,-1,119
 699 53 699 53 670 37 c 0,120,121
 627 10 627 10 560 0 c 0,122,123
 505 -8 505 -8 474 -4 c 0,0,1
558 129 m 0,124,125
 585 137 585 137 621.5 165 c 128,-1,126
 658 193 658 193 677 223 c 0,127,128
 683 237 683 237 687 236.5 c 128,-1,129
 691 236 691 236 705 262 c 0,130,131
 715 282 715 282 722 289 c 0,132,133
 724 291 724 291 736 318 c 0,134,135
 744 341 744 341 748 342 c 0,136,137
 756 346 756 346 771 435 c 0,138,139
 775 449 775 449 777 451 c 0,140,141
 785 457 785 457 785 591.5 c 128,-1,142
 785 726 785 726 777 732 c 0,143,144
 775 734 775 734 771 746 c 0,145,146
 763 783 763 783 738 812 c 0,147,148
 730 820 730 820 730 824 c 128,-1,149
 730 828 730 828 704.5 844.5 c 128,-1,150
 679 861 679 861 658 869 c 0,151,152
 603 890 603 890 543 853 c 0,153,154
 494 824 494 824 453 786 c 128,-1,155
 412 748 412 748 398 726 c 0,156,157
 396 724 396 724 394 720 c 0,158,159
 392 714 392 714 390 715 c 0,160,161
 386 715 386 715 377 695 c 0,162,163
 367 679 367 679 361 674 c 0,164,165
 351 664 351 664 336 627 c 0,166,167
 328 613 328 613 328 613 c 2,168,169
 324 609 324 609 314 568 c 0,170,171
 312 560 312 560 309.5 546.5 c 128,-1,172
 307 533 307 533 305 527 c 2,173,-1
 303 521 l 2,174,175
 301 521 301 521 293 484 c 0,176,177
 273 382 273 382 293 310 c 0,178,179
 297 290 297 290 303 285 c 0,180,181
 305 285 305 285 314 264 c 0,182,183
 326 239 326 239 330 238 c 0,184,185
 332 238 332 238 340 226 c 0,186,187
 371 179 371 179 435 146 c 0,188,189
 497 113 497 113 558 129 c 0,124,125
EndSplineSet
Validated: 33
EndChar

StartChar: b
Encoding: 98 98 65
Width: 1138
GlyphClass: 1
Flags: W
LayerCount: 2
Fore
SplineSet
525 -2 m 0,0,1
 443 6 443 6 365 56.5 c 128,-1,2
 287 107 287 107 238 182 c 0,3,4
 183 268 183 268 158 349 c 0,5,6
 127 449 127 449 119 553 c 0,7,8
 107 688 107 688 138.5 866 c 128,-1,9
 170 1044 170 1044 258 1345 c 0,10,11
 279 1417 279 1417 289 1419 c 0,12,13
 295 1421 295 1421 297 1412 c 0,14,15
 299 1404 299 1404 297 1386 c 0,16,17
 289 1296 289 1296 275 1103 c 0,18,19
 271 1021 271 1021 266 974 c 0,20,21
 258 839 258 839 266 750 c 0,22,23
 274 631 274 631 283 592 c 0,24,25
 287 584 287 584 301 599 c 0,26,27
 319 620 319 620 404 685 c 0,28,29
 441 710 441 710 469 726 c 0,30,31
 551 773 551 773 594 785 c 0,32,33
 727 826 727 826 849 818 c 0,34,35
 876 816 876 816 898 806 c 0,36,37
 935 790 935 790 961 769 c 0,38,39
 998 736 998 736 1007.5 696 c 128,-1,40
 1017 656 1017 656 1013 560 c 0,41,42
 1011 484 1011 484 994 410 c 0,43,44
 939 185 939 185 804 82 c 0,45,46
 673 -18 673 -18 525 -2 c 0,0,1
668 184 m 0,47,48
 697 194 697 194 718 203 c 1,49,50
 753 226 753 226 793 283 c 0,51,52
 826 330 826 330 851.5 427.5 c 128,-1,53
 877 525 877 525 872 574 c 128,-1,54
 867 623 867 623 828 646 c 0,55,56
 723 714 723 714 447 574 c 1,57,58
 422 556 422 556 408 547 c 0,59,60
 312 473 312 473 312 469 c 0,61,62
 320 430 320 430 385 318 c 0,63,64
 436 230 436 230 492 201 c 0,65,66
 547 174 547 174 599 174 c 0,67,68
 629 174 629 174 668 184 c 0,47,48
EndSplineSet
Validated: 33
EndChar

StartChar: c
Encoding: 99 99 66
Width: 944
GlyphClass: 1
Flags: W
LayerCount: 2
Fore
SplineSet
490 -6 m 0,0,1
 424 -2 424 -2 357 31 c 0,2,3
 287 66 287 66 226.5 141.5 c 128,-1,4
 166 217 166 217 137 307 c 0,5,6
 116 375 116 375 117 490 c 0,7,8
 119 543 119 543 131 586 c 0,9,10
 168 742 168 742 232 826 c 0,11,12
 302 920 302 920 383 959 c 0,13,14
 410 975 410 975 471 992 c 0,15,16
 489 998 489 998 529 998 c 0,17,18
 621 998 621 998 703 972 c 0,19,20
 789 945 789 945 818 914 c 0,21,22
 857 867 857 867 841 853 c 0,23,24
 827 843 827 843 793 861 c 0,25,26
 727 894 727 894 584 877 c 0,27,28
 508 867 508 867 467 832 c 0,29,30
 354 736 354 736 326 599 c 0,31,32
 305 484 305 484 326 353 c 0,33,34
 336 300 336 300 359.5 267 c 128,-1,35
 383 234 383 234 447 185 c 0,36,37
 513 138 513 138 560 125 c 0,38,39
 634 104 634 104 693 113 c 0,40,41
 697 113 697 113 715.5 115 c 128,-1,42
 734 117 734 117 738 119 c 0,43,44
 744 121 744 121 761.5 123 c 128,-1,45
 779 125 779 125 785 125 c 0,46,47
 808 131 808 131 816 127 c 0,48,49
 822 123 822 123 810 105 c 0,50,51
 802 93 802 93 799 86 c 0,52,53
 779 53 779 53 726 27 c 0,54,55
 697 15 697 15 640 2 c 0,56,57
 591 -8 591 -8 554 -8 c 0,58,59
 504 -8 504 -8 490 -6 c 0,0,1
EndSplineSet
Validated: 33
EndChar

StartChar: d
Encoding: 100 100 67
Width: 1147
GlyphClass: 1
Flags: W
LayerCount: 2
Fore
SplineSet
582 -2 m 0,0,1
 457 14 457 14 349 105 c 0,2,3
 281 164 281 164 219 238 c 0,4,5
 217 242 217 242 199.5 264.5 c 128,-1,6
 182 287 182 287 170 305 c 0,7,8
 121 379 121 379 110.5 415 c 128,-1,9
 100 451 100 451 113 488 c 0,10,11
 123 515 123 515 141.5 545.5 c 128,-1,12
 160 576 160 576 166 578 c 128,-1,13
 172 580 172 580 184 599 c 0,14,15
 246 685 246 685 361 711 c 2,16,-1
 431 728 l 2,17,18
 556 757 556 757 611 756 c 0,19,20
 714 748 714 748 791 718 c 0,21,22
 812 708 812 708 808 724 c 0,23,24
 804 755 804 755 804 771 c 0,25,26
 804 796 804 796 800 836 c 0,27,28
 800 842 800 842 795.5 892.5 c 128,-1,29
 791 943 791 943 789 974 c 0,30,31
 785 1068 785 1068 783 1080 c 0,32,33
 775 1139 775 1139 773 1207 c 0,34,35
 765 1391 765 1391 761 1406 c 0,36,37
 761 1410 761 1410 765 1410 c 0,38,39
 779 1408 779 1408 799 1351 c 0,40,41
 824 1281 824 1281 843 1212 c 0,42,43
 847 1194 847 1194 861 1152.5 c 128,-1,44
 875 1111 875 1111 877 1107 c 0,45,46
 902 1019 902 1019 923 923 c 0,47,48
 925 911 925 911 932 886 c 128,-1,49
 939 861 939 861 944 842.5 c 128,-1,50
 949 824 949 824 949 818 c 0,51,52
 953 800 953 800 978 713 c 0,53,54
 1019 580 1019 580 1021 488 c 0,55,56
 1023 404 1023 404 1013 328 c 0,57,58
 992 185 992 185 914 102 c 0,59,60
 838 20 838 20 718 0 c 0,61,62
 648 -12 648 -12 582 -2 c 0,0,1
635 144 m 0,63,64
 637 144 637 144 640.5 145 c 128,-1,65
 644 146 644 146 644 146 c 2,66,67
 650 146 650 146 668 152 c 0,68,69
 746 173 746 173 802 262 c 0,70,71
 820 289 820 289 824 328 c 0,72,73
 828 363 828 363 826 441 c 0,74,75
 820 550 820 550 812 568 c 0,76,77
 810 576 810 576 802 576 c 0,78,79
 800 576 800 576 742 582 c 0,80,81
 613 598 613 598 531 582 c 0,82,83
 519 578 519 578 510 578 c 0,84,85
 362 555 362 555 301 476 c 0,86,87
 270 441 270 441 285.5 393.5 c 128,-1,88
 301 346 301 346 373 273 c 0,89,90
 473 173 473 173 554 152 c 0,91,92
 617 134 617 134 635 144 c 0,63,64
EndSplineSet
Validated: 33
EndChar

StartChar: e
Encoding: 101 101 68
Width: 1097
GlyphClass: 1
Flags: W
LayerCount: 2
Fore
SplineSet
553 12 m 0,0,1
 393 35 393 35 301 90 c 0,2,3
 240 127 240 127 187.5 206 c 128,-1,4
 135 285 135 285 121 367 c 0,5,6
 107 431 107 431 119 523 c 128,-1,7
 131 615 131 615 164 683 c 0,8,9
 209 788 209 788 346 900 c 0,10,11
 348 902 348 902 365.5 915.5 c 128,-1,12
 383 929 383 929 387 933 c 0,13,14
 414 956 414 956 463 976 c 0,15,16
 559 1013 559 1013 646 1015 c 0,17,18
 724 1017 724 1017 810 984 c 0,19,20
 910 943 910 943 951 859 c 0,21,22
 971 820 971 820 970 758 c 0,23,24
 970 678 970 678 941 619 c 0,25,26
 918 572 918 572 879 535 c 0,27,28
 725 383 725 383 529 351 c 0,29,30
 404 330 404 330 303 369 c 1,31,-1
 283 375 l 1,32,-1
 285 365 l 2,33,34
 291 349 291 349 301 332 c 0,35,36
 328 281 328 281 399.5 231.5 c 128,-1,37
 471 182 471 182 541 164 c 0,38,39
 574 156 574 156 664 156 c 0,40,41
 758 156 758 156 806 178 c 0,42,43
 839 194 839 194 879 207 c 0,44,45
 914 219 914 219 939 238 c 0,46,47
 943 242 943 242 951 247 c 128,-1,48
 959 252 959 252 961 254 c 2,49,-1
 968 260 l 1,50,-1
 972 248 l 2,51,52
 980 221 980 221 948 172 c 128,-1,53
 916 123 916 123 863 82 c 0,54,55
 740 -11 740 -11 553 12 c 0,0,1
312 437 m 0,56,57
 318 437 318 437 334.5 439 c 128,-1,58
 351 441 351 441 357 443 c 0,59,60
 451 455 451 455 594 517 c 0,61,62
 680 554 680 554 736 611 c 0,63,64
 759 634 759 634 777 666 c 0,65,66
 797 707 797 707 795 759 c 0,67,68
 793 823 793 823 736 838 c 0,69,70
 636 863 636 863 554 841 c 0,71,72
 503 827 503 827 408 744 c 0,73,74
 338 682 338 682 305.5 634 c 128,-1,75
 273 586 273 586 264 525 c 0,76,77
 258 486 258 486 260 445 c 0,78,79
 260 439 260 439 266 437 c 0,80,81
 289 431 289 431 312 437 c 0,56,57
EndSplineSet
Validated: 33
EndChar

StartChar: f
Encoding: 102 102 69
Width: 823
GlyphClass: 1
Flags: W
LayerCount: 2
Fore
SplineSet
262 -4 m 0,0,1
 227 12 227 12 208 54 c 128,-1,2
 189 96 189 96 172 195 c 0,3,4
 156 285 156 285 148 381 c 0,5,6
 132 565 132 565 128.5 753 c 128,-1,7
 125 941 125 941 133 984 c 0,8,9
 137 1002 137 1002 141 1044 c 0,10,11
 151 1146 151 1146 184 1214 c 0,12,13
 217 1278 217 1278 297 1341 c 0,14,15
 342 1374 342 1374 396 1396 c 0,16,17
 451 1416 451 1416 469 1417 c 0,18,19
 528 1423 528 1423 592 1413 c 0,20,21
 653 1407 653 1407 717 1371 c 0,22,23
 733 1361 733 1361 742 1339 c 0,24,25
 765 1292 765 1292 763 1283 c 0,26,27
 763 1279 763 1279 742 1279 c 0,28,29
 730 1279 730 1279 712.5 1280 c 128,-1,30
 695 1281 695 1281 693 1281 c 0,31,32
 648 1281 648 1281 619 1279 c 0,33,34
 568 1277 568 1277 525 1265 c 0,35,36
 464 1251 464 1251 437 1240 c 0,37,38
 394 1222 394 1222 353 1181 c 1,39,40
 337 1158 337 1158 328 1134 c 0,41,42
 314 1103 314 1103 307 1039 c 0,43,44
 289 916 289 916 289 900 c 0,45,46
 289 894 289 894 375 892 c 0,47,48
 451 890 451 890 480 882 c 0,49,50
 486 882 486 882 494 880.5 c 128,-1,51
 502 879 502 879 509.5 876 c 128,-1,52
 517 873 517 873 519 873 c 0,53,54
 537 871 537 871 564 859 c 0,55,56
 625 832 625 832 638 814 c 0,57,58
 642 810 642 810 641 803.5 c 128,-1,59
 640 797 640 797 635 795 c 0,60,61
 610 779 610 779 476 758 c 0,62,63
 390 744 390 744 330 738 c 0,64,65
 281 734 281 734 279 732 c 0,66,67
 275 728 275 728 275 656 c 0,68,69
 271 424 271 424 305 234 c 0,70,71
 330 74 330 74 314 31 c 0,72,73
 308 10 308 10 277 -4 c 0,74,75
 268 -8 268 -8 262 -4 c 0,0,1
EndSplineSet
Validated: 33
EndChar

StartChar: g
Encoding: 103 103 70
Width: 1024
GlyphClass: 1
Flags: W
LayerCount: 2
Fore
SplineSet
213 -431 m 0,0,1
 180 -423 180 -423 168 -418 c 0,2,3
 164 -416 164 -416 158 -414 c 0,4,5
 148 -410 148 -410 152 -406 c 0,6,7
 156 -404 156 -404 165 -400 c 128,-1,8
 174 -396 174 -396 197.5 -387.5 c 128,-1,9
 221 -379 221 -379 248 -367 c 0,10,11
 271 -357 271 -357 322 -332 c 0,12,13
 420 -283 420 -283 439 -271 c 0,14,15
 455 -261 455 -261 480.5 -245.5 c 128,-1,16
 506 -230 506 -230 512 -226 c 0,17,18
 526 -218 526 -218 546 -200 c 128,-1,19
 566 -182 566 -182 590.5 -158.5 c 128,-1,20
 615 -135 615 -135 619 -131 c 0,21,22
 660 -92 660 -92 681.5 -55 c 128,-1,23
 703 -18 703 -18 726 53 c 0,24,25
 738 88 738 88 738 107 c 0,26,27
 738 123 738 123 735 134.5 c 128,-1,28
 732 146 732 146 727 156 c 128,-1,29
 722 166 722 166 720 170 c 0,30,31
 718 176 718 176 713 168 c 0,32,33
 660 94 660 94 594 55 c 0,34,35
 485 -11 485 -11 379 10 c 0,36,37
 318 24 318 24 256.5 77.5 c 128,-1,38
 195 131 195 131 162 195 c 0,39,40
 127 267 127 267 115 330 c 0,41,42
 101 402 101 402 141 519 c 0,43,44
 166 593 166 593 217 668 c 0,45,46
 219 672 219 672 232.5 692.5 c 128,-1,47
 246 713 246 713 250 717 c 0,48,49
 311 803 311 803 408 869 c 0,50,51
 431 885 431 885 437 904 c 0,52,53
 460 961 460 961 486 990 c 2,54,-1
 504 1009 l 1,55,-1
 525 1007 l 2,56,57
 562 1005 562 1005 599 970 c 0,58,59
 638 935 638 935 670 877 c 0,60,61
 709 811 709 811 713 804 c 0,62,63
 807 652 807 652 863 506 c 0,64,65
 890 430 890 430 898 369 c 0,66,67
 912 258 912 258 900 197 c 0,68,69
 896 172 896 172 892 129 c 0,70,71
 888 72 888 72 882 39 c 0,72,73
 880 27 880 27 878.5 2 c 128,-1,74
 877 -23 877 -23 874 -40 c 128,-1,75
 871 -57 871 -57 863 -70 c 0,76,77
 861 -74 861 -74 845.5 -103.5 c 128,-1,78
 830 -133 830 -133 816 -156.5 c 128,-1,79
 802 -180 802 -180 795 -184 c 0,80,81
 781 -190 781 -190 756 -219 c 0,82,83
 639 -350 639 -350 486 -392 c 0,84,85
 363 -425 363 -425 271 -433 c 0,86,87
 242 -437 242 -437 213 -431 c 0,0,1
441 174 m 0,88,89
 457 178 457 178 498 195 c 1,90,91
 529 213 529 213 556 240 c 0,92,93
 615 302 615 302 644 369 c 0,94,95
 656 394 656 394 660 418 c 0,96,97
 678 506 678 506 660 574 c 0,98,99
 642 635 642 635 625 662 c 0,100,101
 623 664 623 664 597 701 c 0,102,103
 572 732 572 732 572 738 c 0,104,105
 570 740 570 740 565 739 c 128,-1,106
 560 738 560 738 532 725.5 c 128,-1,107
 504 713 504 713 455 689 c 0,108,109
 406 668 406 668 391.5 657 c 128,-1,110
 377 646 377 646 357 619 c 0,111,112
 293 537 293 537 271 471 c 0,113,114
 257 434 257 434 256 396 c 0,115,116
 254 337 254 337 271 301 c 0,117,118
 294 250 294 250 338.5 210 c 128,-1,119
 383 170 383 170 408 170 c 0,120,121
 421 170 421 170 441 174 c 0,88,89
EndSplineSet
Validated: 33
EndChar

StartChar: h
Encoding: 104 104 71
Width: 1169
GlyphClass: 1
Flags: W
LayerCount: 2
Fore
SplineSet
966 -6 m 0,0,1
 952 2 952 2 945 39 c 0,2,3
 941 55 941 55 939 57 c 0,4,5
 933 67 933 67 931 90 c 0,6,7
 925 123 925 123 922 148 c 0,8,9
 908 238 908 238 902 281 c 0,10,11
 884 408 884 408 838 510 c 0,12,13
 748 699 748 699 664 738 c 0,14,15
 633 754 633 754 576 754 c 0,16,17
 521 754 521 754 488 736 c 0,18,19
 422 701 422 701 371 597 c 0,20,21
 359 572 359 572 345.5 540 c 128,-1,22
 332 508 332 508 328 500 c 0,23,24
 322 488 322 488 317 459 c 128,-1,25
 312 430 312 430 305 404 c 0,26,27
 297 373 297 373 291 361 c 0,28,29
 268 300 268 300 260 236 c 0,30,31
 256 209 256 209 252 193 c 0,32,33
 244 175 244 175 238 121 c 0,34,35
 230 57 230 57 221 31 c 0,36,37
 203 -14 203 -14 162 -8 c 0,38,39
 148 -6 148 -6 143.5 6 c 128,-1,40
 139 18 139 18 136 75.5 c 128,-1,41
 133 133 133 133 141 252 c 0,42,43
 147 369 147 369 152 414 c 0,44,45
 164 492 164 492 158 644 c 0,46,47
 152 742 152 742 160 1099 c 0,48,49
 162 1169 162 1169 166 1246 c 0,50,51
 178 1453 178 1453 158 1542 c 0,52,53
 152 1571 152 1571 162 1572 c 0,54,55
 185 1572 185 1572 213 1484 c 0,56,57
 215 1478 215 1478 234 1425 c 0,58,59
 265 1343 265 1343 260 1330 c 0,60,61
 258 1326 258 1326 269 1265 c 0,62,63
 310 1068 310 1068 310 976 c 0,64,65
 310 955 310 955 318 912 c 2,66,-1
 326 879 l 1,67,-1
 336 888 l 2,68,69
 350 902 350 902 412 925 c 0,70,71
 480 948 480 948 504 951 c 0,72,73
 615 961 615 961 711 923 c 0,74,75
 777 898 777 898 855 820 c 0,76,77
 939 736 939 736 968 650 c 0,78,79
 982 611 982 611 992 594 c 0,80,81
 1027 512 1027 512 1035 431 c 0,82,83
 1043 367 1043 367 1043 260.5 c 128,-1,84
 1043 154 1043 154 1035 113 c 0,85,86
 1031 101 1031 101 1027 53 c 0,87,88
 1021 0 1021 0 1005 -8 c 0,89,90
 986 -18 986 -18 966 -6 c 0,0,1
EndSplineSet
Validated: 33
EndChar

StartChar: i
Encoding: 105 105 72
Width: 482
GlyphClass: 1
Flags: W
LayerCount: 2
Fore
SplineSet
187 14 m 0,0,1
 160 28 160 28 146 74 c 0,2,3
 140 86 140 86 141 98 c 0,4,5
 125 160 125 160 125 275 c 0,6,7
 125 363 125 363 139 439 c 0,8,9
 153 507 153 507 152 539 c 0,10,11
 152 572 152 572 162 609 c 0,12,13
 174 656 174 656 176 668 c 0,14,15
 190 723 190 723 191 728 c 0,16,17
 199 751 199 751 199 761 c 0,18,19
 201 771 201 771 226 828 c 0,20,21
 246 875 246 875 246 878.5 c 128,-1,22
 246 882 246 882 254 888 c 128,-1,23
 262 894 262 894 267 894 c 0,24,25
 285 894 285 894 291 855 c 0,26,27
 295 832 295 832 299 826 c 0,28,29
 303 816 303 816 307 763 c 0,30,31
 313 706 313 706 312 703 c 0,32,33
 318 680 318 680 318 570 c 0,34,35
 318 519 318 519 324 373 c 0,36,37
 328 248 328 248 326 158 c 0,38,39
 326 125 326 125 320 105 c 0,40,41
 300 41 300 41 260 16 c 0,42,43
 226 -6 226 -6 187 14 c 0,0,1
213 1082 m 0,44,45
 182 1092 182 1092 173 1124 c 128,-1,46
 164 1156 164 1156 182 1208 c 1,47,48
 190 1216 190 1216 189 1230 c 1,49,50
 195 1248 195 1248 218.5 1266.5 c 128,-1,51
 242 1285 242 1285 260 1289 c 0,52,53
 281 1295 281 1295 312 1285 c 0,54,55
 328 1279 328 1279 344.5 1260.5 c 128,-1,56
 361 1242 361 1242 365 1226 c 0,57,58
 377 1187 377 1187 335 1134.5 c 128,-1,59
 293 1082 293 1082 242 1078 c 0,60,61
 225 1078 225 1078 213 1082 c 0,44,45
EndSplineSet
Validated: 33
EndChar

StartChar: j
Encoding: 106 106 73
Width: 755
GlyphClass: 1
Flags: W
LayerCount: 2
Fore
SplineSet
78 -236 m 0,0,1
 72 -232 72 -232 86 -223 c 0,2,3
 127 -194 127 -194 162 -158.5 c 128,-1,4
 197 -123 197 -123 232 -72 c 0,5,6
 275 -11 275 -11 297 10 c 0,7,8
 359 86 359 86 412 219 c 0,9,10
 449 313 449 313 453 375 c 0,11,12
 457 432 457 432 453 453 c 0,13,14
 447 484 447 484 445 547 c 0,15,16
 439 676 439 676 424 767 c 0,17,18
 420 788 420 788 414 838 c 0,19,20
 414 840 414 840 411 866 c 128,-1,21
 408 892 408 892 406 906 c 0,22,23
 400 931 400 931 400 953 c 0,24,25
 400 969 400 969 394 992 c 0,26,27
 388 1013 388 1013 388.5 1028 c 128,-1,28
 389 1043 389 1043 393.5 1046.5 c 128,-1,29
 398 1050 398 1050 409 1040 c 256,30,31
 420 1030 420 1030 433 1004 c 0,32,33
 464 951 464 951 492 867 c 0,34,35
 513 797 513 797 543 750 c 0,36,37
 557 729 557 729 574 654 c 0,38,39
 584 609 584 609 592 592 c 0,40,41
 617 531 617 531 628.5 440 c 128,-1,42
 640 349 640 349 631 273 c 0,43,44
 617 162 617 162 574 94 c 0,45,46
 517 10 517 10 418 -82 c 0,47,48
 379 -117 379 -117 315.5 -163 c 128,-1,49
 252 -209 252 -209 234 -213 c 0,50,51
 232 -213 232 -213 225.5 -217 c 128,-1,52
 219 -221 219 -221 217 -221 c 0,53,54
 199 -231 199 -231 141.5 -236.5 c 128,-1,55
 84 -242 84 -242 78 -236 c 0,0,1
271 1117 m 0,56,57
 248 1125 248 1125 223.5 1157 c 128,-1,58
 199 1189 199 1189 199 1212 c 0,59,60
 199 1237 199 1237 232.5 1275.5 c 128,-1,61
 266 1314 266 1314 307 1333 c 0,62,63
 371 1362 371 1362 406 1326 c 0,64,65
 437 1293 437 1293 425.5 1241 c 128,-1,66
 414 1189 414 1189 367 1150 c 0,67,68
 310 1103 310 1103 271 1117 c 0,56,57
EndSplineSet
Validated: 33
EndChar

StartChar: k
Encoding: 107 107 74
Width: 882
GlyphClass: 1
Flags: W
LayerCount: 2
Fore
SplineSet
225 6 m 0,0,1
 205 12 205 12 185.5 29.5 c 128,-1,2
 166 47 166 47 162 61 c 0,3,4
 156 79 156 79 156 96 c 0,5,6
 156 106 156 106 164 289 c 0,7,8
 170 433 170 433 168 465 c 0,9,10
 166 483 166 483 166 549 c 128,-1,11
 166 615 166 615 162 664 c 0,12,13
 152 752 152 752 152 810 c 0,14,15
 152 915 152 915 135 1056 c 0,16,17
 117 1187 117 1187 119 1347 c 0,18,19
 119 1441 119 1441 127 1460 c 0,20,21
 131 1472 131 1472 148 1441 c 0,22,23
 152 1431 152 1431 158 1419 c 0,24,25
 224 1288 224 1288 275 1017 c 0,26,27
 300 890 300 890 305 881 c 0,28,29
 305 879 305 879 306.5 880 c 128,-1,30
 308 881 308 881 312 888.5 c 128,-1,31
 316 896 316 896 322 906 c 128,-1,32
 328 916 328 916 340 935 c 0,33,34
 365 978 365 978 387 1011 c 0,35,36
 399 1031 399 1031 412.5 1052.5 c 128,-1,37
 426 1074 426 1074 432.5 1083.5 c 128,-1,38
 439 1093 439 1093 441 1099 c 0,39,40
 445 1107 445 1107 454 1119.5 c 128,-1,41
 463 1132 463 1132 480.5 1164.5 c 128,-1,42
 498 1197 498 1197 523 1248 c 0,43,44
 531 1264 531 1264 535 1269 c 0,45,46
 564 1322 564 1322 556 1255 c 0,47,48
 554 1230 554 1230 547 1185 c 0,49,50
 541 1154 541 1154 531 1115 c 128,-1,51
 521 1076 521 1076 512 1029 c 0,52,53
 502 986 502 986 490 923 c 0,54,55
 480 861 480 861 463 820 c 2,56,-1
 426 738 l 1,57,-1
 457 713 l 1,58,59
 551 629 551 629 619 512 c 0,60,61
 685 393 685 393 726 299 c 0,62,63
 783 162 783 162 783 105 c 0,64,65
 783 76 783 76 756.5 52.5 c 128,-1,66
 730 29 730 29 695 29 c 0,67,68
 666 29 666 29 633 62 c 0,69,70
 619 76 619 76 613 96 c 0,71,72
 537 346 537 346 389 558 c 0,73,74
 381 570 381 570 375 579 c 128,-1,75
 369 588 369 588 362 596.5 c 128,-1,76
 355 605 355 605 351 609 c 2,77,-1
 346 615 l 1,78,79
 348 607 348 607 348 603 c 0,80,81
 352 589 352 589 345 515 c 128,-1,82
 338 441 338 441 342 400 c 0,83,84
 346 396 346 396 342 316 c 128,-1,85
 338 236 338 236 338 185 c 1,86,-1
 328 66 l 1,87,-1
 318 49 l 2,88,89
 304 24 304 24 276 11 c 128,-1,90
 248 -2 248 -2 225 6 c 0,0,1
EndSplineSet
Validated: 33
EndChar

StartChar: l
Encoding: 108 108 75
Width: 642
GlyphClass: 1
Flags: W
LayerCount: 2
Fore
SplineSet
539 -47 m 2,0,1
 560 -70 560 -70 513 -86 c 0,2,3
 449 -106 449 -106 377 -76 c 0,4,5
 356 -66 356 -66 336 -51 c 0,6,7
 330 -45 330 -45 299.5 -24.5 c 128,-1,8
 269 -4 269 -4 250 12 c 0,9,10
 225 33 225 33 199 74 c 0,11,12
 160 140 160 140 146 203 c 0,13,14
 123 301 123 301 139 556 c 0,15,16
 141 591 141 591 146 679 c 0,17,18
 152 800 152 800 172 920 c 0,19,20
 180 955 180 955 185 1027 c 0,21,22
 191 1088 191 1088 203 1154 c 0,23,24
 219 1226 219 1226 228 1290 c 0,25,26
 253 1448 253 1448 307 1525 c 0,27,28
 350 1584 350 1584 359 1556 c 0,29,30
 371 1515 371 1515 357 1345 c 0,31,32
 353 1308 353 1308 349 1160 c 0,33,34
 345 1066 345 1066 342 1031 c 0,35,36
 340 1019 340 1019 336 933 c 0,37,38
 336 917 336 917 334 899 c 128,-1,39
 332 881 332 881 330 869 c 128,-1,40
 328 857 328 857 328 855 c 0,41,42
 326 837 326 837 327 688 c 128,-1,43
 328 539 328 539 332 476 c 0,44,45
 334 458 334 458 332 431 c 128,-1,46
 330 404 330 404 330 387 c 0,47,48
 330 295 330 295 343.5 233.5 c 128,-1,49
 357 172 357 172 373 144.5 c 128,-1,50
 389 117 389 117 435 51 c 1,51,-1
 539 -47 l 2,0,1
EndSplineSet
Validated: 33
EndChar

StartChar: m
Encoding: 109 109 76
Width: 1380
GlyphClass: 1
Flags: W
LayerCount: 2
Fore
SplineSet
256 20 m 2,0,-1
 238 25 l 1,1,-1
 213 72 l 2,2,3
 160 166 160 166 144 236 c 0,4,5
 121 336 121 336 119 387 c 0,6,7
 113 549 113 549 158 744 c 0,8,9
 166 781 166 781 177.5 808.5 c 128,-1,10
 189 836 189 836 199 859 c 0,11,12
 209 886 209 886 234 916 c 0,13,14
 238 920 238 920 249 931.5 c 128,-1,15
 260 943 260 943 264 947 c 0,16,17
 301 992 301 992 332 1013 c 0,18,19
 365 1034 365 1034 420.5 1033.5 c 128,-1,20
 476 1033 476 1033 523 1011 c 0,21,22
 568 988 568 988 613 896 c 0,23,24
 638 845 638 845 638 843 c 0,25,26
 638 837 638 837 650 825.5 c 128,-1,27
 662 814 662 814 677 814 c 2,28,-1
 695 814 l 1,29,-1
 711 838 l 1,30,31
 711 838 711 838 734 877 c 0,32,33
 757 918 757 918 773 939 c 0,34,35
 808 988 808 988 841.5 1001.5 c 128,-1,36
 875 1015 875 1015 968 1015 c 0,37,38
 984 1015 984 1015 996 1011 c 0,39,40
 1033 997 1033 997 1064 976 c 0,41,42
 1091 958 1091 958 1139 905.5 c 128,-1,43
 1187 853 1187 853 1201 824 c 0,44,45
 1213 797 1213 797 1230 707 c 2,46,-1
 1249 613 l 1,47,-1
 1248 492 l 2,48,49
 1248 211 1248 211 1199 113 c 0,50,51
 1168 54 1168 54 1136 27 c 0,52,53
 1130 21 1130 21 1126.5 25 c 128,-1,54
 1123 29 1123 29 1121 45 c 0,55,56
 1111 84 1111 84 1107 250 c 0,57,58
 1101 424 1101 424 1091 459 c 0,59,60
 1089 465 1089 465 1087 477.5 c 128,-1,61
 1085 490 1085 490 1082.5 509.5 c 128,-1,62
 1080 529 1080 529 1078 543 c 0,63,64
 1058 664 1058 664 1037 718 c 0,65,66
 1016 779 1016 779 1005 783 c 2,67,68
 1005 783 1005 783 1001.5 784 c 128,-1,69
 998 785 998 785 990 787 c 128,-1,70
 982 789 982 789 974 791 c 0,71,72
 954 795 954 795 945 791 c 0,73,74
 873 768 873 768 843 738 c 0,75,76
 833 728 833 728 818 685 c 0,77,78
 798 626 798 626 783 597 c 0,79,80
 779 589 779 589 767 572 c 0,81,82
 757 552 757 552 754 553 c 2,83,84
 754 553 754 553 751 551 c 128,-1,85
 748 549 748 549 744 545 c 128,-1,86
 740 541 740 541 736 539 c 0,87,88
 703 510 703 510 677 510 c 0,89,90
 661 510 661 510 633 519 c 0,91,92
 606 529 606 529 595 541.5 c 128,-1,93
 584 554 584 554 566 597 c 0,94,95
 511 734 511 734 476 775 c 0,96,97
 462 796 462 796 437 810 c 0,98,99
 404 831 404 831 367 808 c 0,100,101
 322 783 322 783 301 677 c 1,102,103
 281 603 281 603 269 500 c 0,104,105
 263 449 263 449 266 418 c 0,106,107
 270 375 270 375 269 246 c 0,108,109
 269 129 269 129 273 98 c 0,110,111
 273 94 273 94 274 84 c 128,-1,112
 275 74 275 74 277 59.5 c 128,-1,113
 279 45 279 45 279 37 c 0,114,115
 281 16 281 16 278.5 14 c 128,-1,116
 276 12 276 12 256 20 c 2,0,-1
EndSplineSet
Validated: 33
EndChar

StartChar: n
Encoding: 110 110 77
Width: 1241
GlyphClass: 1
Flags: W
LayerCount: 2
Fore
SplineSet
1003.5 -4 m 128,-1,1
 988 4 988 4 974 66 c 0,2,3
 947 193 947 193 939 285 c 0,4,5
 927 422 927 422 873 539 c 0,6,7
 836 621 836 621 761 713 c 0,8,9
 728 754 728 754 685 773 c 2,10,-1
 650 789 l 1,11,-1
 601 800 l 1,12,-1
 553 793 l 1,13,-1
 531 777 l 2,14,15
 494 750 494 750 445 677 c 0,16,17
 404 613 404 613 359 492 c 0,18,19
 316 375 316 375 307 328 c 0,20,21
 301 295 301 295 293 273 c 2,22,23
 293 273 293 273 286 254.5 c 128,-1,24
 279 236 279 236 270.5 210.5 c 128,-1,25
 262 185 262 185 254 156 c 0,26,27
 252 150 252 150 242 116 c 128,-1,28
 232 82 232 82 230 78 c 0,29,30
 209 6 209 6 199 0 c 0,31,32
 187 -12 187 -12 154 2 c 0,33,34
 142 6 142 6 133 27 c 2,35,-1
 121 47 l 1,36,-1
 125 127 l 1,37,38
 129 482 129 482 189 627 c 0,39,40
 212 682 212 682 221 705 c 0,41,42
 246 779 246 779 283 836 c 0,43,44
 330 900 330 900 363 931.5 c 128,-1,45
 396 963 396 963 441 980 c 0,46,47
 496 1001 496 1001 576 1000 c 0,48,49
 676 996 676 996 745 962.5 c 128,-1,50
 814 929 814 929 882 857 c 0,51,52
 960 777 960 777 1000 670 c 0,53,54
 1004 662 1004 662 1009.5 642.5 c 128,-1,55
 1015 623 1015 623 1017 619 c 0,56,57
 1048 537 1048 537 1056 484 c 0,58,59
 1062 447 1062 447 1062 279 c 0,60,61
 1062 156 1062 156 1056 127 c 0,62,63
 1056 125 1056 125 1051 98.5 c 128,-1,64
 1046 72 1046 72 1044 62 c 0,65,66
 1034 15 1034 15 1029 2 c 0,67,0
 1019 -12 1019 -12 1003.5 -4 c 128,-1,1
EndSplineSet
Validated: 33
EndChar

StartChar: o
Encoding: 111 111 78
Width: 1105
GlyphClass: 1
Flags: W
LayerCount: 2
Fore
SplineSet
474 0 m 0,0,1
 261 31 261 31 170 170 c 0,2,3
 113 260 113 260 113 383 c 0,4,5
 113 580 113 580 248 750 c 0,6,7
 309 828 309 828 396 892 c 0,8,9
 535 994 535 994 636 1005 c 0,10,11
 739 1019 739 1019 823.5 959.5 c 128,-1,12
 908 900 908 900 945 791 c 0,13,14
 972 703 972 703 980 615 c 0,15,16
 992 476 992 476 935 303 c 0,17,18
 833 4 833 4 568 -6 c 0,19,20
 511 -6 511 -6 474 0 c 0,0,1
558 193 m 0,21,22
 663 226 663 226 717 310 c 0,23,24
 768 384 768 384 793 478 c 0,25,26
 803 515 803 515 806 621 c 0,27,28
 806 637 806 637 806 650.5 c 128,-1,29
 806 664 806 664 805 673.5 c 128,-1,30
 804 683 804 683 801.5 693 c 128,-1,31
 799 703 799 703 798 708 c 128,-1,32
 797 713 797 713 792 722.5 c 128,-1,33
 787 732 787 732 785 735 c 128,-1,34
 783 738 783 738 777 748 c 128,-1,35
 771 758 771 758 769 761 c 0,36,37
 744 802 744 802 721.5 818 c 128,-1,38
 699 834 699 834 656 834 c 0,39,40
 607 834 607 834 512 791 c 0,41,42
 428 756 428 756 349 656 c 0,43,44
 277 564 277 564 256.5 490 c 128,-1,45
 236 416 236 416 258 334 c 0,46,47
 262 316 262 316 267.5 301.5 c 128,-1,48
 273 287 273 287 277 277 c 128,-1,49
 281 267 281 267 291 258.5 c 128,-1,50
 301 250 301 250 304 245 c 128,-1,51
 307 240 307 240 322.5 233 c 128,-1,52
 338 226 338 226 341 225.5 c 128,-1,53
 344 225 344 225 364.5 217 c 128,-1,54
 385 209 385 209 389 207 c 0,55,56
 488 170 488 170 558 193 c 0,21,22
EndSplineSet
Validated: 33
EndChar

StartChar: p
Encoding: 112 112 79
Width: 1112
GlyphClass: 1
Flags: W
LayerCount: 2
Fore
SplineSet
252 -400 m 0,0,1
 228 -387 228 -387 215 -367 c 0,2,3
 213 -364 213 -364 197 -262 c 0,4,5
 187 -201 187 -201 184 -185 c 0,6,7
 178 -158 178 -158 162 0 c 0,8,9
 158 39 158 39 154 102.5 c 128,-1,10
 150 166 150 166 146 212 c 0,11,12
 145 237 145 237 137 295 c 0,13,14
 117 451 117 451 137 576 c 0,15,16
 156 695 156 695 197 742 c 0,17,18
 215 763 215 763 215 765 c 0,19,20
 219 783 219 783 307 841 c 0,21,22
 348 868 348 868 367 873 c 0,23,24
 476 897 476 897 580 875 c 0,25,26
 619 867 619 867 625 855 c 0,27,28
 630 846 630 846 652 836 c 0,29,30
 715 808 715 808 847 676 c 0,31,32
 886 637 886 637 922 582 c 0,33,34
 998 467 998 467 998 418 c 0,35,36
 998 324 998 324 947 273 c 0,37,38
 938 264 938 264 933 256 c 0,39,40
 930 252 930 252 922 240 c 0,41,42
 882 176 882 176 765 129 c 0,43,44
 755 125 755 125 736 117 c 128,-1,45
 717 109 717 109 711 107 c 0,46,47
 651 82 651 82 566 68 c 0,48,49
 459 50 459 50 394 66 c 0,50,51
 378 70 378 70 328 92 c 0,52,53
 310 100 310 100 310 100 c 1,54,55
 308 75 308 75 307 47 c 0,56,57
 306 -8 306 -8 308 -32 c 0,58,59
 310 -70 310 -70 314 -103.5 c 128,-1,60
 318 -137 318 -137 318 -150 c 0,61,62
 318 -181 318 -181 326 -262 c 0,63,64
 340 -391 340 -391 299 -406 c 0,65,66
 277 -414 277 -414 252 -400 c 0,0,1
512 244 m 0,67,68
 580 252 580 252 625 264 c 0,69,70
 728 293 728 293 763 328 c 2,71,-1
 775 340 l 1,72,-1
 773 365 l 2,73,74
 765 482 765 482 664 619 c 0,75,76
 607 693 607 693 562 711 c 0,77,78
 527 725 527 725 498 724 c 0,79,80
 461 724 461 724 422 707 c 0,81,82
 404 699 404 699 365 664 c 0,83,84
 349 648 349 648 334 613 c 2,85,-1
 320 578 l 1,86,-1
 316 504 l 2,87,88
 312 418 312 418 312 359 c 0,89,90
 312 336 312 336 316 328 c 0,91,92
 337 283 337 283 364.5 263.5 c 128,-1,93
 392 244 392 244 445 240 c 1,94,-1
 465 240 l 2,95,96
 469 240 469 240 512 244 c 0,67,68
EndSplineSet
Validated: 33
EndChar

StartChar: q
Encoding: 113 113 80
Width: 1105
GlyphClass: 1
Flags: W
LayerCount: 2
Fore
SplineSet
849.5 -404.5 m 128,-1,1
 873 -393 873 -393 888 -369 c 0,2,3
 900 -348 900 -348 904 -266 c 0,4,5
 910 -186 910 -186 918 -158 c 0,6,7
 924 -131 924 -131 939 27 c 0,8,9
 960 275 960 275 966 318 c 0,10,11
 986 461 986 461 964 599 c 0,12,13
 946 716 946 716 904 765 c 0,14,15
 888 785 888 785 888 787 c 0,16,17
 884 805 884 805 799 863 c 0,18,19
 758 888 758 888 736 894 c 0,20,21
 633 917 633 917 523 896 c 0,22,23
 486 888 486 888 482 876 c 0,24,25
 478 866 478 866 453 857 c 0,26,27
 377 824 377 824 258 699 c 0,28,29
 219 660 219 660 184 605 c 0,30,31
 108 490 108 490 107 443 c 0,32,33
 107 406 107 406 123 346.5 c 128,-1,34
 139 287 139 287 160 259 c 0,35,36
 164 255 164 255 173 241.5 c 128,-1,37
 182 228 182 228 184 224 c 0,38,39
 233 146 233 146 340 115 c 0,40,41
 350 111 350 111 369.5 103 c 128,-1,42
 389 95 389 95 394 93 c 0,43,44
 460 68 460 68 541 54 c 0,45,46
 637 36 637 36 709 52 c 0,47,48
 742 60 742 60 775 78 c 1,49,-1
 795 86 l 1,50,51
 797 45 797 45 797 33 c 0,52,53
 799 -22 799 -22 793 -71.5 c 128,-1,54
 787 -121 787 -121 787 -123 c 0,55,56
 787 -129 787 -129 785 -146.5 c 128,-1,57
 783 -164 783 -164 780 -190.5 c 128,-1,58
 777 -217 777 -217 775 -235 c 0,59,60
 761 -395 761 -395 804 -408 c 0,61,0
 826 -416 826 -416 849.5 -404.5 c 128,-1,1
592 228 m 0,62,63
 539 234 539 234 480 250 c 0,64,65
 425 266 425 266 332 359 c 2,66,-1
 320 371 l 1,67,-1
 322 396 l 2,68,69
 326 455 326 455 352.5 504.5 c 128,-1,70
 379 554 379 554 441 638 c 0,71,72
 500 714 500 714 543 732 c 0,73,74
 582 748 582 748 605 747 c 0,75,76
 636 747 636 747 679 728 c 0,77,78
 700 718 700 718 738 685 c 0,79,80
 750 673 750 673 767 634 c 2,81,-1
 783 601 l 1,82,-1
 787 527 l 2,83,84
 793 398 793 398 793 343 c 0,85,86
 793 322 793 322 787 312 c 0,87,88
 766 267 766 267 738.5 248.5 c 128,-1,89
 711 230 711 230 658 226 c 0,90,91
 640 224 640 224 640 224 c 2,92,93
 635 224 635 224 592 228 c 0,62,63
EndSplineSet
Validated: 41
EndChar

StartChar: r
Encoding: 114 114 81
Width: 728
GlyphClass: 1
Flags: W
LayerCount: 2
Fore
SplineSet
244 18 m 0,0,1
 197 53 197 53 162 236 c 0,2,3
 142 336 142 336 135 443 c 0,4,5
 125 591 125 591 137 676 c 0,6,7
 157 809 157 809 187 881 c 0,8,9
 228 973 228 973 361 1037 c 0,10,11
 418 1064 418 1064 455 1072 c 0,12,13
 486 1080 486 1080 492 1082 c 0,14,15
 510 1088 510 1088 566 1087 c 0,16,17
 650 1087 650 1087 650 1062 c 0,18,19
 650 1046 650 1046 611 1029 c 0,20,21
 484 970 484 970 426 890 c 0,22,23
 401 855 401 855 357.5 771 c 128,-1,24
 314 687 314 687 304.5 654 c 128,-1,25
 295 621 295 621 293 590 c 0,26,27
 287 496 287 496 308 332 c 0,28,29
 329 164 329 164 314 76 c 0,30,31
 304 25 304 25 287 8 c 0,32,33
 273 -5 273 -5 244 18 c 0,0,1
EndSplineSet
Validated: 33
EndChar

StartChar: s
Encoding: 115 115 82
Width: 1013
GlyphClass: 1
Flags: W
LayerCount: 2
Fore
SplineSet
353 4 m 0,0,1
 312 10 312 10 281 18 c 0,2,3
 203 34 203 34 160 76.5 c 128,-1,4
 117 119 117 119 109.5 156 c 128,-1,5
 102 193 102 193 135 207 c 0,6,7
 151 215 151 215 158 215 c 0,8,9
 160 215 160 215 169 213 c 128,-1,10
 178 211 178 211 195.5 207 c 128,-1,11
 213 203 213 203 226 199 c 0,12,13
 345 172 345 172 381 178 c 0,14,15
 387 178 387 178 426 185 c 0,16,17
 549 203 549 203 613 226 c 0,18,19
 646 238 646 238 676 271 c 0,20,21
 688 285 688 285 691 310 c 2,22,-1
 693 336 l 1,23,-1
 679 365 l 2,24,25
 667 386 667 386 656.5 395 c 128,-1,26
 646 404 646 404 607 424 c 0,27,28
 550 451 550 451 520 459 c 128,-1,29
 490 467 490 467 431 469 c 0,30,31
 298 471 298 471 246 498 c 0,32,33
 176 531 176 531 150 611 c 0,34,35
 121 705 121 705 176 810 c 0,36,37
 207 872 207 872 240 905.5 c 128,-1,38
 273 939 273 939 332 966 c 0,39,40
 432 1015 432 1015 549 1015 c 0,41,42
 631 1015 631 1015 742 968 c 0,43,44
 795 947 795 947 818 923 c 0,45,46
 849 892 849 892 849 869 c 0,47,48
 849 859 849 859 855 851 c 0,49,50
 863 833 863 833 854 824.5 c 128,-1,51
 845 816 845 816 828 826 c 1,52,-1
 804 834 l 2,53,54
 800 834 800 834 793.5 837.5 c 128,-1,55
 787 841 787 841 777 846 c 128,-1,56
 767 851 767 851 761 853 c 0,57,58
 704 878 704 878 642 884 c 0,59,60
 624 884 624 884 595 890 c 0,61,62
 554 894 554 894 532 890 c 128,-1,63
 510 886 510 886 465 867 c 2,64,-1
 420 845 l 1,65,-1
 367 799 l 2,66,67
 316 752 316 752 308 734 c 0,68,69
 292 701 292 701 285 640 c 2,70,-1
 283 627 l 1,71,-1
 307 621 l 2,72,73
 362 605 362 605 492 597 c 0,74,75
 613 589 613 589 677 570 c 0,76,77
 784 537 784 537 836 486 c 0,78,79
 856 466 856 466 873 430 c 0,80,81
 898 377 898 377 898 320 c 0,82,83
 898 283 898 283 890 260 c 0,84,85
 870 192 870 192 816 150 c 0,86,87
 769 113 769 113 662 57 c 0,88,89
 621 36 621 36 553 21 c 0,90,91
 427 -2 427 -2 353 4 c 0,0,1
EndSplineSet
Validated: 33
EndChar

StartChar: t
Encoding: 116 116 83
Width: 1001
GlyphClass: 1
Flags: W
LayerCount: 2
Fore
SplineSet
556 2 m 0,0,1
 509 0 509 0 486 23 c 0,2,3
 468 41 468 41 448 105.5 c 128,-1,4
 428 170 428 170 424 211 c 0,5,6
 410 307 410 307 410 340 c 0,7,8
 410 360 410 360 406 414.5 c 128,-1,9
 402 469 402 469 402 478 c 0,10,11
 402 482 402 482 400 516.5 c 128,-1,12
 398 551 398 551 398 576 c 0,13,14
 398 596 398 596 396 670 c 128,-1,15
 394 744 394 744 394 797 c 2,16,-1
 394 961 l 1,17,-1
 351 955 l 2,18,19
 290 947 290 947 199.5 954 c 128,-1,20
 109 961 109 961 90 972 c 0,21,22
 72 984 72 984 84 996 c 0,23,24
 105 1027 105 1027 293 1082 c 0,25,26
 408 1117 408 1117 408 1119 c 0,27,28
 408 1127 408 1127 412 1158 c 0,29,30
 424 1267 424 1267 476 1378 c 0,31,32
 490 1405 490 1405 497 1413 c 128,-1,33
 504 1421 504 1421 508.5 1412.5 c 128,-1,34
 513 1404 513 1404 521 1371 c 0,35,36
 539 1283 539 1283 541 1212 c 2,37,-1
 543 1126 l 1,38,-1
 556 1128 l 2,39,40
 574 1130 574 1130 653 1126.5 c 128,-1,41
 732 1123 732 1123 756 1119 c 0,42,43
 793 1115 793 1115 850.5 1087.5 c 128,-1,44
 908 1060 908 1060 918 1044 c 0,45,46
 924 1030 924 1030 892 1017 c 0,47,48
 845 992 845 992 734 984 c 1,49,50
 566 963 566 963 566 963 c 2,51,52
 546 959 546 959 542.5 935.5 c 128,-1,53
 539 912 539 912 543 851 c 0,54,55
 547 812 547 812 547 763.5 c 128,-1,56
 547 715 547 715 549 682.5 c 128,-1,57
 551 650 551 650 556 629 c 0,58,59
 562 609 562 609 565 564 c 128,-1,60
 568 519 568 519 570 508 c 2,61,62
 570 508 570 508 573 495 c 128,-1,63
 576 482 576 482 580 461.5 c 128,-1,64
 584 441 584 441 586 428 c 0,65,66
 592 401 592 401 597 303 c 0,67,68
 601 250 601 250 606 202 c 128,-1,69
 611 154 611 154 612 147.5 c 128,-1,70
 613 141 613 141 611 105 c 0,71,72
 605 56 605 56 592 27 c 0,73,74
 579 2 579 2 556 2 c 0,0,1
EndSplineSet
Validated: 33
EndChar

StartChar: u
Encoding: 117 117 84
Width: 1101
GlyphClass: 1
Flags: W
LayerCount: 2
Fore
SplineSet
929 886 m 0,0,1
 911 878 911 878 898 824 c 0,2,3
 871 711 871 711 859 625 c 0,4,5
 841 498 841 498 789 398 c 0,6,7
 752 324 752 324 679 244 c 0,8,9
 652 213 652 213 607 193 c 2,10,-1
 574 180 l 1,11,-1
 529 180 l 1,12,-1
 486 182 l 1,13,-1
 469 195 l 2,14,15
 434 220 434 220 394 289 c 0,16,17
 357 357 357 357 324 461 c 0,18,19
 285 584 285 584 281 613 c 0,20,21
 277 650 277 650 271 664 c 0,22,23
 267 678 267 678 242 773 c 2,24,25
 242 773 242 773 225 843 c 0,26,27
 209 907 209 907 197 916 c 0,28,29
 181 926 181 926 158 916 c 0,30,31
 148 912 148 912 139 894 c 2,32,-1
 129 875 l 1,33,-1
 125 804 l 2,34,35
 111 492 111 492 164 346 c 0,36,37
 166 340 166 340 175 314.5 c 128,-1,38
 184 289 184 289 187 273 c 0,39,40
 208 203 208 203 240 154 c 0,41,42
 310 47 310 47 379 16 c 0,43,44
 424 -5 424 -5 500 -6 c 0,45,46
 668 -6 668 -6 783 107 c 0,47,48
 857 179 857 179 896 273 c 0,49,50
 914 314 914 314 916 318 c 0,51,52
 945 377 945 377 959 441 c 0,53,54
 961 459 961 459 970 625 c 0,55,56
 974 730 974 730 970 763 c 0,57,58
 968 775 968 775 963 822 c 0,59,60
 955 875 955 875 953 879 c 0,61,62
 943 894 943 894 929 886 c 0,0,1
EndSplineSet
Validated: 41
EndChar

StartChar: v
Encoding: 118 118 85
Width: 958
GlyphClass: 1
Flags: W
LayerCount: 2
Fore
SplineSet
534.5 17.5 m 128,-1,1
 515 21 515 21 504 55 c 0,2,3
 483 116 483 116 427 232.5 c 128,-1,4
 371 349 371 349 340 398 c 0,5,6
 334 408 334 408 301 469 c 0,7,8
 297 475 297 475 271.5 518.5 c 128,-1,9
 246 562 246 562 232 590 c 0,10,11
 162 713 162 713 143 765 c 0,12,13
 98 880 98 880 98 927 c 0,14,15
 98 950 98 950 113 951 c 0,16,17
 129 951 129 951 178 892 c 0,18,19
 362 675 362 675 463 474 c 2,20,-1
 494 410 l 1,21,-1
 510 459 l 2,22,23
 528 506 528 506 553 566 c 0,24,25
 571 611 571 611 603 703 c 0,26,27
 624 762 624 762 660 840 c 0,28,29
 664 848 664 848 691 912 c 0,30,31
 697 926 697 926 724 974 c 0,32,33
 740 999 740 999 758 1041 c 0,34,35
 770 1066 770 1066 783 1070 c 0,36,37
 803 1076 803 1076 820 1068 c 0,38,39
 847 1056 847 1056 851 1023 c 128,-1,40
 855 990 855 990 836 898 c 1,41,42
 820 843 820 843 820 841 c 0,43,44
 814 825 814 825 797 738 c 0,45,46
 781 644 781 644 754 554 c 0,47,48
 752 550 752 550 742 512 c 0,49,50
 738 500 738 500 730 472.5 c 128,-1,51
 722 445 722 445 720 441 c 0,52,53
 700 373 700 373 699 365 c 0,54,55
 697 361 697 361 689 336.5 c 128,-1,56
 681 312 681 312 677 299 c 0,57,58
 675 289 675 289 671.5 275.5 c 128,-1,59
 668 262 668 262 662 244 c 128,-1,60
 656 226 656 226 654 217 c 0,61,62
 636 158 636 158 621 123 c 0,63,64
 590 55 590 55 572 34.5 c 128,-1,0
 554 14 554 14 534.5 17.5 c 128,-1,1
EndSplineSet
Validated: 33
EndChar

StartChar: w
Encoding: 119 119 86
Width: 1579
GlyphClass: 1
Flags: W
LayerCount: 2
Fore
SplineSet
1113 -4 m 0,0,1
 1070 10 1070 10 1060 62 c 0,2,3
 1058 70 1058 70 1046 144 c 0,4,5
 1026 275 1026 275 992 389 c 0,6,7
 971 465 971 465 964 471 c 0,8,9
 962 473 962 473 956.5 466 c 128,-1,10
 951 459 951 459 940 445 c 128,-1,11
 929 431 929 431 916 414 c 0,12,13
 842 311 842 311 787 250 c 0,14,15
 766 227 766 227 730.5 173 c 128,-1,16
 695 119 695 119 685 98 c 0,17,18
 683 92 683 92 662 55 c 0,19,20
 646 30 646 30 623 18 c 0,21,22
 609 10 609 10 584 10 c 0,23,24
 535 10 535 10 515.5 31.5 c 128,-1,25
 496 53 496 53 457 141 c 0,26,27
 453 149 453 149 439.5 183 c 128,-1,28
 426 217 426 217 414 248 c 0,29,30
 316 521 316 521 234 664 c 0,31,32
 146 814 146 814 103 939 c 0,33,34
 83 992 83 992 88 1002 c 0,35,36
 92 1006 92 1006 107.5 1002 c 128,-1,37
 123 998 123 998 157 978.5 c 128,-1,38
 191 959 191 959 236 927 c 0,39,40
 254 913 254 913 271 896 c 0,41,42
 439 716 439 716 564 361 c 0,43,44
 585 304 585 304 586 305 c 1,45,46
 590 301 590 301 616 338 c 128,-1,47
 642 375 642 375 658 404 c 0,48,49
 693 470 693 470 790.5 581.5 c 128,-1,50
 888 693 888 693 925 709 c 0,51,52
 937 715 937 715 963 715 c 0,53,54
 1078 715 1078 715 1152 469 c 0,55,56
 1164 436 1164 436 1167 435 c 0,57,58
 1171 445 1171 445 1181 480 c 0,59,60
 1193 519 1193 519 1222 597 c 0,61,62
 1226 605 1226 605 1235 628.5 c 128,-1,63
 1244 652 1244 652 1253.5 679.5 c 128,-1,64
 1263 707 1263 707 1271 732 c 0,65,66
 1308 849 1308 849 1349 939 c 0,67,68
 1351 943 1351 943 1361 963.5 c 128,-1,69
 1371 984 1371 984 1371 986 c 0,70,71
 1385 1017 1385 1017 1411 1050.5 c 128,-1,72
 1437 1084 1437 1084 1445 1080 c 0,73,74
 1461 1076 1461 1076 1460 994 c 0,75,76
 1460 928 1460 928 1449 818 c 0,77,78
 1445 779 1445 779 1445 765 c 0,79,80
 1439 687 1439 687 1425 635 c 0,81,82
 1417 606 1417 606 1413 576 c 0,83,84
 1403 512 1403 512 1392 471 c 1,85,86
 1392 451 1392 451 1382 431 c 1,87,88
 1357 337 1357 337 1314 226 c 128,-1,89
 1271 115 1271 115 1251 88 c 0,90,91
 1243 78 1243 78 1234 53 c 0,92,93
 1211 -8 1211 -8 1152 -10 c 0,94,95
 1131 -10 1131 -10 1113 -4 c 0,0,1
EndSplineSet
Validated: 33
EndChar

StartChar: x
Encoding: 120 120 87
Width: 1003
GlyphClass: 1
Flags: W
LayerCount: 2
Fore
SplineSet
127 23 m 0,0,1
 113 29 113 29 152 98 c 0,2,3
 172 129 172 129 185 160 c 0,4,5
 214 217 214 217 223 232 c 0,6,7
 225 234 225 234 230.5 245 c 128,-1,8
 236 256 236 256 241 265.5 c 128,-1,9
 246 275 246 275 246 277 c 0,10,11
 285 347 285 347 312 387 c 0,12,13
 406 530 406 530 406 539 c 0,14,15
 406 545 406 545 336 611 c 0,16,17
 213 734 213 734 121 873 c 0,18,19
 98 908 98 908 95 918.5 c 128,-1,20
 92 929 92 929 98 937 c 0,21,22
 114 953 114 953 162 923 c 0,23,24
 164 921 164 921 179.5 912.5 c 128,-1,25
 195 904 195 904 197 904 c 0,26,27
 295 849 295 849 433 720 c 0,28,29
 470 685 470 685 476 693 c 2,30,31
 476 693 476 693 478 697 c 0,32,33
 478 701 478 701 480 701 c 0,34,35
 498 713 498 713 601 898 c 0,36,37
 615 923 615 923 648 964 c 0,38,39
 714 1044 714 1044 765 1072 c 0,40,41
 788 1084 788 1084 800 1080 c 0,42,43
 843 1068 843 1068 864.5 1031 c 128,-1,44
 886 994 886 994 879 961 c 0,45,46
 867 908 867 908 816 824 c 0,47,48
 796 793 796 793 769 752 c 0,49,50
 753 727 753 727 711 656 c 0,51,52
 682 607 682 607 652 570 c 0,53,54
 631 541 631 541 631 537 c 128,-1,55
 631 533 631 533 662 496 c 0,56,57
 709 445 709 445 740 396 c 0,58,59
 761 363 761 363 783 338 c 0,60,61
 851 246 851 246 886 154 c 0,62,63
 902 109 902 109 898 82 c 128,-1,64
 894 55 894 55 875 51 c 0,65,66
 846 47 846 47 816 80 c 0,67,68
 796 105 796 105 775 141 c 0,69,70
 714 233 714 233 703 244 c 0,71,72
 699 250 699 250 681.5 268.5 c 128,-1,73
 664 287 664 287 660 293 c 0,74,75
 640 318 640 318 594.5 362 c 128,-1,76
 549 406 549 406 545 406 c 0,77,78
 539 406 539 406 521 385 c 0,79,80
 486 338 486 338 474 326 c 0,81,82
 449 301 449 301 430 271 c 0,83,84
 422 257 422 257 396 232 c 0,85,86
 314 150 314 150 260 115 c 0,87,88
 225 88 225 88 207 74 c 0,89,90
 137 19 137 19 127 23 c 0,0,1
EndSplineSet
Validated: 33
EndChar

StartChar: y
Encoding: 121 121 88
Width: 1114
GlyphClass: 1
Flags: W
LayerCount: 2
Fore
SplineSet
482 -367 m 0,0,1
 472 -359 472 -359 471.5 -352.5 c 128,-1,2
 471 -346 471 -346 474 -312 c 0,3,4
 478 -277 478 -277 527 -180 c 0,5,6
 568 -98 568 -98 574 -82 c 0,7,8
 623 59 623 59 644 230 c 1,9,-1
 642 248 l 1,10,11
 656 260 656 260 512 449 c 0,12,13
 504 461 504 461 500 465 c 0,14,15
 496 471 496 471 353 650 c 0,16,17
 353 654 353 654 295 720 c 0,18,19
 256 765 256 765 199 859 c 0,20,21
 137 961 137 961 127 990 c 0,22,23
 119 1013 119 1013 120 1028 c 128,-1,24
 121 1043 121 1043 129 1049.5 c 128,-1,25
 137 1056 137 1056 148 1050 c 0,26,27
 166 1042 166 1042 232.5 993.5 c 128,-1,28
 299 945 299 945 348 904 c 0,29,30
 391 867 391 867 523 734 c 0,31,32
 662 597 662 597 668 588 c 0,33,34
 697 545 697 545 728 508 c 0,35,36
 749 483 749 483 752 484 c 0,37,38
 756 488 756 488 763 521 c 0,39,40
 775 576 775 576 797 625 c 0,41,42
 834 713 834 713 834 713 c 1,43,44
 895 910 895 910 939 1000 c 0,45,46
 949 1020 949 1020 988 1078 c 0,47,48
 998 1094 998 1094 1002 1089 c 0,49,50
 1031 1060 1031 1060 1017 990 c 0,51,52
 982 801 982 801 982 740 c 0,53,54
 982 738 982 738 978 718 c 0,55,56
 968 675 968 675 968 674 c 0,57,58
 958 643 958 643 959 642 c 0,59,60
 904 361 904 361 890 308 c 0,61,62
 878 267 878 267 877 262 c 0,63,64
 867 213 867 213 839.5 119 c 128,-1,65
 812 25 812 25 800 10 c 0,66,67
 784 -13 784 -13 754 -96 c 0,68,69
 723 -180 723 -180 709 -199 c 0,70,71
 676 -254 676 -254 616 -305.5 c 128,-1,72
 556 -357 556 -357 510 -371 c 0,73,74
 494 -375 494 -375 482 -367 c 0,0,1
EndSplineSet
Validated: 33
EndChar

StartChar: z
Encoding: 122 122 89
Width: 1108
GlyphClass: 1
Flags: W
LayerCount: 2
Fore
SplineSet
886 -6 m 0,0,1
 847 -2 847 -2 771 -2 c 128,-1,2
 695 -2 695 -2 662 0 c 0,3,4
 641 2 641 2 573.5 -1 c 128,-1,5
 506 -4 506 -4 469 2 c 0,6,7
 465 2 465 2 348 6 c 0,8,9
 248 10 248 10 226.5 15 c 128,-1,10
 205 20 205 20 195 41 c 0,11,12
 183 64 183 64 184 115 c 0,13,14
 184 131 184 131 197 156 c 0,15,16
 232 217 232 217 253.5 244 c 128,-1,17
 275 271 275 271 336 332 c 0,18,19
 525 521 525 521 594 597 c 0,20,21
 705 720 705 720 715 732 c 2,22,-1
 789 822 l 1,23,-1
 718 804 l 2,24,25
 681 794 681 794 580.5 780.5 c 128,-1,26
 480 767 480 767 431 756 c 0,27,28
 292 721 292 721 154 728 c 0,29,30
 121 730 121 730 106.5 732 c 128,-1,31
 92 734 92 734 90 740 c 128,-1,32
 88 746 88 746 95.5 754.5 c 128,-1,33
 103 763 103 763 127 781 c 0,34,35
 326 929 326 929 588 968 c 0,36,37
 697 984 697 984 806.5 985 c 128,-1,38
 916 986 916 986 959 972 c 0,39,40
 996 958 996 958 1011.5 920 c 128,-1,41
 1027 882 1027 882 1009 845 c 0,42,43
 993 814 993 814 896 710.5 c 128,-1,44
 799 607 799 607 675 478 c 128,-1,45
 551 349 551 349 500 287 c 0,46,47
 490 275 490 275 460.5 244 c 128,-1,48
 431 213 431 213 410 189.5 c 128,-1,49
 389 166 389 166 390 166 c 0,50,51
 447 166 447 166 547 156 c 0,52,53
 604 150 604 150 814 141 c 0,54,55
 953 135 953 135 986 125 c 0,56,57
 1034 111 1034 111 1044 100 c 0,58,59
 1048 94 1048 94 1057 86 c 128,-1,60
 1066 78 1066 78 1069 74 c 128,-1,61
 1072 70 1072 70 1076 63.5 c 128,-1,62
 1080 57 1080 57 1080 53 c 128,-1,63
 1080 49 1080 49 1077 42 c 128,-1,64
 1074 35 1074 35 1068 27 c 0,65,66
 1056 11 1056 11 1009.5 3.5 c 128,-1,67
 963 -4 963 -4 928.5 -5 c 128,-1,68
 894 -6 894 -6 886 -6 c 0,0,1
EndSplineSet
Validated: 33
EndChar

StartChar: braceleft
Encoding: 123 123 90
Width: 655
GlyphClass: 1
Flags: W
LayerCount: 2
Fore
SplineSet
670 21 m 0,0,1
 615 3 615 3 545.5 9.5 c 128,-1,2
 476 16 476 16 437 35 c 0,3,4
 378 64 378 64 340.5 138.5 c 128,-1,5
 303 213 303 213 267 330 c 0,6,7
 222 480 222 480 209 633 c 0,8,9
 207 653 207 653 136.5 692.5 c 128,-1,10
 66 732 66 732 66 754 c 0,11,12
 66 770 66 770 136.5 802 c 128,-1,13
 207 834 207 834 207 849 c 0,14,15
 215 982 215 982 258 1126 c 0,16,17
 262 1140 262 1140 277.5 1202.5 c 128,-1,18
 293 1265 293 1265 303.5 1298 c 128,-1,19
 314 1331 314 1331 339.5 1377 c 128,-1,20
 365 1423 365 1423 398 1449 c 0,21,22
 460 1494 460 1494 578 1499 c 0,23,24
 646 1503 646 1503 664 1492 c 0,25,26
 685 1474 685 1474 654 1413 c 0,27,28
 648 1401 648 1401 578 1385 c 128,-1,29
 508 1369 508 1369 508 1365 c 0,30,31
 502 1338 502 1338 490 1310 c 0,32,33
 469 1257 469 1257 459 1216 c 0,34,35
 455 1198 455 1198 435 1140 c 0,36,37
 415 1076 415 1076 408 1031 c 0,38,39
 388 933 388 933 383 826 c 0,40,41
 381 814 381 814 341 789.5 c 128,-1,42
 301 765 301 765 301 756 c 0,43,44
 301 738 301 738 343 705 c 128,-1,45
 385 672 385 672 385 656 c 0,46,47
 403 437 403 437 445 307 c 0,48,49
 490 168 490 168 496 156 c 0,50,51
 500 148 500 148 590.5 105 c 128,-1,52
 681 62 681 62 677 33 c 0,53,54
 678 25 678 25 670 21 c 0,0,1
EndSplineSet
Validated: 33
EndChar

StartChar: bar
Encoding: 124 124 91
Width: 480
GlyphClass: 1
Flags: W
LayerCount: 2
Fore
SplineSet
230 -150 m 4,0,1
 197 -142 197 -142 182 -115 c 4,2,3
 168 -92 168 -92 160 -29 c 4,4,5
 150 59 150 59 148 368 c 132,-1,6
 146 677 146 677 154 832 c 4,7,8
 156 852 156 852 158 918 c 132,-1,9
 160 984 160 984 160 1004 c 4,10,11
 166 1275 166 1275 170 1304 c 4,12,13
 174 1329 174 1329 195.5 1396.5 c 132,-1,14
 217 1464 217 1464 225 1474 c 4,15,16
 231 1480 231 1480 236 1497 c 4,17,18
 248 1524 248 1524 254 1513 c 4,19,20
 258 1507 258 1507 266 1486 c 4,21,22
 287 1429 287 1429 293 1374 c 4,23,24
 297 1335 297 1335 305 1294 c 4,25,26
 317 1222 317 1222 328 756 c 4,27,28
 334 508 334 508 336 498 c 4,29,30
 336 492 336 492 348 4 c 4,31,32
 350 -92 350 -92 346 -105 c 4,33,34
 338 -130 338 -130 307 -144 c 4,35,36
 269 -160 269 -160 230 -150 c 4,0,1
EndSplineSet
Validated: 33
EndChar

StartChar: braceright
Encoding: 125 125 92
Width: 773
GlyphClass: 1
Flags: W
LayerCount: 2
Fore
SplineSet
33 21 m 0,0,1
 88 3 88 3 157 9.5 c 128,-1,2
 226 16 226 16 266 35 c 0,3,4
 325 64 325 64 362.5 138.5 c 128,-1,5
 400 213 400 213 435 330 c 0,6,7
 482 490 482 490 496 633 c 0,8,9
 498 653 498 653 568 692.5 c 128,-1,10
 638 732 638 732 638 754 c 0,11,12
 638 770 638 770 568 802 c 128,-1,13
 498 834 498 834 498 849 c 0,14,15
 490 974 490 974 445 1126 c 0,16,17
 441 1142 441 1142 425.5 1202.5 c 128,-1,18
 410 1263 410 1263 400 1297 c 128,-1,19
 390 1331 390 1331 365 1377 c 128,-1,20
 340 1423 340 1423 307 1449 c 0,21,22
 245 1494 245 1494 127 1499 c 0,23,24
 57 1503 57 1503 39 1492 c 0,25,26
 18 1476 18 1476 51 1413 c 0,27,28
 57 1401 57 1401 125 1385 c 128,-1,29
 193 1369 193 1369 193 1365 c 0,30,31
 195 1353 195 1353 215 1310 c 0,32,33
 236 1257 236 1257 246 1216 c 0,34,35
 254 1181 254 1181 267 1140 c 0,36,37
 287 1076 287 1076 295 1031 c 0,38,39
 316 918 316 918 322 826 c 0,40,41
 324 814 324 814 364 789.5 c 128,-1,42
 404 765 404 765 404 756 c 0,43,44
 404 738 404 738 362 705 c 128,-1,45
 320 672 320 672 320 656 c 0,46,47
 304 445 304 445 258 307 c 0,48,49
 248 278 248 278 240 246.5 c 128,-1,50
 232 215 232 215 225.5 196.5 c 128,-1,51
 219 178 219 178 209 156 c 0,52,53
 205 148 205 148 113 105 c 128,-1,54
 21 62 21 62 25 33 c 0,55,56
 25 25 25 25 33 21 c 0,0,1
EndSplineSet
Validated: 41
EndChar

StartChar: asciitilde
Encoding: 126 126 93
Width: 886
GlyphClass: 1
Flags: W
LayerCount: 2
Fore
SplineSet
207 504 m 0,0,1
 236 471 236 471 237 471 c 0,2,3
 249 463 249 463 267 461 c 2,4,-1
 289 458 l 1,5,-1
 314 463 l 2,6,7
 331 466 331 466 342 472 c 0,8,9
 351 476 351 476 372 493 c 0,10,11
 401 518 401 518 406 532 c 0,12,13
 416 557 416 557 430 574 c 0,14,15
 447 594 447 594 476 610 c 0,16,17
 535 643 535 643 581 648 c 0,18,19
 693 660 693 660 743 622 c 0,20,21
 797 583 797 583 809 564 c 0,22,23
 864 481 864 481 813 492 c 0,24,25
 664 526 664 526 664 526 c 2,26,27
 565 545 565 545 485 450 c 0,28,29
 445 402 445 402 397 380 c 0,30,31
 378 372 378 372 346 367 c 0,32,33
 299 358 299 358 251 362 c 0,34,35
 221 365 221 365 202 370 c 0,36,37
 148 384 148 384 120 412 c 0,38,39
 94 437 94 437 60 492 c 0,40,41
 40 524 40 524 43 546 c 0,42,43
 60 667 60 667 207 504 c 0,0,1
EndSplineSet
Validated: 33
EndChar

StartChar: grave
Encoding: 96 96 94
Width: 498
Flags: W
LayerCount: 2
Fore
SplineSet
144.317382812 1433.54492188 m 0,0,1
 116.5859375 1535.84375 116.5859375 1535.84375 120.528320312 1549.42480469 c 0,2,3
 121.317382812 1552.140625 121.317382812 1552.140625 124.822265625 1554.06835938 c 0,4,5
 129.291015625 1554.24414062 129.291015625 1554.24414062 166.442382812 1531.30859375 c 128,-1,6
 203.59375 1508.37402344 203.59375 1508.37402344 217.043945312 1496.37011719 c 0,7,8
 228.258789062 1484.27832031 228.258789062 1484.27832031 253.538085938 1467.3671875 c 0,9,10
 355.573242188 1387.67480469 355.573242188 1387.67480469 417.78515625 1284.93847656 c 0,11,12
 479.426757812 1185.31347656 479.426757812 1185.31347656 466.852539062 1152.1484375 c 0,13,14
 464.487304688 1144 464.487304688 1144 449.197265625 1123.03613281 c 128,-1,15
 433.907226562 1102.07226562 433.907226562 1102.07226562 428.649414062 1099.18066406 c 0,16,17
 416.3828125 1092.43457031 416.3828125 1092.43457031 390.096679688 1100.80175781 c 0,18,19
 352.637695312 1108.73144531 352.637695312 1108.73144531 306.571289062 1159.29003906 c 128,-1,20
 260.50390625 1209.84765625 260.50390625 1209.84765625 181.64453125 1349.078125 c 0,21,22
 153.2109375 1400.77441406 153.2109375 1400.77441406 144.317382812 1433.54492188 c 0,0,1
EndSplineSet
Validated: 524321
EndChar
